M48
; DRILL file {KiCad 9.0.4} date 2026-05-02T09:58:58+0200
; FORMAT={-:-/ absolute / metric / decimal}
; #@! TF.CreationDate,2026-05-02T09:58:58+02:00
; #@! TF.GenerationSoftware,Kicad,Pcbnew,9.0.4
; #@! TF.FileFunction,Plated,1,2,PTH
FMAT,2
METRIC
; #@! TA.AperFunction,Plated,PTH,ViaDrill
T1C0.400
; #@! TA.AperFunction,Plated,PTH,ComponentDrill
T2C0.760
; #@! TA.AperFunction,Plated,PTH,ComponentDrill
T3C1.000
; #@! TA.AperFunction,Plated,PTH,ComponentDrill
T4C1.200
%
G90
G05
T1
X129.5Y-100.0
X129.75Y-90.25
X129.75Y-105.25
X130.5Y-63.25
X130.5Y-66.0
X131.0Y-98.25
X131.15Y-80.775
X131.5Y-82.5
X131.5Y-114.75
X131.75Y-108.5
X132.0Y-71.75
X132.25Y-69.25
X133.0Y-64.5
X135.21Y-83.03
X135.45Y-80.575
X136.0Y-63.75
X136.69Y-93.91
X136.75Y-72.0
X136.75Y-74.5
X137.67Y-94.31
X138.5Y-89.25
X139.25Y-79.75
X139.5Y-68.0
X139.75Y-89.5
X140.0Y-92.0
X143.0Y-73.0
X144.0Y-105.5
X144.25Y-64.75
X144.75Y-93.0
X145.0Y-80.25
X146.0Y-116.5
X146.5Y-75.0
X146.75Y-103.25
X147.25Y-87.25
X148.25Y-70.5
X148.75Y-65.25
X149.89Y-64.4
X151.75Y-68.75
X152.28Y-63.84
X154.75Y-67.5
X155.5Y-81.75
X157.5Y-68.5
X157.75Y-90.0
X158.25Y-74.0
X159.0Y-62.8
X159.25Y-84.0
X159.75Y-70.25
X160.25Y-72.0
X160.75Y-99.5
X161.5Y-64.5
X163.5Y-90.25
X164.75Y-75.75
X165.25Y-79.75
X165.5Y-104.5
X167.25Y-65.75
X167.25Y-102.25
X169.25Y-71.75
X170.0Y-68.0
X170.85Y-70.31
X170.85Y-70.31
X171.275Y-66.475
X171.5Y-64.0
X171.775Y-74.65
X173.75Y-65.5
X174.0Y-64.0
X174.0Y-102.5
X174.75Y-100.25
X175.25Y-112.25
X176.25Y-76.0
X176.75Y-94.25
X177.25Y-66.0
X178.5Y-71.5
X179.0Y-68.5
X179.5Y-76.0
X180.5Y-112.0
X181.25Y-64.75
X182.25Y-101.5
X182.6Y-65.775
X182.75Y-119.75
X184.25Y-118.25
X184.75Y-81.75
X186.0Y-75.5
X186.25Y-73.5
X186.7Y-63.225
X186.75Y-119.75
X187.7Y-64.25
X188.25Y-83.75
X188.75Y-101.75
X189.75Y-67.5
X189.75Y-119.0
X191.5Y-117.25
X192.75Y-86.0
X193.0Y-84.975
X193.5Y-87.25
X202.25Y-117.25
X202.5Y-86.5
X203.5Y-63.25
X203.75Y-70.0
X204.5Y-102.0
X204.75Y-86.5
X209.0Y-101.5
X209.25Y-117.75
X212.25Y-65.75
X212.5Y-73.5
X212.75Y-116.25
X213.25Y-103.5
X213.25Y-112.25
X213.5Y-79.75
X213.5Y-106.5
X213.5Y-119.75
X213.75Y-92.75
T2
X171.875Y-100.8
X171.875Y-103.34
X171.875Y-105.88
X171.875Y-110.96
X171.875Y-113.5
T3
X149.86Y-106.68
X149.86Y-109.22
X149.86Y-111.76
X149.86Y-114.3
X149.86Y-116.84
X152.4Y-106.68
X152.4Y-109.22
X152.4Y-111.76
X152.4Y-114.3
X152.4Y-116.84
X174.0Y-79.46
X174.0Y-82.0
X174.0Y-84.54
X174.0Y-87.08
X195.58Y-71.12
X195.58Y-73.66
X195.58Y-76.2
X195.58Y-78.74
X195.58Y-81.28
X195.58Y-83.82
X195.58Y-86.36
X195.58Y-88.9
X195.58Y-91.44
X195.58Y-93.98
X195.58Y-96.52
X195.58Y-99.06
X195.58Y-101.6
X195.58Y-104.14
X195.58Y-106.68
X195.58Y-109.22
X195.58Y-111.76
X195.58Y-114.3
X195.58Y-116.84
X195.58Y-119.38
X198.12Y-71.12
X198.12Y-73.66
X198.12Y-76.2
X198.12Y-78.74
X198.12Y-81.28
X198.12Y-83.82
X198.12Y-86.36
X198.12Y-88.9
X198.12Y-91.44
X198.12Y-93.98
X198.12Y-96.52
X198.12Y-99.06
X198.12Y-101.6
X198.12Y-104.14
X198.12Y-106.68
X198.12Y-109.22
X198.12Y-111.76
X198.12Y-114.3
X198.12Y-116.84
X198.12Y-119.38
T4
X133.228Y-85.5
X140.0Y-85.5
M30
