G04 #@! TF.GenerationSoftware,KiCad,Pcbnew,9.0.4*
G04 #@! TF.CreationDate,2026-05-02T09:58:58+02:00*
G04 #@! TF.ProjectId,Zusatzplatine,5a757361-747a-4706-9c61-74696e652e6b,rev?*
G04 #@! TF.SameCoordinates,Original*
G04 #@! TF.FileFunction,Soldermask,Top*
G04 #@! TF.FilePolarity,Negative*
%FSLAX46Y46*%
G04 Gerber Fmt 4.6, Leading zero omitted, Abs format (unit mm)*
G04 Created by KiCad (PCBNEW 9.0.4) date 2026-05-02 09:58:58*
%MOMM*%
%LPD*%
G01*
G04 APERTURE LIST*
%ADD10C,0.450000*%
%ADD11C,0.000000*%
%ADD12R,1.410008X1.350013*%
%ADD13R,0.806477X0.864008*%
%ADD14R,0.800000X0.800000*%
%ADD15R,1.350013X1.410008*%
%ADD16O,1.970993X0.602007*%
%ADD17R,0.540005X0.500000*%
%ADD18R,1.132537X1.377013*%
%ADD19O,0.364008X1.662002*%
%ADD20R,1.800000X1.500000*%
%ADD21R,1.700000X1.700000*%
%ADD22O,1.700000X1.700000*%
%ADD23R,1.200000X1.950013*%
%ADD24R,1.600000X1.950013*%
%ADD25R,1.400000X0.800000*%
%ADD26R,0.864008X0.806477*%
%ADD27C,1.303000*%
%ADD28O,2.045009X0.588011*%
%ADD29C,2.400000*%
%ADD30R,0.500000X0.540005*%
%ADD31C,1.700000*%
%ADD32O,0.588011X2.045009*%
G04 APERTURE END LIST*
D10*
X191785714Y-66364457D02*
X191785714Y-63364457D01*
X191785714Y-64793028D02*
X193500000Y-64793028D01*
X193500000Y-66364457D02*
X193500000Y-63364457D01*
X195928571Y-64793028D02*
X194928571Y-64793028D01*
X194928571Y-66364457D02*
X194928571Y-63364457D01*
X194928571Y-63364457D02*
X196357143Y-63364457D01*
X197500000Y-63364457D02*
X197500000Y-65793028D01*
X197500000Y-65793028D02*
X197642857Y-66078742D01*
X197642857Y-66078742D02*
X197785715Y-66221600D01*
X197785715Y-66221600D02*
X198071429Y-66364457D01*
X198071429Y-66364457D02*
X198642857Y-66364457D01*
X198642857Y-66364457D02*
X198928572Y-66221600D01*
X198928572Y-66221600D02*
X199071429Y-66078742D01*
X199071429Y-66078742D02*
X199214286Y-65793028D01*
X199214286Y-65793028D02*
X199214286Y-63364457D01*
D11*
G04 #@! TO.C,Ge*
G36*
X207338603Y-63711117D02*
G01*
X207532121Y-63786510D01*
X207663895Y-63871803D01*
X207790328Y-63990140D01*
X207899015Y-64128451D01*
X207962664Y-64240044D01*
X207996218Y-64314041D01*
X208017991Y-64375219D01*
X208030512Y-64437534D01*
X208036308Y-64514944D01*
X208037910Y-64621406D01*
X208037952Y-64655564D01*
X208037026Y-64771865D01*
X208032563Y-64855485D01*
X208022034Y-64920382D01*
X208002910Y-64980513D01*
X207972662Y-65049835D01*
X207962664Y-65071085D01*
X207853746Y-65249778D01*
X207713474Y-65398670D01*
X207547976Y-65514620D01*
X207363380Y-65594490D01*
X207165812Y-65635141D01*
X206961402Y-65633433D01*
X206887518Y-65621884D01*
X206687872Y-65560381D01*
X206511667Y-65462213D01*
X206362075Y-65332730D01*
X206242267Y-65177280D01*
X206155416Y-65001214D01*
X206104692Y-64809880D01*
X206093266Y-64608628D01*
X206124312Y-64402808D01*
X206137397Y-64356666D01*
X206219256Y-64167758D01*
X206338295Y-64003603D01*
X206490077Y-63867871D01*
X206670166Y-63764237D01*
X206874129Y-63696372D01*
X206953010Y-63681332D01*
X207141693Y-63674906D01*
X207338603Y-63711117D01*
G37*
G36*
X207732177Y-62365612D02*
G01*
X207792969Y-62385588D01*
X207875946Y-62414476D01*
X207920004Y-62430275D01*
X208167777Y-62540531D01*
X208412120Y-62687898D01*
X208640804Y-62863678D01*
X208841600Y-63059172D01*
X208900844Y-63127975D01*
X209098812Y-63403181D01*
X209252174Y-63691735D01*
X209361373Y-63994870D01*
X209426853Y-64313820D01*
X209449057Y-64649820D01*
X209449063Y-64655564D01*
X209428198Y-64989939D01*
X209365017Y-65305997D01*
X209258643Y-65606175D01*
X209108198Y-65892914D01*
X208912804Y-66168652D01*
X208897847Y-66187083D01*
X208686295Y-66410046D01*
X208441099Y-66605647D01*
X208169192Y-66769538D01*
X207877507Y-66897372D01*
X207657448Y-66965074D01*
X207459695Y-67006307D01*
X207256482Y-67032655D01*
X207062724Y-67042875D01*
X206893340Y-67035722D01*
X206860082Y-67031587D01*
X206695932Y-67006318D01*
X206576112Y-66983911D01*
X206501372Y-66964525D01*
X206473011Y-66949396D01*
X206474531Y-66920869D01*
X206486985Y-66854616D01*
X206508741Y-66757837D01*
X206538165Y-66637731D01*
X206573626Y-66501497D01*
X206579672Y-66478975D01*
X206700370Y-66031265D01*
X207030961Y-66031477D01*
X207170503Y-66030589D01*
X207275021Y-66026854D01*
X207356114Y-66018975D01*
X207425381Y-66005656D01*
X207494419Y-65985600D01*
X207520759Y-65976719D01*
X207678096Y-65908112D01*
X207839000Y-65813147D01*
X207988146Y-65702279D01*
X208110208Y-65585964D01*
X208133505Y-65558725D01*
X208281858Y-65342187D01*
X208386734Y-65113063D01*
X208448134Y-64875674D01*
X208466058Y-64634343D01*
X208440505Y-64393392D01*
X208371476Y-64157141D01*
X208258971Y-63929913D01*
X208133505Y-63752404D01*
X208036831Y-63652107D01*
X207913234Y-63550320D01*
X207777588Y-63457510D01*
X207644769Y-63384142D01*
X207561492Y-63349972D01*
X207495543Y-63325428D01*
X207452404Y-63304316D01*
X207442755Y-63295058D01*
X207448367Y-63262593D01*
X207464382Y-63195371D01*
X207488546Y-63101465D01*
X207518605Y-62988948D01*
X207552304Y-62865895D01*
X207587389Y-62740379D01*
X207621606Y-62620473D01*
X207652701Y-62514251D01*
X207678418Y-62429787D01*
X207696504Y-62375153D01*
X207704364Y-62358160D01*
X207732177Y-62365612D01*
G37*
G36*
X210729654Y-63709883D02*
G01*
X210753798Y-63772639D01*
X210778168Y-63869791D01*
X210801543Y-63995251D01*
X210822705Y-64142932D01*
X210840432Y-64306746D01*
X210847211Y-64387337D01*
X210855684Y-64796798D01*
X210819441Y-65200102D01*
X210740322Y-65594057D01*
X210620165Y-65975470D01*
X210460810Y-66341151D01*
X210264094Y-66687906D01*
X210031857Y-67012545D01*
X209765938Y-67311875D01*
X209468176Y-67582704D01*
X209140408Y-67821841D01*
X208784474Y-68026094D01*
X208737676Y-68049216D01*
X208348847Y-68213608D01*
X207951388Y-68334168D01*
X207548652Y-68410296D01*
X207143995Y-68441388D01*
X206740768Y-68426843D01*
X206673489Y-68419889D01*
X206289084Y-68356066D01*
X205908676Y-68253598D01*
X205542496Y-68115948D01*
X205200771Y-67946580D01*
X205099109Y-67886773D01*
X204982730Y-67810733D01*
X204854433Y-67719243D01*
X204725812Y-67621264D01*
X204608463Y-67525757D01*
X204513983Y-67441682D01*
X204481800Y-67409739D01*
X204400946Y-67325200D01*
X204748378Y-66977187D01*
X205095811Y-66629174D01*
X205228290Y-66751826D01*
X205467701Y-66944215D01*
X205740054Y-67111181D01*
X206036898Y-67248812D01*
X206349781Y-67353192D01*
X206670250Y-67420408D01*
X206672824Y-67420786D01*
X206852161Y-67437551D01*
X207057816Y-67441367D01*
X207273681Y-67433059D01*
X207483648Y-67413451D01*
X207671610Y-67383368D01*
X207748121Y-67365753D01*
X208097066Y-67251892D01*
X208421543Y-67099634D01*
X208719314Y-66911504D01*
X208988141Y-66690026D01*
X209225785Y-66437724D01*
X209430008Y-66157124D01*
X209598571Y-65850750D01*
X209729236Y-65521126D01*
X209819765Y-65170776D01*
X209848115Y-64997407D01*
X209860597Y-64848381D01*
X209863750Y-64671843D01*
X209858225Y-64484395D01*
X209844671Y-64302639D01*
X209823740Y-64143177D01*
X209812358Y-64084345D01*
X209796094Y-64007391D01*
X209785602Y-63951718D01*
X209783153Y-63929507D01*
X209807012Y-63921872D01*
X209867775Y-63904855D01*
X209957151Y-63880629D01*
X210066849Y-63851365D01*
X210188578Y-63819232D01*
X210314047Y-63786402D01*
X210434965Y-63755046D01*
X210543040Y-63727336D01*
X210629982Y-63705441D01*
X210687499Y-63691534D01*
X210706957Y-63687612D01*
X210729654Y-63709883D01*
G37*
G36*
X211102883Y-66971345D02*
G01*
X211226609Y-67042385D01*
X211338426Y-67107045D01*
X211431207Y-67161167D01*
X211497824Y-67200592D01*
X211531148Y-67221162D01*
X211531379Y-67221320D01*
X211546722Y-67236139D01*
X211549835Y-67257178D01*
X211537642Y-67291464D01*
X211507067Y-67346024D01*
X211455034Y-67427885D01*
X211412856Y-67492090D01*
X211121142Y-67892406D01*
X210797381Y-68259653D01*
X210443792Y-68592416D01*
X210062594Y-68889279D01*
X209656005Y-69148827D01*
X209226243Y-69369646D01*
X208775527Y-69550321D01*
X208306075Y-69689436D01*
X207820106Y-69785577D01*
X207816372Y-69786137D01*
X207703894Y-69799537D01*
X207560343Y-69811563D01*
X207397091Y-69821761D01*
X207225510Y-69829677D01*
X207056971Y-69834857D01*
X206902846Y-69836847D01*
X206774506Y-69835193D01*
X206696813Y-69830829D01*
X206231135Y-69771045D01*
X205792057Y-69678567D01*
X205370671Y-69550954D01*
X204958067Y-69385763D01*
X204795895Y-69309791D01*
X204372992Y-69078014D01*
X203972040Y-68806577D01*
X203596711Y-68498740D01*
X203250677Y-68157760D01*
X202937610Y-67786897D01*
X202699519Y-67449600D01*
X202650464Y-67371601D01*
X202613161Y-67308162D01*
X202593573Y-67269585D01*
X202592005Y-67263785D01*
X202611114Y-67247924D01*
X202663420Y-67213330D01*
X202741588Y-67164356D01*
X202838279Y-67105354D01*
X202946156Y-67040678D01*
X203057882Y-66974678D01*
X203166119Y-66911709D01*
X203263530Y-66856122D01*
X203342778Y-66812270D01*
X203396524Y-66784505D01*
X203409868Y-66778634D01*
X203443705Y-66786473D01*
X203484391Y-66835946D01*
X203500385Y-66862869D01*
X203602204Y-67022481D01*
X203735810Y-67199157D01*
X203893656Y-67384881D01*
X204068197Y-67571639D01*
X204251885Y-67751415D01*
X204437174Y-67916194D01*
X204616518Y-68057961D01*
X204644957Y-68078543D01*
X204938634Y-68266185D01*
X205265065Y-68435763D01*
X205612180Y-68582125D01*
X205967906Y-68700117D01*
X206280855Y-68776871D01*
X206375074Y-68794808D01*
X206462122Y-68808270D01*
X206551186Y-68817866D01*
X206651452Y-68824201D01*
X206772107Y-68827882D01*
X206922339Y-68829516D01*
X207081662Y-68829747D01*
X207259756Y-68829178D01*
X207400499Y-68827391D01*
X207513187Y-68823677D01*
X207607112Y-68817327D01*
X207691571Y-68807632D01*
X207775858Y-68793886D01*
X207869267Y-68775378D01*
X207911030Y-68766534D01*
X208339165Y-68652086D01*
X208749250Y-68496769D01*
X209138323Y-68302573D01*
X209503422Y-68071492D01*
X209841585Y-67805516D01*
X210149849Y-67506637D01*
X210425253Y-67176846D01*
X210559965Y-66985549D01*
X210715840Y-66749877D01*
X211102883Y-66971345D01*
G37*
G04 #@! TD*
D12*
G04 #@! TO.C,C7*
X140228474Y-78000000D03*
X142228474Y-78000000D03*
G04 #@! TD*
D13*
G04 #@! TO.C,R20*
X201500000Y-91500000D03*
X203006732Y-91500000D03*
G04 #@! TD*
D14*
G04 #@! TO.C,LED5*
X206997994Y-83999873D03*
X205500000Y-84000127D03*
G04 #@! TD*
D13*
G04 #@! TO.C,R14*
X159746634Y-68000000D03*
X161253366Y-68000000D03*
G04 #@! TD*
G04 #@! TO.C,R11*
X201500000Y-76000000D03*
X203006732Y-76000000D03*
G04 #@! TD*
G04 #@! TO.C,R24*
X201493268Y-104500000D03*
X203000000Y-104500000D03*
G04 #@! TD*
D15*
G04 #@! TO.C,C11*
X184250000Y-68000000D03*
X184250000Y-66000000D03*
G04 #@! TD*
D13*
G04 #@! TO.C,R22*
X201493268Y-96750000D03*
X203000000Y-96750000D03*
G04 #@! TD*
D16*
G04 #@! TO.C,U3*
X184014415Y-70054991D03*
X184014415Y-71324994D03*
X184014415Y-72594996D03*
X184014415Y-73864999D03*
X184014415Y-75135001D03*
X184014415Y-76405004D03*
X184014415Y-77675006D03*
X184014415Y-78945009D03*
X189485585Y-78945009D03*
X189485585Y-77675006D03*
X189485585Y-76405004D03*
X189485585Y-75135001D03*
X189485585Y-73864999D03*
X189485585Y-72594996D03*
X189485585Y-71324994D03*
X189485585Y-70054991D03*
G04 #@! TD*
D14*
G04 #@! TO.C,LED30*
X160500000Y-109000000D03*
X159002006Y-109000254D03*
G04 #@! TD*
D13*
G04 #@! TO.C,R10*
X201491262Y-73499746D03*
X202997994Y-73499746D03*
G04 #@! TD*
D17*
G04 #@! TO.C,C16*
X181551053Y-74750000D03*
X181551053Y-73909766D03*
G04 #@! TD*
D14*
G04 #@! TO.C,LED11*
X206997994Y-104500000D03*
X205500000Y-104500254D03*
G04 #@! TD*
D18*
G04 #@! TO.C,R45*
X186497994Y-91000000D03*
X184497994Y-91000000D03*
G04 #@! TD*
D19*
G04 #@! TO.C,U2*
X137975108Y-78484506D03*
X137324867Y-78484506D03*
X136674879Y-78484506D03*
X136024892Y-78484506D03*
X136024892Y-82746634D03*
X136674879Y-82746634D03*
X137324867Y-82746634D03*
X137975108Y-82746634D03*
D20*
X137000000Y-80615570D03*
G04 #@! TD*
D14*
G04 #@! TO.C,LED27*
X141502006Y-114000254D03*
X143000000Y-114000000D03*
G04 #@! TD*
D13*
G04 #@! TO.C,R35*
X192500000Y-109500000D03*
X190993268Y-109500000D03*
G04 #@! TD*
D14*
G04 #@! TO.C,LED4*
X206997994Y-81499746D03*
X205500000Y-81500000D03*
G04 #@! TD*
G04 #@! TO.C,LED24*
X187251003Y-114500127D03*
X188748997Y-114499873D03*
G04 #@! TD*
D15*
G04 #@! TO.C,C10*
X181500000Y-80000000D03*
X181500000Y-78000000D03*
G04 #@! TD*
D14*
G04 #@! TO.C,LED13*
X206991262Y-109499746D03*
X205493268Y-109500000D03*
G04 #@! TD*
G04 #@! TO.C,LED23*
X187251003Y-112000127D03*
X188748997Y-111999873D03*
G04 #@! TD*
D13*
G04 #@! TO.C,R41*
X155493625Y-111500127D03*
X157000357Y-111500127D03*
G04 #@! TD*
D21*
G04 #@! TO.C,J101*
X149860000Y-106680000D03*
D22*
X152400000Y-106680000D03*
X149860000Y-109220000D03*
X152400000Y-109220000D03*
X149860000Y-111760000D03*
X152400000Y-111760000D03*
X149860000Y-114300000D03*
X152400000Y-114300000D03*
X149860000Y-116840000D03*
X152400000Y-116840000D03*
G04 #@! TD*
D14*
G04 #@! TO.C,LED6*
X206997994Y-89000127D03*
X205500000Y-89000381D03*
G04 #@! TD*
D13*
G04 #@! TO.C,R26*
X201493268Y-109500000D03*
X203000000Y-109500000D03*
G04 #@! TD*
G04 #@! TO.C,R19*
X201500000Y-89000000D03*
X203006732Y-89000000D03*
G04 #@! TD*
D18*
G04 #@! TO.C,R44*
X171497994Y-91000000D03*
X173497994Y-91000000D03*
G04 #@! TD*
D17*
G04 #@! TO.C,C1*
X134000000Y-68159766D03*
X134000000Y-69000000D03*
G04 #@! TD*
D14*
G04 #@! TO.C,LED10*
X207000000Y-99249746D03*
X205502006Y-99250000D03*
G04 #@! TD*
D23*
G04 #@! TO.C,U1*
X134872999Y-93554991D03*
D24*
X131273050Y-93554991D03*
D23*
X134872999Y-103445009D03*
D24*
X131273050Y-103445009D03*
D25*
X135000000Y-98000000D03*
X135000000Y-100019812D03*
X135000000Y-101249936D03*
X135000000Y-99000000D03*
X135000000Y-96979934D03*
X135000000Y-95749809D03*
G04 #@! TD*
D13*
G04 #@! TO.C,R15*
X163246634Y-68000000D03*
X164753366Y-68000000D03*
G04 #@! TD*
D14*
G04 #@! TO.C,LED19*
X187246634Y-107000127D03*
X188744628Y-106999873D03*
G04 #@! TD*
D13*
G04 #@! TO.C,R40*
X146500000Y-114000000D03*
X144993268Y-114000000D03*
G04 #@! TD*
D14*
G04 #@! TO.C,LED22*
X187251003Y-109500127D03*
X188748997Y-109499873D03*
G04 #@! TD*
D26*
G04 #@! TO.C,R4*
X146930023Y-68411736D03*
X146930023Y-66905004D03*
G04 #@! TD*
D14*
G04 #@! TO.C,LED26*
X160500000Y-113999873D03*
X159002006Y-114000127D03*
G04 #@! TD*
G04 #@! TO.C,LED17*
X187251003Y-98500254D03*
X188748997Y-98500000D03*
G04 #@! TD*
D13*
G04 #@! TO.C,R6*
X132721742Y-78000000D03*
X134228474Y-78000000D03*
G04 #@! TD*
G04 #@! TO.C,R30*
X192506732Y-98500000D03*
X191000000Y-98500000D03*
G04 #@! TD*
D27*
G04 #@! TO.C,PS1*
X171875000Y-113500000D03*
X171875000Y-110960000D03*
X171875000Y-105880000D03*
X171875000Y-103340000D03*
X171875000Y-100800000D03*
G04 #@! TD*
D26*
G04 #@! TO.C,R5*
X187000000Y-66743268D03*
X187000000Y-68250000D03*
G04 #@! TD*
D28*
G04 #@! TO.C,U5*
X142069977Y-69405004D03*
X142069977Y-68135001D03*
X142069977Y-66864999D03*
X142069977Y-65594996D03*
X136930023Y-65594996D03*
X136930023Y-66864999D03*
X136930023Y-68135001D03*
X136930023Y-69405004D03*
G04 #@! TD*
D13*
G04 #@! TO.C,R32*
X192500000Y-107000000D03*
X190993268Y-107000000D03*
G04 #@! TD*
G04 #@! TO.C,R37*
X192500000Y-114500000D03*
X190993268Y-114500000D03*
G04 #@! TD*
D15*
G04 #@! TO.C,C3*
X138728474Y-73500000D03*
X138728474Y-75500000D03*
G04 #@! TD*
D17*
G04 #@! TO.C,C19*
X157000000Y-72659766D03*
X157000000Y-73500000D03*
G04 #@! TD*
D14*
G04 #@! TO.C,LED31*
X180000000Y-91000254D03*
X181497994Y-91000000D03*
G04 #@! TD*
G04 #@! TO.C,LED18*
X187253009Y-104000254D03*
X188751003Y-104000000D03*
G04 #@! TD*
G04 #@! TO.C,LED7*
X206997994Y-91499873D03*
X205500000Y-91500127D03*
G04 #@! TD*
D15*
G04 #@! TO.C,C6*
X130500000Y-75484506D03*
X130500000Y-77484506D03*
G04 #@! TD*
D29*
G04 #@! TO.C,TP1*
X133228474Y-85500000D03*
G04 #@! TD*
D17*
G04 #@! TO.C,C2*
X141930023Y-63745238D03*
X141930023Y-62905004D03*
G04 #@! TD*
D14*
G04 #@! TO.C,LED2*
X206997994Y-75999746D03*
X205500000Y-76000000D03*
G04 #@! TD*
G04 #@! TO.C,LED8*
X207000000Y-94000000D03*
X205502006Y-94000254D03*
G04 #@! TD*
G04 #@! TO.C,LED1*
X206997994Y-73499746D03*
X205500000Y-73500000D03*
G04 #@! TD*
G04 #@! TO.C,LED20*
X206997994Y-119499746D03*
X205500000Y-119500000D03*
G04 #@! TD*
D30*
G04 #@! TO.C,C17*
X172500000Y-68500000D03*
X173340234Y-68500000D03*
G04 #@! TD*
G04 #@! TO.C,C23*
X154173483Y-63500000D03*
X153333249Y-63500000D03*
G04 #@! TD*
D13*
G04 #@! TO.C,R2*
X138522987Y-97000000D03*
X137016255Y-97000000D03*
G04 #@! TD*
G04 #@! TO.C,R29*
X192500000Y-96500000D03*
X190993268Y-96500000D03*
G04 #@! TD*
D26*
G04 #@! TO.C,R8*
X139750000Y-80993268D03*
X139750000Y-82500000D03*
G04 #@! TD*
D28*
G04 #@! TO.C,U4*
X172569977Y-73405004D03*
X172569977Y-72135001D03*
X172569977Y-70864999D03*
X172569977Y-69594996D03*
X167430023Y-69594996D03*
X167430023Y-70864999D03*
X167430023Y-72135001D03*
X167430023Y-73405004D03*
G04 #@! TD*
D13*
G04 #@! TO.C,R33*
X201493268Y-119500000D03*
X203000000Y-119500000D03*
G04 #@! TD*
G04 #@! TO.C,R34*
X146500000Y-111500000D03*
X144993268Y-111500000D03*
G04 #@! TD*
G04 #@! TO.C,R23*
X201493268Y-99250000D03*
X203000000Y-99250000D03*
G04 #@! TD*
D12*
G04 #@! TO.C,C9*
X134728474Y-74000000D03*
X132728474Y-74000000D03*
G04 #@! TD*
D13*
G04 #@! TO.C,R31*
X192500000Y-104000000D03*
X190993268Y-104000000D03*
G04 #@! TD*
G04 #@! TO.C,R36*
X192500000Y-112000000D03*
X190993268Y-112000000D03*
G04 #@! TD*
D14*
G04 #@! TO.C,LED14*
X206997994Y-112000000D03*
X205500000Y-112000254D03*
G04 #@! TD*
G04 #@! TO.C,LED28*
X160500000Y-111500000D03*
X159002006Y-111500254D03*
G04 #@! TD*
D13*
G04 #@! TO.C,R38*
X146506732Y-108999746D03*
X145000000Y-108999746D03*
G04 #@! TD*
D14*
G04 #@! TO.C,LED12*
X207000000Y-106499873D03*
X205502006Y-106500127D03*
G04 #@! TD*
D13*
G04 #@! TO.C,R16*
X201493268Y-79000127D03*
X203000000Y-79000127D03*
G04 #@! TD*
D14*
G04 #@! TO.C,LED3*
X207000000Y-78999873D03*
X205502006Y-79000127D03*
G04 #@! TD*
D26*
G04 #@! TO.C,R3*
X146930023Y-64411736D03*
X146930023Y-62905004D03*
G04 #@! TD*
D14*
G04 #@! TO.C,LED25*
X141508738Y-109000000D03*
X143006732Y-108999746D03*
G04 #@! TD*
D30*
G04 #@! TO.C,C24*
X154159766Y-73000000D03*
X155000000Y-73000000D03*
G04 #@! TD*
D13*
G04 #@! TO.C,R17*
X201495631Y-81500127D03*
X203002363Y-81500127D03*
G04 #@! TD*
D26*
G04 #@! TO.C,R7*
X134228474Y-79993268D03*
X134228474Y-81500000D03*
G04 #@! TD*
D30*
G04 #@! TO.C,C20*
X153253366Y-65500000D03*
X152413132Y-65500000D03*
G04 #@! TD*
D15*
G04 #@! TO.C,C5*
X140022987Y-101000000D03*
X140022987Y-103000000D03*
G04 #@! TD*
D13*
G04 #@! TO.C,R9*
X135221742Y-76000000D03*
X136728474Y-76000000D03*
G04 #@! TD*
D26*
G04 #@! TO.C,R43*
X175000000Y-72000000D03*
X175000000Y-70493268D03*
G04 #@! TD*
D14*
G04 #@! TO.C,LED15*
X207000000Y-114499746D03*
X205502006Y-114500000D03*
G04 #@! TD*
D13*
G04 #@! TO.C,R18*
X201493268Y-84000127D03*
X203000000Y-84000127D03*
G04 #@! TD*
G04 #@! TO.C,R21*
X201493268Y-94000000D03*
X203000000Y-94000000D03*
G04 #@! TD*
D15*
G04 #@! TO.C,C4*
X137522987Y-101000000D03*
X137522987Y-103000000D03*
G04 #@! TD*
D13*
G04 #@! TO.C,R39*
X155493268Y-114000000D03*
X157000000Y-114000000D03*
G04 #@! TD*
D14*
G04 #@! TO.C,LED9*
X206997994Y-96749746D03*
X205500000Y-96750000D03*
G04 #@! TD*
D13*
G04 #@! TO.C,R13*
X171000000Y-76000000D03*
X169493268Y-76000000D03*
G04 #@! TD*
D21*
G04 #@! TO.C,J102*
X195580000Y-71120000D03*
D22*
X198120000Y-71120000D03*
X195580000Y-73660000D03*
X198120000Y-73660000D03*
X195580000Y-76200000D03*
X198120000Y-76200000D03*
X195580000Y-78740000D03*
X198120000Y-78740000D03*
X195580000Y-81280000D03*
X198120000Y-81280000D03*
X195580000Y-83820000D03*
X198120000Y-83820000D03*
X195580000Y-86360000D03*
X198120000Y-86360000D03*
X195580000Y-88900000D03*
X198120000Y-88900000D03*
X195580000Y-91440000D03*
X198120000Y-91440000D03*
X195580000Y-93980000D03*
X198120000Y-93980000D03*
X195580000Y-96520000D03*
X198120000Y-96520000D03*
X195580000Y-99060000D03*
X198120000Y-99060000D03*
X195580000Y-101600000D03*
X198120000Y-101600000D03*
X195580000Y-104140000D03*
X198120000Y-104140000D03*
X195580000Y-106680000D03*
X198120000Y-106680000D03*
X195580000Y-109220000D03*
X198120000Y-109220000D03*
X195580000Y-111760000D03*
X198120000Y-111760000D03*
X195580000Y-114300000D03*
X198120000Y-114300000D03*
X195580000Y-116840000D03*
X198120000Y-116840000D03*
X195580000Y-119380000D03*
X198120000Y-119380000D03*
G04 #@! TD*
D14*
G04 #@! TO.C,LED16*
X187251003Y-96500254D03*
X188748997Y-96500000D03*
G04 #@! TD*
D29*
G04 #@! TO.C,TP2*
X140000000Y-85500000D03*
G04 #@! TD*
D17*
G04 #@! TO.C,C18*
X165000000Y-71840234D03*
X165000000Y-71000000D03*
G04 #@! TD*
D13*
G04 #@! TO.C,R42*
X155502006Y-109000000D03*
X157008738Y-109000000D03*
G04 #@! TD*
G04 #@! TO.C,R25*
X201493268Y-106500254D03*
X203000000Y-106500254D03*
G04 #@! TD*
G04 #@! TO.C,R1*
X138522987Y-99000000D03*
X137016255Y-99000000D03*
G04 #@! TD*
D26*
G04 #@! TO.C,R12*
X181750000Y-71006732D03*
X181750000Y-69500000D03*
G04 #@! TD*
D13*
G04 #@! TO.C,R27*
X201493268Y-112000000D03*
X203000000Y-112000000D03*
G04 #@! TD*
D21*
G04 #@! TO.C,J1*
X174000000Y-79460000D03*
D31*
X174000000Y-82000000D03*
X174000000Y-84540000D03*
X174000000Y-87080000D03*
G04 #@! TD*
D14*
G04 #@! TO.C,LED21*
X141502006Y-111500254D03*
X143000000Y-111500000D03*
G04 #@! TD*
D13*
G04 #@! TO.C,R28*
X201500000Y-114500000D03*
X203006732Y-114500000D03*
G04 #@! TD*
D14*
G04 #@! TO.C,LED29*
X177497994Y-91000000D03*
X176000000Y-91000254D03*
G04 #@! TD*
D32*
G04 #@! TO.C,U7*
X158158370Y-65430023D03*
X156888367Y-65430023D03*
X155618365Y-65430023D03*
X154348362Y-65430023D03*
X154348362Y-70569977D03*
X155618365Y-70569977D03*
X156888367Y-70569977D03*
X158158370Y-70569977D03*
G04 #@! TD*
M02*
