%TF.GenerationSoftware,KiCad,Pcbnew,9.0.4*%
%TF.CreationDate,2026-05-02T09:58:58+02:00*%
%TF.ProjectId,Zusatzplatine,5a757361-747a-4706-9c61-74696e652e6b,rev?*%
%TF.SameCoordinates,Original*%
%TF.FileFunction,Drillmap*%
%TF.FilePolarity,Positive*%
%FSLAX45Y45*%
G04 Gerber Fmt 4.5, Leading zero omitted, Abs format (unit mm)*
G04 Created by KiCad (PCBNEW 9.0.4) date 2026-05-02 09:58:58*
%MOMM*%
%LPD*%
G01*
G04 APERTURE LIST*
%ADD10C,0.100000*%
%ADD11C,0.200000*%
G04 APERTURE END LIST*
D10*
X12827000Y-6096000D02*
X12827000Y-11938000D01*
X18050000Y-12200000D02*
X18050000Y-11938000D01*
X18050000Y-12200000D02*
X21500000Y-12200000D01*
X21500000Y-11950000D02*
X21500000Y-6100000D01*
X12827000Y-11938000D02*
X14986000Y-11938000D01*
X21500000Y-11950000D02*
X21500000Y-12200000D01*
X14986000Y-11938000D02*
X18050000Y-11938000D01*
X12827000Y-6096000D02*
X21500000Y-6100000D01*
D11*
X13082777Y-12516484D02*
X13082777Y-12316484D01*
X13082777Y-12316484D02*
X13130396Y-12316484D01*
X13130396Y-12316484D02*
X13158967Y-12326008D01*
X13158967Y-12326008D02*
X13178015Y-12345055D01*
X13178015Y-12345055D02*
X13187539Y-12364103D01*
X13187539Y-12364103D02*
X13197062Y-12402198D01*
X13197062Y-12402198D02*
X13197062Y-12430769D01*
X13197062Y-12430769D02*
X13187539Y-12468865D01*
X13187539Y-12468865D02*
X13178015Y-12487912D01*
X13178015Y-12487912D02*
X13158967Y-12506960D01*
X13158967Y-12506960D02*
X13130396Y-12516484D01*
X13130396Y-12516484D02*
X13082777Y-12516484D01*
X13282777Y-12516484D02*
X13282777Y-12383150D01*
X13282777Y-12421246D02*
X13292301Y-12402198D01*
X13292301Y-12402198D02*
X13301824Y-12392674D01*
X13301824Y-12392674D02*
X13320872Y-12383150D01*
X13320872Y-12383150D02*
X13339920Y-12383150D01*
X13406586Y-12516484D02*
X13406586Y-12383150D01*
X13406586Y-12316484D02*
X13397062Y-12326008D01*
X13397062Y-12326008D02*
X13406586Y-12335531D01*
X13406586Y-12335531D02*
X13416110Y-12326008D01*
X13416110Y-12326008D02*
X13406586Y-12316484D01*
X13406586Y-12316484D02*
X13406586Y-12335531D01*
X13530396Y-12516484D02*
X13511348Y-12506960D01*
X13511348Y-12506960D02*
X13501824Y-12487912D01*
X13501824Y-12487912D02*
X13501824Y-12316484D01*
X13635158Y-12516484D02*
X13616110Y-12506960D01*
X13616110Y-12506960D02*
X13606586Y-12487912D01*
X13606586Y-12487912D02*
X13606586Y-12316484D01*
X13863729Y-12516484D02*
X13863729Y-12316484D01*
X13863729Y-12316484D02*
X13930396Y-12459341D01*
X13930396Y-12459341D02*
X13997062Y-12316484D01*
X13997062Y-12316484D02*
X13997062Y-12516484D01*
X14178015Y-12516484D02*
X14178015Y-12411722D01*
X14178015Y-12411722D02*
X14168491Y-12392674D01*
X14168491Y-12392674D02*
X14149443Y-12383150D01*
X14149443Y-12383150D02*
X14111348Y-12383150D01*
X14111348Y-12383150D02*
X14092301Y-12392674D01*
X14178015Y-12506960D02*
X14158967Y-12516484D01*
X14158967Y-12516484D02*
X14111348Y-12516484D01*
X14111348Y-12516484D02*
X14092301Y-12506960D01*
X14092301Y-12506960D02*
X14082777Y-12487912D01*
X14082777Y-12487912D02*
X14082777Y-12468865D01*
X14082777Y-12468865D02*
X14092301Y-12449817D01*
X14092301Y-12449817D02*
X14111348Y-12440293D01*
X14111348Y-12440293D02*
X14158967Y-12440293D01*
X14158967Y-12440293D02*
X14178015Y-12430769D01*
X14273253Y-12383150D02*
X14273253Y-12583150D01*
X14273253Y-12392674D02*
X14292301Y-12383150D01*
X14292301Y-12383150D02*
X14330396Y-12383150D01*
X14330396Y-12383150D02*
X14349443Y-12392674D01*
X14349443Y-12392674D02*
X14358967Y-12402198D01*
X14358967Y-12402198D02*
X14368491Y-12421246D01*
X14368491Y-12421246D02*
X14368491Y-12478388D01*
X14368491Y-12478388D02*
X14358967Y-12497436D01*
X14358967Y-12497436D02*
X14349443Y-12506960D01*
X14349443Y-12506960D02*
X14330396Y-12516484D01*
X14330396Y-12516484D02*
X14292301Y-12516484D01*
X14292301Y-12516484D02*
X14273253Y-12506960D01*
X14454205Y-12497436D02*
X14463729Y-12506960D01*
X14463729Y-12506960D02*
X14454205Y-12516484D01*
X14454205Y-12516484D02*
X14444682Y-12506960D01*
X14444682Y-12506960D02*
X14454205Y-12497436D01*
X14454205Y-12497436D02*
X14454205Y-12516484D01*
X14454205Y-12392674D02*
X14463729Y-12402198D01*
X14463729Y-12402198D02*
X14454205Y-12411722D01*
X14454205Y-12411722D02*
X14444682Y-12402198D01*
X14444682Y-12402198D02*
X14454205Y-12392674D01*
X14454205Y-12392674D02*
X14454205Y-12411722D01*
M02*
