%FSLAX45Y45*%
G04 Gerber Fmt 4.5, Leading zero omitted, Abs format (unit mm)*
G04 Created by KiCad (PCBNEW (6.0.0)) date 2023-05-14 10:20:07*
%MOMM*%
%LPD*%
G01*
G04 APERTURE LIST*
%TA.AperFunction,Profile*%
%ADD10C,0.100000*%
%TD*%
%ADD11C,0.200000*%
%ADD12C,0.040000*%
%ADD13C,0.076200*%
%ADD14C,0.100000*%
G04 APERTURE END LIST*
D10*
X12827000Y-6096000D02*
X12827000Y-10414000D01*
X12827000Y-10414000D02*
X14732000Y-10414000D01*
X19050000Y-12192000D02*
X19050000Y-11938000D01*
X19050000Y-12192000D02*
X20320000Y-12192000D01*
X14732000Y-10414000D02*
X14732000Y-11938000D01*
X20447000Y-11938000D02*
X20447000Y-6096000D01*
X14732000Y-11938000D02*
X14986000Y-11938000D01*
X20447000Y-11938000D02*
X20447000Y-12192000D01*
X14986000Y-11938000D02*
X19050000Y-11938000D01*
X20320000Y-12192000D02*
X20447000Y-12192000D01*
X12827000Y-6096000D02*
X20447000Y-6096000D01*
D11*
D12*
X12997500Y-8552500D02*
X13037500Y-8592500D01*
X13037500Y-8552500D02*
X12997500Y-8592500D01*
X12997500Y-9060500D02*
X13037500Y-9100500D01*
X13037500Y-9060500D02*
X12997500Y-9100500D01*
X13116880Y-7775260D02*
X13156880Y-7815260D01*
X13156880Y-7775260D02*
X13116880Y-7815260D01*
X13188000Y-9060500D02*
X13228000Y-9100500D01*
X13228000Y-9060500D02*
X13188000Y-9100500D01*
X13334550Y-9403400D02*
X13374550Y-9443400D01*
X13374550Y-9403400D02*
X13334550Y-9443400D01*
X13569000Y-9378000D02*
X13609000Y-9418000D01*
X13609000Y-9378000D02*
X13569000Y-9418000D01*
X13569000Y-9505000D02*
X13609000Y-9545000D01*
X13609000Y-9505000D02*
X13569000Y-9545000D01*
X13823000Y-9505000D02*
X13863000Y-9545000D01*
X13863000Y-9505000D02*
X13823000Y-9545000D01*
X14267500Y-8552500D02*
X14307500Y-8592500D01*
X14307500Y-8552500D02*
X14267500Y-8592500D01*
X14267500Y-9124000D02*
X14307500Y-9164000D01*
X14307500Y-9124000D02*
X14267500Y-9164000D01*
X14386880Y-7775260D02*
X14426880Y-7815260D01*
X14426880Y-7775260D02*
X14386880Y-7815260D01*
X14458000Y-9060500D02*
X14498000Y-9100500D01*
X14498000Y-9060500D02*
X14458000Y-9100500D01*
X14458000Y-9296720D02*
X14498000Y-9336720D01*
X14498000Y-9296720D02*
X14458000Y-9336720D01*
X14839000Y-9378000D02*
X14879000Y-9418000D01*
X14879000Y-9378000D02*
X14839000Y-9418000D01*
X14839000Y-9559550D02*
X14879000Y-9599550D01*
X14879000Y-9559550D02*
X14839000Y-9599550D01*
X15093000Y-9505000D02*
X15133000Y-9545000D01*
X15133000Y-9505000D02*
X15093000Y-9545000D01*
X15474000Y-11460800D02*
X15514000Y-11500800D01*
X15514000Y-11460800D02*
X15474000Y-11500800D01*
X15537500Y-8552500D02*
X15577500Y-8592500D01*
X15577500Y-8552500D02*
X15537500Y-8592500D01*
X15537500Y-9124000D02*
X15577500Y-9164000D01*
X15577500Y-9124000D02*
X15537500Y-9164000D01*
X15593380Y-7775260D02*
X15633380Y-7815260D01*
X15633380Y-7775260D02*
X15593380Y-7815260D01*
X15689900Y-11612561D02*
X15729900Y-11652561D01*
X15729900Y-11612561D02*
X15689900Y-11652561D01*
X15728000Y-9060500D02*
X15768000Y-9100500D01*
X15768000Y-9060500D02*
X15728000Y-9100500D01*
X15791500Y-9441500D02*
X15831500Y-9481500D01*
X15831500Y-9441500D02*
X15791500Y-9481500D01*
X16109000Y-9393240D02*
X16149000Y-9433240D01*
X16149000Y-9393240D02*
X16109000Y-9433240D01*
X16109000Y-9559550D02*
X16149000Y-9599550D01*
X16149000Y-9559550D02*
X16109000Y-9599550D01*
X16118390Y-11676061D02*
X16158390Y-11716061D01*
X16158390Y-11676061D02*
X16118390Y-11716061D01*
X16162340Y-11408321D02*
X16202340Y-11448321D01*
X16202340Y-11408321D02*
X16162340Y-11448321D01*
X16363000Y-9505000D02*
X16403000Y-9545000D01*
X16403000Y-9505000D02*
X16363000Y-9545000D01*
X16426500Y-10901361D02*
X16466500Y-10941361D01*
X16466500Y-10901361D02*
X16426500Y-10941361D01*
X16451900Y-11536361D02*
X16491900Y-11576361D01*
X16491900Y-11536361D02*
X16451900Y-11576361D01*
X16733840Y-10424480D02*
X16773840Y-10464480D01*
X16773840Y-10424480D02*
X16733840Y-10464480D01*
X16807500Y-8552500D02*
X16847500Y-8592500D01*
X16847500Y-8552500D02*
X16807500Y-8592500D01*
X16807500Y-9124000D02*
X16847500Y-9164000D01*
X16847500Y-9124000D02*
X16807500Y-9164000D01*
X16871000Y-7790500D02*
X16911000Y-7830500D01*
X16911000Y-7790500D02*
X16871000Y-7830500D01*
X16998000Y-9060500D02*
X17038000Y-9100500D01*
X17038000Y-9060500D02*
X16998000Y-9100500D01*
X17061500Y-9441500D02*
X17101500Y-9481500D01*
X17101500Y-9441500D02*
X17061500Y-9481500D01*
X17197450Y-10203500D02*
X17237450Y-10243500D01*
X17237450Y-10203500D02*
X17197450Y-10243500D01*
X17379000Y-9378000D02*
X17419000Y-9418000D01*
X17419000Y-9378000D02*
X17379000Y-9418000D01*
X17379000Y-9559550D02*
X17419000Y-9599550D01*
X17419000Y-9559550D02*
X17379000Y-9599550D01*
X17556800Y-11613200D02*
X17596800Y-11653200D01*
X17596800Y-11613200D02*
X17556800Y-11653200D01*
X17633000Y-9505000D02*
X17673000Y-9545000D01*
X17673000Y-9505000D02*
X17633000Y-9545000D01*
X17754920Y-10759760D02*
X17794920Y-10799760D01*
X17794920Y-10759760D02*
X17754920Y-10799760D01*
X19182400Y-8796902D02*
X19222400Y-8836902D01*
X19222400Y-8796902D02*
X19182400Y-8836902D01*
X19284000Y-8793800D02*
X19324000Y-8833800D01*
X19324000Y-8793800D02*
X19284000Y-8833800D01*
X19334800Y-8362000D02*
X19374800Y-8402000D01*
X19374800Y-8362000D02*
X19334800Y-8402000D01*
X19334800Y-8476300D02*
X19374800Y-8516300D01*
X19374800Y-8476300D02*
X19334800Y-8516300D01*
D13*
X15278100Y-9906000D02*
G75*
G03*
X15278100Y-9906000I-38100J0D01*
G01*
X15532100Y-9652000D02*
G75*
G03*
X15532100Y-9652000I-38100J0D01*
G01*
X15786100Y-9906000D02*
G75*
G03*
X15786100Y-9906000I-38100J0D01*
G01*
D14*
X13081000Y-9576600D02*
X13081000Y-9676600D01*
X13031000Y-9626600D02*
X13131000Y-9626600D01*
X13081000Y-10122700D02*
X13081000Y-10222700D01*
X13031000Y-10172700D02*
X13131000Y-10172700D01*
X13271500Y-6300000D02*
X13271500Y-6400000D01*
X13221500Y-6350000D02*
X13321500Y-6350000D01*
X13271500Y-6554000D02*
X13271500Y-6654000D01*
X13221500Y-6604000D02*
X13321500Y-6604000D01*
X13271500Y-6808000D02*
X13271500Y-6908000D01*
X13221500Y-6858000D02*
X13321500Y-6858000D01*
X13271500Y-7062000D02*
X13271500Y-7162000D01*
X13221500Y-7112000D02*
X13321500Y-7112000D01*
X13271500Y-7316000D02*
X13271500Y-7416000D01*
X13221500Y-7366000D02*
X13321500Y-7366000D01*
X14033500Y-6300000D02*
X14033500Y-6400000D01*
X13983500Y-6350000D02*
X14083500Y-6350000D01*
X14033500Y-6554000D02*
X14033500Y-6654000D01*
X13983500Y-6604000D02*
X14083500Y-6604000D01*
X14033500Y-6808000D02*
X14033500Y-6908000D01*
X13983500Y-6858000D02*
X14083500Y-6858000D01*
X14033500Y-7062000D02*
X14033500Y-7162000D01*
X13983500Y-7112000D02*
X14083500Y-7112000D01*
X14033500Y-7316000D02*
X14033500Y-7416000D01*
X13983500Y-7366000D02*
X14083500Y-7366000D01*
X14541500Y-6300000D02*
X14541500Y-6400000D01*
X14491500Y-6350000D02*
X14591500Y-6350000D01*
X14541500Y-6554000D02*
X14541500Y-6654000D01*
X14491500Y-6604000D02*
X14591500Y-6604000D01*
X14541500Y-6808000D02*
X14541500Y-6908000D01*
X14491500Y-6858000D02*
X14591500Y-6858000D01*
X14541500Y-7062000D02*
X14541500Y-7162000D01*
X14491500Y-7112000D02*
X14591500Y-7112000D01*
X14541500Y-7316000D02*
X14541500Y-7416000D01*
X14491500Y-7366000D02*
X14591500Y-7366000D01*
X14986000Y-10618000D02*
X14986000Y-10718000D01*
X14936000Y-10668000D02*
X15036000Y-10668000D01*
X14986000Y-10872000D02*
X14986000Y-10972000D01*
X14936000Y-10922000D02*
X15036000Y-10922000D01*
X14986000Y-11126000D02*
X14986000Y-11226000D01*
X14936000Y-11176000D02*
X15036000Y-11176000D01*
X14986000Y-11380000D02*
X14986000Y-11480000D01*
X14936000Y-11430000D02*
X15036000Y-11430000D01*
X14986000Y-11634000D02*
X14986000Y-11734000D01*
X14936000Y-11684000D02*
X15036000Y-11684000D01*
X15240000Y-10618000D02*
X15240000Y-10718000D01*
X15190000Y-10668000D02*
X15290000Y-10668000D01*
X15240000Y-10872000D02*
X15240000Y-10972000D01*
X15190000Y-10922000D02*
X15290000Y-10922000D01*
X15240000Y-11126000D02*
X15240000Y-11226000D01*
X15190000Y-11176000D02*
X15290000Y-11176000D01*
X15240000Y-11380000D02*
X15240000Y-11480000D01*
X15190000Y-11430000D02*
X15290000Y-11430000D01*
X15240000Y-11634000D02*
X15240000Y-11734000D01*
X15190000Y-11684000D02*
X15290000Y-11684000D01*
X15303500Y-6300000D02*
X15303500Y-6400000D01*
X15253500Y-6350000D02*
X15353500Y-6350000D01*
X15303500Y-6554000D02*
X15303500Y-6654000D01*
X15253500Y-6604000D02*
X15353500Y-6604000D01*
X15303500Y-6808000D02*
X15303500Y-6908000D01*
X15253500Y-6858000D02*
X15353500Y-6858000D01*
X15303500Y-7062000D02*
X15303500Y-7162000D01*
X15253500Y-7112000D02*
X15353500Y-7112000D01*
X15303500Y-7316000D02*
X15303500Y-7416000D01*
X15253500Y-7366000D02*
X15353500Y-7366000D01*
X15811500Y-6300000D02*
X15811500Y-6400000D01*
X15761500Y-6350000D02*
X15861500Y-6350000D01*
X15811500Y-6554000D02*
X15811500Y-6654000D01*
X15761500Y-6604000D02*
X15861500Y-6604000D01*
X15811500Y-6808000D02*
X15811500Y-6908000D01*
X15761500Y-6858000D02*
X15861500Y-6858000D01*
X15811500Y-7062000D02*
X15811500Y-7162000D01*
X15761500Y-7112000D02*
X15861500Y-7112000D01*
X15811500Y-7316000D02*
X15811500Y-7416000D01*
X15761500Y-7366000D02*
X15861500Y-7366000D01*
X16573500Y-6300000D02*
X16573500Y-6400000D01*
X16523500Y-6350000D02*
X16623500Y-6350000D01*
X16573500Y-6554000D02*
X16573500Y-6654000D01*
X16523500Y-6604000D02*
X16623500Y-6604000D01*
X16573500Y-6808000D02*
X16573500Y-6908000D01*
X16523500Y-6858000D02*
X16623500Y-6858000D01*
X16573500Y-7062000D02*
X16573500Y-7162000D01*
X16523500Y-7112000D02*
X16623500Y-7112000D01*
X16573500Y-7316000D02*
X16573500Y-7416000D01*
X16523500Y-7366000D02*
X16623500Y-7366000D01*
X16891000Y-10999000D02*
X16891000Y-11099000D01*
X16841000Y-11049000D02*
X16941000Y-11049000D01*
X17081500Y-6300000D02*
X17081500Y-6400000D01*
X17031500Y-6350000D02*
X17131500Y-6350000D01*
X17081500Y-6554000D02*
X17081500Y-6654000D01*
X17031500Y-6604000D02*
X17131500Y-6604000D01*
X17081500Y-6808000D02*
X17081500Y-6908000D01*
X17031500Y-6858000D02*
X17131500Y-6858000D01*
X17081500Y-7062000D02*
X17081500Y-7162000D01*
X17031500Y-7112000D02*
X17131500Y-7112000D01*
X17081500Y-7316000D02*
X17081500Y-7416000D01*
X17031500Y-7366000D02*
X17131500Y-7366000D01*
X17145000Y-9792500D02*
X17145000Y-9892500D01*
X17095000Y-9842500D02*
X17195000Y-9842500D01*
X17272000Y-11684800D02*
X17272000Y-11784800D01*
X17222000Y-11734800D02*
X17322000Y-11734800D01*
X17399000Y-10999000D02*
X17399000Y-11099000D01*
X17349000Y-11049000D02*
X17449000Y-11049000D01*
X17843500Y-6300000D02*
X17843500Y-6400000D01*
X17793500Y-6350000D02*
X17893500Y-6350000D01*
X17843500Y-6554000D02*
X17843500Y-6654000D01*
X17793500Y-6604000D02*
X17893500Y-6604000D01*
X17843500Y-6808000D02*
X17843500Y-6908000D01*
X17793500Y-6858000D02*
X17893500Y-6858000D01*
X17843500Y-7062000D02*
X17843500Y-7162000D01*
X17793500Y-7112000D02*
X17893500Y-7112000D01*
X17843500Y-7316000D02*
X17843500Y-7416000D01*
X17793500Y-7366000D02*
X17893500Y-7366000D01*
X19354800Y-6515900D02*
X19354800Y-6615900D01*
X19304800Y-6565900D02*
X19404800Y-6565900D01*
X19558000Y-7062000D02*
X19558000Y-7162000D01*
X19508000Y-7112000D02*
X19608000Y-7112000D01*
X19558000Y-7316000D02*
X19558000Y-7416000D01*
X19508000Y-7366000D02*
X19608000Y-7366000D01*
X19558000Y-7570000D02*
X19558000Y-7670000D01*
X19508000Y-7620000D02*
X19608000Y-7620000D01*
X19558000Y-7824000D02*
X19558000Y-7924000D01*
X19508000Y-7874000D02*
X19608000Y-7874000D01*
X19558000Y-8078000D02*
X19558000Y-8178000D01*
X19508000Y-8128000D02*
X19608000Y-8128000D01*
X19558000Y-8332000D02*
X19558000Y-8432000D01*
X19508000Y-8382000D02*
X19608000Y-8382000D01*
X19558000Y-8586000D02*
X19558000Y-8686000D01*
X19508000Y-8636000D02*
X19608000Y-8636000D01*
X19558000Y-8840000D02*
X19558000Y-8940000D01*
X19508000Y-8890000D02*
X19608000Y-8890000D01*
X19558000Y-9094000D02*
X19558000Y-9194000D01*
X19508000Y-9144000D02*
X19608000Y-9144000D01*
X19558000Y-9348000D02*
X19558000Y-9448000D01*
X19508000Y-9398000D02*
X19608000Y-9398000D01*
X19558000Y-9602000D02*
X19558000Y-9702000D01*
X19508000Y-9652000D02*
X19608000Y-9652000D01*
X19558000Y-9856000D02*
X19558000Y-9956000D01*
X19508000Y-9906000D02*
X19608000Y-9906000D01*
X19558000Y-10110000D02*
X19558000Y-10210000D01*
X19508000Y-10160000D02*
X19608000Y-10160000D01*
X19558000Y-10364000D02*
X19558000Y-10464000D01*
X19508000Y-10414000D02*
X19608000Y-10414000D01*
X19558000Y-10618000D02*
X19558000Y-10718000D01*
X19508000Y-10668000D02*
X19608000Y-10668000D01*
X19558000Y-10872000D02*
X19558000Y-10972000D01*
X19508000Y-10922000D02*
X19608000Y-10922000D01*
X19558000Y-11126000D02*
X19558000Y-11226000D01*
X19508000Y-11176000D02*
X19608000Y-11176000D01*
X19558000Y-11380000D02*
X19558000Y-11480000D01*
X19508000Y-11430000D02*
X19608000Y-11430000D01*
X19558000Y-11634000D02*
X19558000Y-11734000D01*
X19508000Y-11684000D02*
X19608000Y-11684000D01*
X19558000Y-11888000D02*
X19558000Y-11988000D01*
X19508000Y-11938000D02*
X19608000Y-11938000D01*
X19812000Y-7062000D02*
X19812000Y-7162000D01*
X19762000Y-7112000D02*
X19862000Y-7112000D01*
X19812000Y-7316000D02*
X19812000Y-7416000D01*
X19762000Y-7366000D02*
X19862000Y-7366000D01*
X19812000Y-7570000D02*
X19812000Y-7670000D01*
X19762000Y-7620000D02*
X19862000Y-7620000D01*
X19812000Y-7824000D02*
X19812000Y-7924000D01*
X19762000Y-7874000D02*
X19862000Y-7874000D01*
X19812000Y-8078000D02*
X19812000Y-8178000D01*
X19762000Y-8128000D02*
X19862000Y-8128000D01*
X19812000Y-8332000D02*
X19812000Y-8432000D01*
X19762000Y-8382000D02*
X19862000Y-8382000D01*
X19812000Y-8586000D02*
X19812000Y-8686000D01*
X19762000Y-8636000D02*
X19862000Y-8636000D01*
X19812000Y-8840000D02*
X19812000Y-8940000D01*
X19762000Y-8890000D02*
X19862000Y-8890000D01*
X19812000Y-9094000D02*
X19812000Y-9194000D01*
X19762000Y-9144000D02*
X19862000Y-9144000D01*
X19812000Y-9348000D02*
X19812000Y-9448000D01*
X19762000Y-9398000D02*
X19862000Y-9398000D01*
X19812000Y-9602000D02*
X19812000Y-9702000D01*
X19762000Y-9652000D02*
X19862000Y-9652000D01*
X19812000Y-9856000D02*
X19812000Y-9956000D01*
X19762000Y-9906000D02*
X19862000Y-9906000D01*
X19812000Y-10110000D02*
X19812000Y-10210000D01*
X19762000Y-10160000D02*
X19862000Y-10160000D01*
X19812000Y-10364000D02*
X19812000Y-10464000D01*
X19762000Y-10414000D02*
X19862000Y-10414000D01*
X19812000Y-10618000D02*
X19812000Y-10718000D01*
X19762000Y-10668000D02*
X19862000Y-10668000D01*
X19812000Y-10872000D02*
X19812000Y-10972000D01*
X19762000Y-10922000D02*
X19862000Y-10922000D01*
X19812000Y-11126000D02*
X19812000Y-11226000D01*
X19762000Y-11176000D02*
X19862000Y-11176000D01*
X19812000Y-11380000D02*
X19812000Y-11480000D01*
X19762000Y-11430000D02*
X19862000Y-11430000D01*
X19812000Y-11634000D02*
X19812000Y-11734000D01*
X19762000Y-11684000D02*
X19862000Y-11684000D01*
X19812000Y-11888000D02*
X19812000Y-11988000D01*
X19762000Y-11938000D02*
X19862000Y-11938000D01*
X19913600Y-6515900D02*
X19913600Y-6615900D01*
X19863600Y-6565900D02*
X19963600Y-6565900D01*
D11*
X13079619Y-12507476D02*
X13079619Y-12307476D01*
X13127238Y-12307476D01*
X13155809Y-12317000D01*
X13174857Y-12336048D01*
X13184381Y-12355095D01*
X13193905Y-12393190D01*
X13193905Y-12421762D01*
X13184381Y-12459857D01*
X13174857Y-12478905D01*
X13155809Y-12497952D01*
X13127238Y-12507476D01*
X13079619Y-12507476D01*
X13279619Y-12507476D02*
X13279619Y-12374143D01*
X13279619Y-12412238D02*
X13289143Y-12393190D01*
X13298667Y-12383667D01*
X13317714Y-12374143D01*
X13336762Y-12374143D01*
X13403428Y-12507476D02*
X13403428Y-12374143D01*
X13403428Y-12307476D02*
X13393905Y-12317000D01*
X13403428Y-12326524D01*
X13412952Y-12317000D01*
X13403428Y-12307476D01*
X13403428Y-12326524D01*
X13527238Y-12507476D02*
X13508190Y-12497952D01*
X13498667Y-12478905D01*
X13498667Y-12307476D01*
X13632000Y-12507476D02*
X13612952Y-12497952D01*
X13603428Y-12478905D01*
X13603428Y-12307476D01*
X13860571Y-12507476D02*
X13860571Y-12307476D01*
X13927238Y-12450333D01*
X13993905Y-12307476D01*
X13993905Y-12507476D01*
X14174857Y-12507476D02*
X14174857Y-12402714D01*
X14165333Y-12383667D01*
X14146286Y-12374143D01*
X14108190Y-12374143D01*
X14089143Y-12383667D01*
X14174857Y-12497952D02*
X14155809Y-12507476D01*
X14108190Y-12507476D01*
X14089143Y-12497952D01*
X14079619Y-12478905D01*
X14079619Y-12459857D01*
X14089143Y-12440809D01*
X14108190Y-12431286D01*
X14155809Y-12431286D01*
X14174857Y-12421762D01*
X14270095Y-12374143D02*
X14270095Y-12574143D01*
X14270095Y-12383667D02*
X14289143Y-12374143D01*
X14327238Y-12374143D01*
X14346286Y-12383667D01*
X14355809Y-12393190D01*
X14365333Y-12412238D01*
X14365333Y-12469381D01*
X14355809Y-12488428D01*
X14346286Y-12497952D01*
X14327238Y-12507476D01*
X14289143Y-12507476D01*
X14270095Y-12497952D01*
X14451048Y-12488428D02*
X14460571Y-12497952D01*
X14451048Y-12507476D01*
X14441524Y-12497952D01*
X14451048Y-12488428D01*
X14451048Y-12507476D01*
X14451048Y-12383667D02*
X14460571Y-12393190D01*
X14451048Y-12402714D01*
X14441524Y-12393190D01*
X14451048Y-12383667D01*
X14451048Y-12402714D01*
D12*
X12782000Y-12817000D02*
X12822000Y-12857000D01*
X12822000Y-12817000D02*
X12782000Y-12857000D01*
D11*
X13117714Y-12727476D02*
X13136762Y-12727476D01*
X13155809Y-12737000D01*
X13165333Y-12746524D01*
X13174857Y-12765571D01*
X13184381Y-12803667D01*
X13184381Y-12851286D01*
X13174857Y-12889381D01*
X13165333Y-12908428D01*
X13155809Y-12917952D01*
X13136762Y-12927476D01*
X13117714Y-12927476D01*
X13098667Y-12917952D01*
X13089143Y-12908428D01*
X13079619Y-12889381D01*
X13070095Y-12851286D01*
X13070095Y-12803667D01*
X13079619Y-12765571D01*
X13089143Y-12746524D01*
X13098667Y-12737000D01*
X13117714Y-12727476D01*
X13270095Y-12908428D02*
X13279619Y-12917952D01*
X13270095Y-12927476D01*
X13260571Y-12917952D01*
X13270095Y-12908428D01*
X13270095Y-12927476D01*
X13451048Y-12794143D02*
X13451048Y-12927476D01*
X13403428Y-12717952D02*
X13355809Y-12860809D01*
X13479619Y-12860809D01*
X13593905Y-12727476D02*
X13612952Y-12727476D01*
X13632000Y-12737000D01*
X13641524Y-12746524D01*
X13651048Y-12765571D01*
X13660571Y-12803667D01*
X13660571Y-12851286D01*
X13651048Y-12889381D01*
X13641524Y-12908428D01*
X13632000Y-12917952D01*
X13612952Y-12927476D01*
X13593905Y-12927476D01*
X13574857Y-12917952D01*
X13565333Y-12908428D01*
X13555809Y-12889381D01*
X13546286Y-12851286D01*
X13546286Y-12803667D01*
X13555809Y-12765571D01*
X13565333Y-12746524D01*
X13574857Y-12737000D01*
X13593905Y-12727476D01*
X13784381Y-12727476D02*
X13803428Y-12727476D01*
X13822476Y-12737000D01*
X13832000Y-12746524D01*
X13841524Y-12765571D01*
X13851048Y-12803667D01*
X13851048Y-12851286D01*
X13841524Y-12889381D01*
X13832000Y-12908428D01*
X13822476Y-12917952D01*
X13803428Y-12927476D01*
X13784381Y-12927476D01*
X13765333Y-12917952D01*
X13755809Y-12908428D01*
X13746286Y-12889381D01*
X13736762Y-12851286D01*
X13736762Y-12803667D01*
X13746286Y-12765571D01*
X13755809Y-12746524D01*
X13765333Y-12737000D01*
X13784381Y-12727476D01*
X13936762Y-12927476D02*
X13936762Y-12794143D01*
X13936762Y-12813190D02*
X13946286Y-12803667D01*
X13965333Y-12794143D01*
X13993905Y-12794143D01*
X14012952Y-12803667D01*
X14022476Y-12822714D01*
X14022476Y-12927476D01*
X14022476Y-12822714D02*
X14032000Y-12803667D01*
X14051048Y-12794143D01*
X14079619Y-12794143D01*
X14098667Y-12803667D01*
X14108190Y-12822714D01*
X14108190Y-12927476D01*
X14203428Y-12927476D02*
X14203428Y-12794143D01*
X14203428Y-12813190D02*
X14212952Y-12803667D01*
X14232000Y-12794143D01*
X14260571Y-12794143D01*
X14279619Y-12803667D01*
X14289143Y-12822714D01*
X14289143Y-12927476D01*
X14289143Y-12822714D02*
X14298667Y-12803667D01*
X14317714Y-12794143D01*
X14346286Y-12794143D01*
X14365333Y-12803667D01*
X14374857Y-12822714D01*
X14374857Y-12927476D01*
X14765333Y-12717952D02*
X14593905Y-12975095D01*
X15022476Y-12727476D02*
X15041524Y-12727476D01*
X15060571Y-12737000D01*
X15070095Y-12746524D01*
X15079619Y-12765571D01*
X15089143Y-12803667D01*
X15089143Y-12851286D01*
X15079619Y-12889381D01*
X15070095Y-12908428D01*
X15060571Y-12917952D01*
X15041524Y-12927476D01*
X15022476Y-12927476D01*
X15003428Y-12917952D01*
X14993905Y-12908428D01*
X14984381Y-12889381D01*
X14974857Y-12851286D01*
X14974857Y-12803667D01*
X14984381Y-12765571D01*
X14993905Y-12746524D01*
X15003428Y-12737000D01*
X15022476Y-12727476D01*
X15174857Y-12908428D02*
X15184381Y-12917952D01*
X15174857Y-12927476D01*
X15165333Y-12917952D01*
X15174857Y-12908428D01*
X15174857Y-12927476D01*
X15308190Y-12727476D02*
X15327238Y-12727476D01*
X15346286Y-12737000D01*
X15355809Y-12746524D01*
X15365333Y-12765571D01*
X15374857Y-12803667D01*
X15374857Y-12851286D01*
X15365333Y-12889381D01*
X15355809Y-12908428D01*
X15346286Y-12917952D01*
X15327238Y-12927476D01*
X15308190Y-12927476D01*
X15289143Y-12917952D01*
X15279619Y-12908428D01*
X15270095Y-12889381D01*
X15260571Y-12851286D01*
X15260571Y-12803667D01*
X15270095Y-12765571D01*
X15279619Y-12746524D01*
X15289143Y-12737000D01*
X15308190Y-12727476D01*
X15565333Y-12927476D02*
X15451048Y-12927476D01*
X15508190Y-12927476D02*
X15508190Y-12727476D01*
X15489143Y-12756048D01*
X15470095Y-12775095D01*
X15451048Y-12784619D01*
X15746286Y-12727476D02*
X15651048Y-12727476D01*
X15641524Y-12822714D01*
X15651048Y-12813190D01*
X15670095Y-12803667D01*
X15717714Y-12803667D01*
X15736762Y-12813190D01*
X15746286Y-12822714D01*
X15755809Y-12841762D01*
X15755809Y-12889381D01*
X15746286Y-12908428D01*
X15736762Y-12917952D01*
X15717714Y-12927476D01*
X15670095Y-12927476D01*
X15651048Y-12917952D01*
X15641524Y-12908428D01*
X15822476Y-12727476D02*
X15955809Y-12727476D01*
X15870095Y-12927476D01*
X16022476Y-12727476D02*
X16022476Y-12765571D01*
X16098667Y-12727476D02*
X16098667Y-12765571D01*
X16393905Y-13003667D02*
X16384381Y-12994143D01*
X16365333Y-12965571D01*
X16355809Y-12946524D01*
X16346286Y-12917952D01*
X16336762Y-12870333D01*
X16336762Y-12832238D01*
X16346286Y-12784619D01*
X16355809Y-12756048D01*
X16365333Y-12737000D01*
X16384381Y-12708428D01*
X16393905Y-12698905D01*
X16555809Y-12794143D02*
X16555809Y-12927476D01*
X16508190Y-12717952D02*
X16460571Y-12860809D01*
X16584381Y-12860809D01*
X16746286Y-12727476D02*
X16708190Y-12727476D01*
X16689143Y-12737000D01*
X16679619Y-12746524D01*
X16660571Y-12775095D01*
X16651048Y-12813190D01*
X16651048Y-12889381D01*
X16660571Y-12908428D01*
X16670095Y-12917952D01*
X16689143Y-12927476D01*
X16727238Y-12927476D01*
X16746286Y-12917952D01*
X16755809Y-12908428D01*
X16765333Y-12889381D01*
X16765333Y-12841762D01*
X16755809Y-12822714D01*
X16746286Y-12813190D01*
X16727238Y-12803667D01*
X16689143Y-12803667D01*
X16670095Y-12813190D01*
X16660571Y-12822714D01*
X16651048Y-12841762D01*
X17003429Y-12927476D02*
X17003429Y-12727476D01*
X17089143Y-12927476D02*
X17089143Y-12822714D01*
X17079619Y-12803667D01*
X17060571Y-12794143D01*
X17032000Y-12794143D01*
X17012952Y-12803667D01*
X17003429Y-12813190D01*
X17212952Y-12927476D02*
X17193905Y-12917952D01*
X17184381Y-12908428D01*
X17174857Y-12889381D01*
X17174857Y-12832238D01*
X17184381Y-12813190D01*
X17193905Y-12803667D01*
X17212952Y-12794143D01*
X17241524Y-12794143D01*
X17260571Y-12803667D01*
X17270095Y-12813190D01*
X17279619Y-12832238D01*
X17279619Y-12889381D01*
X17270095Y-12908428D01*
X17260571Y-12917952D01*
X17241524Y-12927476D01*
X17212952Y-12927476D01*
X17393905Y-12927476D02*
X17374857Y-12917952D01*
X17365333Y-12898905D01*
X17365333Y-12727476D01*
X17546286Y-12917952D02*
X17527238Y-12927476D01*
X17489143Y-12927476D01*
X17470095Y-12917952D01*
X17460571Y-12898905D01*
X17460571Y-12822714D01*
X17470095Y-12803667D01*
X17489143Y-12794143D01*
X17527238Y-12794143D01*
X17546286Y-12803667D01*
X17555810Y-12822714D01*
X17555810Y-12841762D01*
X17460571Y-12860809D01*
X17632000Y-12917952D02*
X17651048Y-12927476D01*
X17689143Y-12927476D01*
X17708190Y-12917952D01*
X17717714Y-12898905D01*
X17717714Y-12889381D01*
X17708190Y-12870333D01*
X17689143Y-12860809D01*
X17660571Y-12860809D01*
X17641524Y-12851286D01*
X17632000Y-12832238D01*
X17632000Y-12822714D01*
X17641524Y-12803667D01*
X17660571Y-12794143D01*
X17689143Y-12794143D01*
X17708190Y-12803667D01*
X17784381Y-13003667D02*
X17793905Y-12994143D01*
X17812952Y-12965571D01*
X17822476Y-12946524D01*
X17832000Y-12917952D01*
X17841524Y-12870333D01*
X17841524Y-12832238D01*
X17832000Y-12784619D01*
X17822476Y-12756048D01*
X17812952Y-12737000D01*
X17793905Y-12708428D01*
X17784381Y-12698905D01*
D13*
X12822000Y-13101000D02*
G75*
G03*
X12822000Y-13101000I-38100J0D01*
G01*
D11*
X13117714Y-12991476D02*
X13136762Y-12991476D01*
X13155809Y-13001000D01*
X13165333Y-13010524D01*
X13174857Y-13029571D01*
X13184381Y-13067667D01*
X13184381Y-13115286D01*
X13174857Y-13153381D01*
X13165333Y-13172428D01*
X13155809Y-13181952D01*
X13136762Y-13191476D01*
X13117714Y-13191476D01*
X13098667Y-13181952D01*
X13089143Y-13172428D01*
X13079619Y-13153381D01*
X13070095Y-13115286D01*
X13070095Y-13067667D01*
X13079619Y-13029571D01*
X13089143Y-13010524D01*
X13098667Y-13001000D01*
X13117714Y-12991476D01*
X13270095Y-13172428D02*
X13279619Y-13181952D01*
X13270095Y-13191476D01*
X13260571Y-13181952D01*
X13270095Y-13172428D01*
X13270095Y-13191476D01*
X13346286Y-12991476D02*
X13479619Y-12991476D01*
X13393905Y-13191476D01*
X13641524Y-12991476D02*
X13603428Y-12991476D01*
X13584381Y-13001000D01*
X13574857Y-13010524D01*
X13555809Y-13039095D01*
X13546286Y-13077190D01*
X13546286Y-13153381D01*
X13555809Y-13172428D01*
X13565333Y-13181952D01*
X13584381Y-13191476D01*
X13622476Y-13191476D01*
X13641524Y-13181952D01*
X13651048Y-13172428D01*
X13660571Y-13153381D01*
X13660571Y-13105762D01*
X13651048Y-13086714D01*
X13641524Y-13077190D01*
X13622476Y-13067667D01*
X13584381Y-13067667D01*
X13565333Y-13077190D01*
X13555809Y-13086714D01*
X13546286Y-13105762D01*
X13736762Y-13010524D02*
X13746286Y-13001000D01*
X13765333Y-12991476D01*
X13812952Y-12991476D01*
X13832000Y-13001000D01*
X13841524Y-13010524D01*
X13851048Y-13029571D01*
X13851048Y-13048619D01*
X13841524Y-13077190D01*
X13727238Y-13191476D01*
X13851048Y-13191476D01*
X13936762Y-13191476D02*
X13936762Y-13058143D01*
X13936762Y-13077190D02*
X13946286Y-13067667D01*
X13965333Y-13058143D01*
X13993905Y-13058143D01*
X14012952Y-13067667D01*
X14022476Y-13086714D01*
X14022476Y-13191476D01*
X14022476Y-13086714D02*
X14032000Y-13067667D01*
X14051048Y-13058143D01*
X14079619Y-13058143D01*
X14098667Y-13067667D01*
X14108190Y-13086714D01*
X14108190Y-13191476D01*
X14203428Y-13191476D02*
X14203428Y-13058143D01*
X14203428Y-13077190D02*
X14212952Y-13067667D01*
X14232000Y-13058143D01*
X14260571Y-13058143D01*
X14279619Y-13067667D01*
X14289143Y-13086714D01*
X14289143Y-13191476D01*
X14289143Y-13086714D02*
X14298667Y-13067667D01*
X14317714Y-13058143D01*
X14346286Y-13058143D01*
X14365333Y-13067667D01*
X14374857Y-13086714D01*
X14374857Y-13191476D01*
X14765333Y-12981952D02*
X14593905Y-13239095D01*
X15022476Y-12991476D02*
X15041524Y-12991476D01*
X15060571Y-13001000D01*
X15070095Y-13010524D01*
X15079619Y-13029571D01*
X15089143Y-13067667D01*
X15089143Y-13115286D01*
X15079619Y-13153381D01*
X15070095Y-13172428D01*
X15060571Y-13181952D01*
X15041524Y-13191476D01*
X15022476Y-13191476D01*
X15003428Y-13181952D01*
X14993905Y-13172428D01*
X14984381Y-13153381D01*
X14974857Y-13115286D01*
X14974857Y-13067667D01*
X14984381Y-13029571D01*
X14993905Y-13010524D01*
X15003428Y-13001000D01*
X15022476Y-12991476D01*
X15174857Y-13172428D02*
X15184381Y-13181952D01*
X15174857Y-13191476D01*
X15165333Y-13181952D01*
X15174857Y-13172428D01*
X15174857Y-13191476D01*
X15308190Y-12991476D02*
X15327238Y-12991476D01*
X15346286Y-13001000D01*
X15355809Y-13010524D01*
X15365333Y-13029571D01*
X15374857Y-13067667D01*
X15374857Y-13115286D01*
X15365333Y-13153381D01*
X15355809Y-13172428D01*
X15346286Y-13181952D01*
X15327238Y-13191476D01*
X15308190Y-13191476D01*
X15289143Y-13181952D01*
X15279619Y-13172428D01*
X15270095Y-13153381D01*
X15260571Y-13115286D01*
X15260571Y-13067667D01*
X15270095Y-13029571D01*
X15279619Y-13010524D01*
X15289143Y-13001000D01*
X15308190Y-12991476D01*
X15441524Y-12991476D02*
X15565333Y-12991476D01*
X15498667Y-13067667D01*
X15527238Y-13067667D01*
X15546286Y-13077190D01*
X15555809Y-13086714D01*
X15565333Y-13105762D01*
X15565333Y-13153381D01*
X15555809Y-13172428D01*
X15546286Y-13181952D01*
X15527238Y-13191476D01*
X15470095Y-13191476D01*
X15451048Y-13181952D01*
X15441524Y-13172428D01*
X15689143Y-12991476D02*
X15708190Y-12991476D01*
X15727238Y-13001000D01*
X15736762Y-13010524D01*
X15746286Y-13029571D01*
X15755809Y-13067667D01*
X15755809Y-13115286D01*
X15746286Y-13153381D01*
X15736762Y-13172428D01*
X15727238Y-13181952D01*
X15708190Y-13191476D01*
X15689143Y-13191476D01*
X15670095Y-13181952D01*
X15660571Y-13172428D01*
X15651048Y-13153381D01*
X15641524Y-13115286D01*
X15641524Y-13067667D01*
X15651048Y-13029571D01*
X15660571Y-13010524D01*
X15670095Y-13001000D01*
X15689143Y-12991476D01*
X15879619Y-12991476D02*
X15898667Y-12991476D01*
X15917714Y-13001000D01*
X15927238Y-13010524D01*
X15936762Y-13029571D01*
X15946286Y-13067667D01*
X15946286Y-13115286D01*
X15936762Y-13153381D01*
X15927238Y-13172428D01*
X15917714Y-13181952D01*
X15898667Y-13191476D01*
X15879619Y-13191476D01*
X15860571Y-13181952D01*
X15851048Y-13172428D01*
X15841524Y-13153381D01*
X15832000Y-13115286D01*
X15832000Y-13067667D01*
X15841524Y-13029571D01*
X15851048Y-13010524D01*
X15860571Y-13001000D01*
X15879619Y-12991476D01*
X16022476Y-12991476D02*
X16022476Y-13029571D01*
X16098667Y-12991476D02*
X16098667Y-13029571D01*
X16393905Y-13267667D02*
X16384381Y-13258143D01*
X16365333Y-13229571D01*
X16355809Y-13210524D01*
X16346286Y-13181952D01*
X16336762Y-13134333D01*
X16336762Y-13096238D01*
X16346286Y-13048619D01*
X16355809Y-13020048D01*
X16365333Y-13001000D01*
X16384381Y-12972428D01*
X16393905Y-12962905D01*
X16451048Y-12991476D02*
X16574857Y-12991476D01*
X16508190Y-13067667D01*
X16536762Y-13067667D01*
X16555809Y-13077190D01*
X16565333Y-13086714D01*
X16574857Y-13105762D01*
X16574857Y-13153381D01*
X16565333Y-13172428D01*
X16555809Y-13181952D01*
X16536762Y-13191476D01*
X16479619Y-13191476D01*
X16460571Y-13181952D01*
X16451048Y-13172428D01*
X16812952Y-13191476D02*
X16812952Y-12991476D01*
X16898667Y-13191476D02*
X16898667Y-13086714D01*
X16889143Y-13067667D01*
X16870095Y-13058143D01*
X16841524Y-13058143D01*
X16822476Y-13067667D01*
X16812952Y-13077190D01*
X17022476Y-13191476D02*
X17003429Y-13181952D01*
X16993905Y-13172428D01*
X16984381Y-13153381D01*
X16984381Y-13096238D01*
X16993905Y-13077190D01*
X17003429Y-13067667D01*
X17022476Y-13058143D01*
X17051048Y-13058143D01*
X17070095Y-13067667D01*
X17079619Y-13077190D01*
X17089143Y-13096238D01*
X17089143Y-13153381D01*
X17079619Y-13172428D01*
X17070095Y-13181952D01*
X17051048Y-13191476D01*
X17022476Y-13191476D01*
X17203429Y-13191476D02*
X17184381Y-13181952D01*
X17174857Y-13162905D01*
X17174857Y-12991476D01*
X17355810Y-13181952D02*
X17336762Y-13191476D01*
X17298667Y-13191476D01*
X17279619Y-13181952D01*
X17270095Y-13162905D01*
X17270095Y-13086714D01*
X17279619Y-13067667D01*
X17298667Y-13058143D01*
X17336762Y-13058143D01*
X17355810Y-13067667D01*
X17365333Y-13086714D01*
X17365333Y-13105762D01*
X17270095Y-13124809D01*
X17441524Y-13181952D02*
X17460571Y-13191476D01*
X17498667Y-13191476D01*
X17517714Y-13181952D01*
X17527238Y-13162905D01*
X17527238Y-13153381D01*
X17517714Y-13134333D01*
X17498667Y-13124809D01*
X17470095Y-13124809D01*
X17451048Y-13115286D01*
X17441524Y-13096238D01*
X17441524Y-13086714D01*
X17451048Y-13067667D01*
X17470095Y-13058143D01*
X17498667Y-13058143D01*
X17517714Y-13067667D01*
X17593905Y-13267667D02*
X17603429Y-13258143D01*
X17622476Y-13229571D01*
X17632000Y-13210524D01*
X17641524Y-13181952D01*
X17651048Y-13134333D01*
X17651048Y-13096238D01*
X17641524Y-13048619D01*
X17632000Y-13020048D01*
X17622476Y-13001000D01*
X17603429Y-12972428D01*
X17593905Y-12962905D01*
D14*
X12772000Y-13315000D02*
X12772000Y-13415000D01*
X12722000Y-13365000D02*
X12822000Y-13365000D01*
D11*
X13184381Y-13455476D02*
X13070095Y-13455476D01*
X13127238Y-13455476D02*
X13127238Y-13255476D01*
X13108190Y-13284048D01*
X13089143Y-13303095D01*
X13070095Y-13312619D01*
X13270095Y-13436428D02*
X13279619Y-13445952D01*
X13270095Y-13455476D01*
X13260571Y-13445952D01*
X13270095Y-13436428D01*
X13270095Y-13455476D01*
X13403428Y-13255476D02*
X13422476Y-13255476D01*
X13441524Y-13265000D01*
X13451048Y-13274524D01*
X13460571Y-13293571D01*
X13470095Y-13331667D01*
X13470095Y-13379286D01*
X13460571Y-13417381D01*
X13451048Y-13436428D01*
X13441524Y-13445952D01*
X13422476Y-13455476D01*
X13403428Y-13455476D01*
X13384381Y-13445952D01*
X13374857Y-13436428D01*
X13365333Y-13417381D01*
X13355809Y-13379286D01*
X13355809Y-13331667D01*
X13365333Y-13293571D01*
X13374857Y-13274524D01*
X13384381Y-13265000D01*
X13403428Y-13255476D01*
X13593905Y-13255476D02*
X13612952Y-13255476D01*
X13632000Y-13265000D01*
X13641524Y-13274524D01*
X13651048Y-13293571D01*
X13660571Y-13331667D01*
X13660571Y-13379286D01*
X13651048Y-13417381D01*
X13641524Y-13436428D01*
X13632000Y-13445952D01*
X13612952Y-13455476D01*
X13593905Y-13455476D01*
X13574857Y-13445952D01*
X13565333Y-13436428D01*
X13555809Y-13417381D01*
X13546286Y-13379286D01*
X13546286Y-13331667D01*
X13555809Y-13293571D01*
X13565333Y-13274524D01*
X13574857Y-13265000D01*
X13593905Y-13255476D01*
X13784381Y-13255476D02*
X13803428Y-13255476D01*
X13822476Y-13265000D01*
X13832000Y-13274524D01*
X13841524Y-13293571D01*
X13851048Y-13331667D01*
X13851048Y-13379286D01*
X13841524Y-13417381D01*
X13832000Y-13436428D01*
X13822476Y-13445952D01*
X13803428Y-13455476D01*
X13784381Y-13455476D01*
X13765333Y-13445952D01*
X13755809Y-13436428D01*
X13746286Y-13417381D01*
X13736762Y-13379286D01*
X13736762Y-13331667D01*
X13746286Y-13293571D01*
X13755809Y-13274524D01*
X13765333Y-13265000D01*
X13784381Y-13255476D01*
X13936762Y-13455476D02*
X13936762Y-13322143D01*
X13936762Y-13341190D02*
X13946286Y-13331667D01*
X13965333Y-13322143D01*
X13993905Y-13322143D01*
X14012952Y-13331667D01*
X14022476Y-13350714D01*
X14022476Y-13455476D01*
X14022476Y-13350714D02*
X14032000Y-13331667D01*
X14051048Y-13322143D01*
X14079619Y-13322143D01*
X14098667Y-13331667D01*
X14108190Y-13350714D01*
X14108190Y-13455476D01*
X14203428Y-13455476D02*
X14203428Y-13322143D01*
X14203428Y-13341190D02*
X14212952Y-13331667D01*
X14232000Y-13322143D01*
X14260571Y-13322143D01*
X14279619Y-13331667D01*
X14289143Y-13350714D01*
X14289143Y-13455476D01*
X14289143Y-13350714D02*
X14298667Y-13331667D01*
X14317714Y-13322143D01*
X14346286Y-13322143D01*
X14365333Y-13331667D01*
X14374857Y-13350714D01*
X14374857Y-13455476D01*
X14765333Y-13245952D02*
X14593905Y-13503095D01*
X15022476Y-13255476D02*
X15041524Y-13255476D01*
X15060571Y-13265000D01*
X15070095Y-13274524D01*
X15079619Y-13293571D01*
X15089143Y-13331667D01*
X15089143Y-13379286D01*
X15079619Y-13417381D01*
X15070095Y-13436428D01*
X15060571Y-13445952D01*
X15041524Y-13455476D01*
X15022476Y-13455476D01*
X15003428Y-13445952D01*
X14993905Y-13436428D01*
X14984381Y-13417381D01*
X14974857Y-13379286D01*
X14974857Y-13331667D01*
X14984381Y-13293571D01*
X14993905Y-13274524D01*
X15003428Y-13265000D01*
X15022476Y-13255476D01*
X15174857Y-13436428D02*
X15184381Y-13445952D01*
X15174857Y-13455476D01*
X15165333Y-13445952D01*
X15174857Y-13436428D01*
X15174857Y-13455476D01*
X15308190Y-13255476D02*
X15327238Y-13255476D01*
X15346286Y-13265000D01*
X15355809Y-13274524D01*
X15365333Y-13293571D01*
X15374857Y-13331667D01*
X15374857Y-13379286D01*
X15365333Y-13417381D01*
X15355809Y-13436428D01*
X15346286Y-13445952D01*
X15327238Y-13455476D01*
X15308190Y-13455476D01*
X15289143Y-13445952D01*
X15279619Y-13436428D01*
X15270095Y-13417381D01*
X15260571Y-13379286D01*
X15260571Y-13331667D01*
X15270095Y-13293571D01*
X15279619Y-13274524D01*
X15289143Y-13265000D01*
X15308190Y-13255476D01*
X15441524Y-13255476D02*
X15565333Y-13255476D01*
X15498667Y-13331667D01*
X15527238Y-13331667D01*
X15546286Y-13341190D01*
X15555809Y-13350714D01*
X15565333Y-13369762D01*
X15565333Y-13417381D01*
X15555809Y-13436428D01*
X15546286Y-13445952D01*
X15527238Y-13455476D01*
X15470095Y-13455476D01*
X15451048Y-13445952D01*
X15441524Y-13436428D01*
X15660571Y-13455476D02*
X15698667Y-13455476D01*
X15717714Y-13445952D01*
X15727238Y-13436428D01*
X15746286Y-13407857D01*
X15755809Y-13369762D01*
X15755809Y-13293571D01*
X15746286Y-13274524D01*
X15736762Y-13265000D01*
X15717714Y-13255476D01*
X15679619Y-13255476D01*
X15660571Y-13265000D01*
X15651048Y-13274524D01*
X15641524Y-13293571D01*
X15641524Y-13341190D01*
X15651048Y-13360238D01*
X15660571Y-13369762D01*
X15679619Y-13379286D01*
X15717714Y-13379286D01*
X15736762Y-13369762D01*
X15746286Y-13360238D01*
X15755809Y-13341190D01*
X15927238Y-13322143D02*
X15927238Y-13455476D01*
X15879619Y-13245952D02*
X15832000Y-13388809D01*
X15955809Y-13388809D01*
X16022476Y-13255476D02*
X16022476Y-13293571D01*
X16098667Y-13255476D02*
X16098667Y-13293571D01*
X16393905Y-13531667D02*
X16384381Y-13522143D01*
X16365333Y-13493571D01*
X16355809Y-13474524D01*
X16346286Y-13445952D01*
X16336762Y-13398333D01*
X16336762Y-13360238D01*
X16346286Y-13312619D01*
X16355809Y-13284048D01*
X16365333Y-13265000D01*
X16384381Y-13236428D01*
X16393905Y-13226905D01*
X16479619Y-13455476D02*
X16517714Y-13455476D01*
X16536762Y-13445952D01*
X16546286Y-13436428D01*
X16565333Y-13407857D01*
X16574857Y-13369762D01*
X16574857Y-13293571D01*
X16565333Y-13274524D01*
X16555809Y-13265000D01*
X16536762Y-13255476D01*
X16498667Y-13255476D01*
X16479619Y-13265000D01*
X16470095Y-13274524D01*
X16460571Y-13293571D01*
X16460571Y-13341190D01*
X16470095Y-13360238D01*
X16479619Y-13369762D01*
X16498667Y-13379286D01*
X16536762Y-13379286D01*
X16555809Y-13369762D01*
X16565333Y-13360238D01*
X16574857Y-13341190D01*
X16689143Y-13341190D02*
X16670095Y-13331667D01*
X16660571Y-13322143D01*
X16651048Y-13303095D01*
X16651048Y-13293571D01*
X16660571Y-13274524D01*
X16670095Y-13265000D01*
X16689143Y-13255476D01*
X16727238Y-13255476D01*
X16746286Y-13265000D01*
X16755809Y-13274524D01*
X16765333Y-13293571D01*
X16765333Y-13303095D01*
X16755809Y-13322143D01*
X16746286Y-13331667D01*
X16727238Y-13341190D01*
X16689143Y-13341190D01*
X16670095Y-13350714D01*
X16660571Y-13360238D01*
X16651048Y-13379286D01*
X16651048Y-13417381D01*
X16660571Y-13436428D01*
X16670095Y-13445952D01*
X16689143Y-13455476D01*
X16727238Y-13455476D01*
X16746286Y-13445952D01*
X16755809Y-13436428D01*
X16765333Y-13417381D01*
X16765333Y-13379286D01*
X16755809Y-13360238D01*
X16746286Y-13350714D01*
X16727238Y-13341190D01*
X17003429Y-13455476D02*
X17003429Y-13255476D01*
X17089143Y-13455476D02*
X17089143Y-13350714D01*
X17079619Y-13331667D01*
X17060571Y-13322143D01*
X17032000Y-13322143D01*
X17012952Y-13331667D01*
X17003429Y-13341190D01*
X17212952Y-13455476D02*
X17193905Y-13445952D01*
X17184381Y-13436428D01*
X17174857Y-13417381D01*
X17174857Y-13360238D01*
X17184381Y-13341190D01*
X17193905Y-13331667D01*
X17212952Y-13322143D01*
X17241524Y-13322143D01*
X17260571Y-13331667D01*
X17270095Y-13341190D01*
X17279619Y-13360238D01*
X17279619Y-13417381D01*
X17270095Y-13436428D01*
X17260571Y-13445952D01*
X17241524Y-13455476D01*
X17212952Y-13455476D01*
X17393905Y-13455476D02*
X17374857Y-13445952D01*
X17365333Y-13426905D01*
X17365333Y-13255476D01*
X17546286Y-13445952D02*
X17527238Y-13455476D01*
X17489143Y-13455476D01*
X17470095Y-13445952D01*
X17460571Y-13426905D01*
X17460571Y-13350714D01*
X17470095Y-13331667D01*
X17489143Y-13322143D01*
X17527238Y-13322143D01*
X17546286Y-13331667D01*
X17555810Y-13350714D01*
X17555810Y-13369762D01*
X17460571Y-13388809D01*
X17632000Y-13445952D02*
X17651048Y-13455476D01*
X17689143Y-13455476D01*
X17708190Y-13445952D01*
X17717714Y-13426905D01*
X17717714Y-13417381D01*
X17708190Y-13398333D01*
X17689143Y-13388809D01*
X17660571Y-13388809D01*
X17641524Y-13379286D01*
X17632000Y-13360238D01*
X17632000Y-13350714D01*
X17641524Y-13331667D01*
X17660571Y-13322143D01*
X17689143Y-13322143D01*
X17708190Y-13331667D01*
X17784381Y-13531667D02*
X17793905Y-13522143D01*
X17812952Y-13493571D01*
X17822476Y-13474524D01*
X17832000Y-13445952D01*
X17841524Y-13398333D01*
X17841524Y-13360238D01*
X17832000Y-13312619D01*
X17822476Y-13284048D01*
X17812952Y-13265000D01*
X17793905Y-13236428D01*
X17784381Y-13226905D01*
M02*
