%TF.GenerationSoftware,KiCad,Pcbnew,(6.0.0)*%
%TF.CreationDate,2023-05-14T10:20:04+02:00*%
%TF.ProjectId,Zusatzplatine,5a757361-747a-4706-9c61-74696e652e6b,rev?*%
%TF.SameCoordinates,Original*%
%TF.FileFunction,Soldermask,Bot*%
%TF.FilePolarity,Negative*%
%FSLAX46Y46*%
G04 Gerber Fmt 4.6, Leading zero omitted, Abs format (unit mm)*
G04 Created by KiCad (PCBNEW (6.0.0)) date 2023-05-14 10:20:04*
%MOMM*%
%LPD*%
G01*
G04 APERTURE LIST*
G04 Aperture macros list*
%AMRoundRect*
0 Rectangle with rounded corners*
0 $1 Rounding radius*
0 $2 $3 $4 $5 $6 $7 $8 $9 X,Y pos of 4 corners*
0 Add a 4 corners polygon primitive as box body*
4,1,4,$2,$3,$4,$5,$6,$7,$8,$9,$2,$3,0*
0 Add four circle primitives for the rounded corners*
1,1,$1+$1,$2,$3*
1,1,$1+$1,$4,$5*
1,1,$1+$1,$6,$7*
1,1,$1+$1,$8,$9*
0 Add four rect primitives between the rounded corners*
20,1,$1+$1,$2,$3,$4,$5,0*
20,1,$1+$1,$4,$5,$6,$7,0*
20,1,$1+$1,$6,$7,$8,$9,0*
20,1,$1+$1,$8,$9,$2,$3,0*%
G04 Aperture macros list end*
%ADD10R,1.700000X1.700000*%
%ADD11C,1.700000*%
%ADD12O,1.700000X1.700000*%
%ADD13C,1.524000*%
%ADD14RoundRect,0.150000X-0.150000X0.725000X-0.150000X-0.725000X0.150000X-0.725000X0.150000X0.725000X0*%
%ADD15RoundRect,0.237500X-0.237500X0.250000X-0.237500X-0.250000X0.237500X-0.250000X0.237500X0.250000X0*%
%ADD16RoundRect,0.225000X0.250000X-0.225000X0.250000X0.225000X-0.250000X0.225000X-0.250000X-0.225000X0*%
%ADD17RoundRect,0.237500X0.237500X-0.250000X0.237500X0.250000X-0.237500X0.250000X-0.237500X-0.250000X0*%
G04 APERTURE END LIST*
D10*
%TO.C,J201*%
X130810000Y-101727000D03*
%TD*%
%TO.C,U502*%
X158115000Y-63500000D03*
D11*
X158115000Y-66040000D03*
X158115000Y-68580000D03*
X158115000Y-71120000D03*
X158115000Y-73660000D03*
X165735000Y-73660000D03*
X165735000Y-71120000D03*
X165735000Y-68580000D03*
X165735000Y-66040000D03*
X165735000Y-63500000D03*
%TD*%
D10*
%TO.C,J101*%
X149860000Y-106680000D03*
D12*
X152400000Y-106680000D03*
X149860000Y-109220000D03*
X152400000Y-109220000D03*
X149860000Y-111760000D03*
X152400000Y-111760000D03*
X149860000Y-114300000D03*
X152400000Y-114300000D03*
X149860000Y-116840000D03*
X152400000Y-116840000D03*
%TD*%
D10*
%TO.C,J105*%
X193548000Y-65659000D03*
%TD*%
%TO.C,J203*%
X172720000Y-117348000D03*
%TD*%
%TO.C,J204*%
X168910000Y-110490000D03*
%TD*%
%TO.C,J205*%
X171450000Y-98425000D03*
%TD*%
%TO.C,J107*%
X199136000Y-65659000D03*
%TD*%
%TO.C,U302*%
X132715000Y-63500000D03*
D11*
X132715000Y-66040000D03*
X132715000Y-68580000D03*
X132715000Y-71120000D03*
X132715000Y-73660000D03*
X140335000Y-73660000D03*
X140335000Y-71120000D03*
X140335000Y-68580000D03*
X140335000Y-66040000D03*
X140335000Y-63500000D03*
%TD*%
D10*
%TO.C,J106*%
X130810000Y-96266000D03*
%TD*%
%TO.C,U402*%
X145415000Y-63500000D03*
D11*
X145415000Y-66040000D03*
X145415000Y-68580000D03*
X145415000Y-71120000D03*
X145415000Y-73660000D03*
X153035000Y-73660000D03*
X153035000Y-71120000D03*
X153035000Y-68580000D03*
X153035000Y-66040000D03*
X153035000Y-63500000D03*
%TD*%
D10*
%TO.C,U602*%
X170815000Y-63500000D03*
D11*
X170815000Y-66040000D03*
X170815000Y-68580000D03*
X170815000Y-71120000D03*
X170815000Y-73660000D03*
X178435000Y-73660000D03*
X178435000Y-71120000D03*
X178435000Y-68580000D03*
X178435000Y-66040000D03*
X178435000Y-63500000D03*
%TD*%
D10*
%TO.C,J202*%
X173990000Y-110490000D03*
%TD*%
%TO.C,J102*%
X195580000Y-71120000D03*
D12*
X198120000Y-71120000D03*
X195580000Y-73660000D03*
X198120000Y-73660000D03*
X195580000Y-76200000D03*
X198120000Y-76200000D03*
X195580000Y-78740000D03*
X198120000Y-78740000D03*
X195580000Y-81280000D03*
X198120000Y-81280000D03*
X195580000Y-83820000D03*
X198120000Y-83820000D03*
X195580000Y-86360000D03*
X198120000Y-86360000D03*
X195580000Y-88900000D03*
X198120000Y-88900000D03*
X195580000Y-91440000D03*
X198120000Y-91440000D03*
X195580000Y-93980000D03*
X198120000Y-93980000D03*
X195580000Y-96520000D03*
X198120000Y-96520000D03*
X195580000Y-99060000D03*
X198120000Y-99060000D03*
X195580000Y-101600000D03*
X198120000Y-101600000D03*
X195580000Y-104140000D03*
X198120000Y-104140000D03*
X195580000Y-106680000D03*
X198120000Y-106680000D03*
X195580000Y-109220000D03*
X198120000Y-109220000D03*
X195580000Y-111760000D03*
X198120000Y-111760000D03*
X195580000Y-114300000D03*
X198120000Y-114300000D03*
X195580000Y-116840000D03*
X198120000Y-116840000D03*
X195580000Y-119380000D03*
X198120000Y-119380000D03*
%TD*%
D13*
%TO.C,RV201*%
X157480000Y-99060000D03*
X154940000Y-96520000D03*
X152400000Y-99060000D03*
%TD*%
D14*
%TO.C,U501*%
X157480000Y-83785000D03*
X158750000Y-83785000D03*
X160020000Y-83785000D03*
X161290000Y-83785000D03*
X162560000Y-83785000D03*
X163830000Y-83785000D03*
X165100000Y-83785000D03*
X166370000Y-83785000D03*
X166370000Y-88935000D03*
X165100000Y-88935000D03*
X163830000Y-88935000D03*
X162560000Y-88935000D03*
X161290000Y-88935000D03*
X160020000Y-88935000D03*
X158750000Y-88935000D03*
X157480000Y-88935000D03*
%TD*%
D15*
%TO.C,R608*%
X171450000Y-76557500D03*
X171450000Y-78382500D03*
%TD*%
D16*
%TO.C,C501*%
X155575000Y-89040000D03*
X155575000Y-87490000D03*
%TD*%
D15*
%TO.C,R304*%
X137160000Y-94337500D03*
X137160000Y-96162500D03*
%TD*%
%TO.C,R504*%
X162560000Y-94337500D03*
X162560000Y-96162500D03*
%TD*%
%TO.C,R313*%
X139700000Y-79732500D03*
X139700000Y-81557500D03*
%TD*%
%TO.C,R611*%
X175260000Y-79732500D03*
X175260000Y-81557500D03*
%TD*%
%TO.C,R410*%
X148590000Y-76557500D03*
X148590000Y-78382500D03*
%TD*%
%TO.C,R309*%
X134620000Y-79732500D03*
X134620000Y-81557500D03*
%TD*%
%TO.C,R512*%
X163830000Y-76557500D03*
X163830000Y-78382500D03*
%TD*%
%TO.C,R612*%
X176530000Y-76557500D03*
X176530000Y-78382500D03*
%TD*%
%TO.C,R401*%
X147320000Y-94337500D03*
X147320000Y-96162500D03*
%TD*%
D17*
%TO.C,R406*%
X146050000Y-92987500D03*
X146050000Y-91162500D03*
%TD*%
D15*
%TO.C,R601*%
X172720000Y-94337500D03*
X172720000Y-96162500D03*
%TD*%
%TO.C,R507*%
X157480000Y-79732500D03*
X157480000Y-81557500D03*
%TD*%
%TO.C,R604*%
X175260000Y-94337500D03*
X175260000Y-96162500D03*
%TD*%
%TO.C,R503*%
X165100000Y-94337500D03*
X165100000Y-96162500D03*
%TD*%
%TO.C,R308*%
X133350000Y-76557500D03*
X133350000Y-78382500D03*
%TD*%
%TO.C,R509*%
X160020000Y-79732500D03*
X160020000Y-81557500D03*
%TD*%
%TO.C,R502*%
X163830000Y-91162500D03*
X163830000Y-92987500D03*
%TD*%
%TO.C,R310*%
X135890000Y-76557500D03*
X135890000Y-78382500D03*
%TD*%
%TO.C,R510*%
X161290000Y-76557500D03*
X161290000Y-78382500D03*
%TD*%
%TO.C,R508*%
X158750000Y-76557500D03*
X158750000Y-78382500D03*
%TD*%
%TO.C,R409*%
X147320000Y-79732500D03*
X147320000Y-81557500D03*
%TD*%
%TO.C,R603*%
X177800000Y-94337500D03*
X177800000Y-96162500D03*
%TD*%
%TO.C,R402*%
X151130000Y-91162500D03*
X151130000Y-92987500D03*
%TD*%
%TO.C,R413*%
X152400000Y-79732500D03*
X152400000Y-81557500D03*
%TD*%
D17*
%TO.C,R606*%
X171450000Y-92987500D03*
X171450000Y-91162500D03*
%TD*%
%TO.C,R506*%
X158750000Y-92987500D03*
X158750000Y-91162500D03*
%TD*%
D15*
%TO.C,R602*%
X176530000Y-91162500D03*
X176530000Y-92987500D03*
%TD*%
%TO.C,R605*%
X173990000Y-91162500D03*
X173990000Y-92987500D03*
%TD*%
%TO.C,R407*%
X144780000Y-79732500D03*
X144780000Y-81557500D03*
%TD*%
D16*
%TO.C,C601*%
X168275000Y-89040000D03*
X168275000Y-87490000D03*
%TD*%
D15*
%TO.C,R302*%
X138430000Y-91162500D03*
X138430000Y-92987500D03*
%TD*%
D16*
%TO.C,C301*%
X130175000Y-89040000D03*
X130175000Y-87490000D03*
%TD*%
D14*
%TO.C,U601*%
X170180000Y-88935000D03*
X171450000Y-88935000D03*
X172720000Y-88935000D03*
X173990000Y-88935000D03*
X175260000Y-88935000D03*
X176530000Y-88935000D03*
X177800000Y-88935000D03*
X179070000Y-88935000D03*
X179070000Y-83785000D03*
X177800000Y-83785000D03*
X176530000Y-83785000D03*
X175260000Y-83785000D03*
X173990000Y-83785000D03*
X172720000Y-83785000D03*
X171450000Y-83785000D03*
X170180000Y-83785000D03*
%TD*%
D15*
%TO.C,R303*%
X139700000Y-94337500D03*
X139700000Y-96162500D03*
%TD*%
%TO.C,R511*%
X162560000Y-79732500D03*
X162560000Y-81557500D03*
%TD*%
%TO.C,R609*%
X172720000Y-79732500D03*
X172720000Y-81557500D03*
%TD*%
D14*
%TO.C,U301*%
X132080000Y-83785000D03*
X133350000Y-83785000D03*
X134620000Y-83785000D03*
X135890000Y-83785000D03*
X137160000Y-83785000D03*
X138430000Y-83785000D03*
X139700000Y-83785000D03*
X140970000Y-83785000D03*
X140970000Y-88935000D03*
X139700000Y-88935000D03*
X138430000Y-88935000D03*
X137160000Y-88935000D03*
X135890000Y-88935000D03*
X134620000Y-88935000D03*
X133350000Y-88935000D03*
X132080000Y-88935000D03*
%TD*%
D15*
%TO.C,R610*%
X173990000Y-76557500D03*
X173990000Y-78382500D03*
%TD*%
%TO.C,R403*%
X152400000Y-94337500D03*
X152400000Y-96162500D03*
%TD*%
%TO.C,R408*%
X146050000Y-76557500D03*
X146050000Y-78382500D03*
%TD*%
%TO.C,R312*%
X138430000Y-76557500D03*
X138430000Y-78382500D03*
%TD*%
%TO.C,R613*%
X177800000Y-79732500D03*
X177800000Y-81557500D03*
%TD*%
%TO.C,R311*%
X137160000Y-79732500D03*
X137160000Y-81557500D03*
%TD*%
D14*
%TO.C,U401*%
X144780000Y-83785000D03*
X146050000Y-83785000D03*
X147320000Y-83785000D03*
X148590000Y-83785000D03*
X149860000Y-83785000D03*
X151130000Y-83785000D03*
X152400000Y-83785000D03*
X153670000Y-83785000D03*
X153670000Y-88935000D03*
X152400000Y-88935000D03*
X151130000Y-88935000D03*
X149860000Y-88935000D03*
X148590000Y-88935000D03*
X147320000Y-88935000D03*
X146050000Y-88935000D03*
X144780000Y-88935000D03*
%TD*%
D15*
%TO.C,R404*%
X149860000Y-94337500D03*
X149860000Y-96162500D03*
%TD*%
%TO.C,R411*%
X149860000Y-79732500D03*
X149860000Y-81557500D03*
%TD*%
%TO.C,R405*%
X148590000Y-91162500D03*
X148590000Y-92987500D03*
%TD*%
%TO.C,R513*%
X165100000Y-79732500D03*
X165100000Y-81557500D03*
%TD*%
D17*
%TO.C,R306*%
X133350000Y-92987500D03*
X133350000Y-91162500D03*
%TD*%
D15*
%TO.C,R412*%
X151130000Y-76557500D03*
X151130000Y-78382500D03*
%TD*%
%TO.C,R505*%
X161290000Y-91162500D03*
X161290000Y-92987500D03*
%TD*%
%TO.C,R607*%
X170180000Y-79732500D03*
X170180000Y-81557500D03*
%TD*%
%TO.C,R307*%
X132080000Y-79732500D03*
X132080000Y-81557500D03*
%TD*%
%TO.C,R501*%
X160020000Y-94337500D03*
X160020000Y-96162500D03*
%TD*%
D16*
%TO.C,C401*%
X142875000Y-89040000D03*
X142875000Y-87490000D03*
%TD*%
D15*
%TO.C,R301*%
X134620000Y-94337500D03*
X134620000Y-96162500D03*
%TD*%
%TO.C,R305*%
X135890000Y-91162500D03*
X135890000Y-92987500D03*
%TD*%
M02*
