%TF.GenerationSoftware,KiCad,Pcbnew,(6.0.0)*%
%TF.CreationDate,2023-05-14T10:20:04+02:00*%
%TF.ProjectId,Zusatzplatine,5a757361-747a-4706-9c61-74696e652e6b,rev?*%
%TF.SameCoordinates,Original*%
%TF.FileFunction,Soldermask,Top*%
%TF.FilePolarity,Negative*%
%FSLAX46Y46*%
G04 Gerber Fmt 4.6, Leading zero omitted, Abs format (unit mm)*
G04 Created by KiCad (PCBNEW (6.0.0)) date 2023-05-14 10:20:04*
%MOMM*%
%LPD*%
G01*
G04 APERTURE LIST*
G04 Aperture macros list*
%AMRoundRect*
0 Rectangle with rounded corners*
0 $1 Rounding radius*
0 $2 $3 $4 $5 $6 $7 $8 $9 X,Y pos of 4 corners*
0 Add a 4 corners polygon primitive as box body*
4,1,4,$2,$3,$4,$5,$6,$7,$8,$9,$2,$3,0*
0 Add four circle primitives for the rounded corners*
1,1,$1+$1,$2,$3*
1,1,$1+$1,$4,$5*
1,1,$1+$1,$6,$7*
1,1,$1+$1,$8,$9*
0 Add four rect primitives between the rounded corners*
20,1,$1+$1,$2,$3,$4,$5,0*
20,1,$1+$1,$4,$5,$6,$7,0*
20,1,$1+$1,$6,$7,$8,$9,0*
20,1,$1+$1,$8,$9,$2,$3,0*%
G04 Aperture macros list end*
%ADD10C,0.450000*%
%ADD11RoundRect,0.225000X0.225000X0.250000X-0.225000X0.250000X-0.225000X-0.250000X0.225000X-0.250000X0*%
%ADD12RoundRect,0.237500X0.250000X0.237500X-0.250000X0.237500X-0.250000X-0.237500X0.250000X-0.237500X0*%
%ADD13RoundRect,0.237500X-0.250000X-0.237500X0.250000X-0.237500X0.250000X0.237500X-0.250000X0.237500X0*%
%ADD14R,1.700000X1.700000*%
%ADD15R,1.000000X1.500000*%
%ADD16RoundRect,0.237500X-0.237500X0.250000X-0.237500X-0.250000X0.237500X-0.250000X0.237500X0.250000X0*%
%ADD17C,1.700000*%
%ADD18RoundRect,0.237500X0.237500X-0.250000X0.237500X0.250000X-0.237500X0.250000X-0.237500X-0.250000X0*%
%ADD19O,1.700000X1.700000*%
%ADD20RoundRect,0.101600X-0.325000X0.200000X-0.325000X-0.200000X0.325000X-0.200000X0.325000X0.200000X0*%
%ADD21RoundRect,0.101600X-0.725000X-0.225000X0.725000X-0.225000X0.725000X0.225000X-0.725000X0.225000X0*%
%ADD22RoundRect,0.225000X-0.250000X0.225000X-0.250000X-0.225000X0.250000X-0.225000X0.250000X0.225000X0*%
%ADD23C,1.524000*%
G04 APERTURE END LIST*
D10*
X182419714Y-78987142D02*
X182419714Y-75987142D01*
X182419714Y-77415714D02*
X184134000Y-77415714D01*
X184134000Y-78987142D02*
X184134000Y-75987142D01*
X186562571Y-77415714D02*
X185562571Y-77415714D01*
X185562571Y-78987142D02*
X185562571Y-75987142D01*
X186991142Y-75987142D01*
X188134000Y-75987142D02*
X188134000Y-78415714D01*
X188276857Y-78701428D01*
X188419714Y-78844285D01*
X188705428Y-78987142D01*
X189276857Y-78987142D01*
X189562571Y-78844285D01*
X189705428Y-78701428D01*
X189848285Y-78415714D01*
X189848285Y-75987142D01*
%TO.C,Ge*%
G36*
X186796177Y-66905612D02*
G01*
X186856969Y-66925588D01*
X186939946Y-66954476D01*
X186984004Y-66970275D01*
X187231777Y-67080531D01*
X187476120Y-67227898D01*
X187704804Y-67403678D01*
X187905600Y-67599172D01*
X187964844Y-67667975D01*
X188162812Y-67943181D01*
X188316174Y-68231735D01*
X188425373Y-68534870D01*
X188490853Y-68853820D01*
X188513057Y-69189820D01*
X188513063Y-69195564D01*
X188492198Y-69529939D01*
X188429017Y-69845997D01*
X188322643Y-70146175D01*
X188172198Y-70432914D01*
X187976804Y-70708652D01*
X187961847Y-70727083D01*
X187750295Y-70950046D01*
X187505099Y-71145647D01*
X187233192Y-71309538D01*
X186941507Y-71437372D01*
X186721448Y-71505074D01*
X186523695Y-71546307D01*
X186320482Y-71572655D01*
X186126724Y-71582875D01*
X185957340Y-71575722D01*
X185924082Y-71571587D01*
X185759932Y-71546318D01*
X185640112Y-71523911D01*
X185565372Y-71504525D01*
X185537011Y-71489396D01*
X185538531Y-71460869D01*
X185550985Y-71394616D01*
X185572741Y-71297837D01*
X185602165Y-71177731D01*
X185637626Y-71041497D01*
X185643672Y-71018975D01*
X185764370Y-70571265D01*
X186094961Y-70571477D01*
X186234503Y-70570589D01*
X186339021Y-70566854D01*
X186420114Y-70558975D01*
X186489381Y-70545656D01*
X186558419Y-70525600D01*
X186584759Y-70516719D01*
X186742096Y-70448112D01*
X186903000Y-70353147D01*
X187052146Y-70242279D01*
X187174208Y-70125964D01*
X187197505Y-70098725D01*
X187345858Y-69882187D01*
X187450734Y-69653063D01*
X187512134Y-69415674D01*
X187530058Y-69174343D01*
X187504505Y-68933392D01*
X187435476Y-68697141D01*
X187322971Y-68469913D01*
X187197505Y-68292404D01*
X187100831Y-68192107D01*
X186977234Y-68090320D01*
X186841588Y-67997510D01*
X186708769Y-67924142D01*
X186625492Y-67889972D01*
X186559543Y-67865428D01*
X186516404Y-67844316D01*
X186506755Y-67835058D01*
X186512367Y-67802593D01*
X186528382Y-67735371D01*
X186552546Y-67641465D01*
X186582605Y-67528948D01*
X186616304Y-67405895D01*
X186651389Y-67280379D01*
X186685606Y-67160473D01*
X186716701Y-67054251D01*
X186742418Y-66969787D01*
X186760504Y-66915153D01*
X186768364Y-66898160D01*
X186796177Y-66905612D01*
G37*
G36*
X186402603Y-68251117D02*
G01*
X186596121Y-68326510D01*
X186727895Y-68411803D01*
X186854328Y-68530140D01*
X186963015Y-68668451D01*
X187026664Y-68780044D01*
X187060218Y-68854041D01*
X187081991Y-68915219D01*
X187094512Y-68977534D01*
X187100308Y-69054944D01*
X187101910Y-69161406D01*
X187101952Y-69195564D01*
X187101026Y-69311865D01*
X187096563Y-69395485D01*
X187086034Y-69460382D01*
X187066910Y-69520513D01*
X187036662Y-69589835D01*
X187026664Y-69611085D01*
X186917746Y-69789778D01*
X186777474Y-69938670D01*
X186611976Y-70054620D01*
X186427380Y-70134490D01*
X186229812Y-70175141D01*
X186025402Y-70173433D01*
X185951518Y-70161884D01*
X185751872Y-70100381D01*
X185575667Y-70002213D01*
X185426075Y-69872730D01*
X185306267Y-69717280D01*
X185219416Y-69541214D01*
X185168692Y-69349880D01*
X185157266Y-69148628D01*
X185188312Y-68942808D01*
X185201397Y-68896666D01*
X185283256Y-68707758D01*
X185402295Y-68543603D01*
X185554077Y-68407871D01*
X185734166Y-68304237D01*
X185938129Y-68236372D01*
X186017010Y-68221332D01*
X186205693Y-68214906D01*
X186402603Y-68251117D01*
G37*
G36*
X190166883Y-71511345D02*
G01*
X190290609Y-71582385D01*
X190402426Y-71647045D01*
X190495207Y-71701167D01*
X190561824Y-71740592D01*
X190595148Y-71761162D01*
X190595379Y-71761320D01*
X190610722Y-71776139D01*
X190613835Y-71797178D01*
X190601642Y-71831464D01*
X190571067Y-71886024D01*
X190519034Y-71967885D01*
X190476856Y-72032090D01*
X190185142Y-72432406D01*
X189861381Y-72799653D01*
X189507792Y-73132416D01*
X189126594Y-73429279D01*
X188720005Y-73688827D01*
X188290243Y-73909646D01*
X187839527Y-74090321D01*
X187370075Y-74229436D01*
X186884106Y-74325577D01*
X186880372Y-74326137D01*
X186767894Y-74339537D01*
X186624343Y-74351563D01*
X186461091Y-74361761D01*
X186289510Y-74369677D01*
X186120971Y-74374857D01*
X185966846Y-74376847D01*
X185838506Y-74375193D01*
X185760813Y-74370829D01*
X185295135Y-74311045D01*
X184856057Y-74218567D01*
X184434671Y-74090954D01*
X184022067Y-73925763D01*
X183859895Y-73849791D01*
X183436992Y-73618014D01*
X183036040Y-73346577D01*
X182660711Y-73038740D01*
X182314677Y-72697760D01*
X182001610Y-72326897D01*
X181763519Y-71989600D01*
X181714464Y-71911601D01*
X181677161Y-71848162D01*
X181657573Y-71809585D01*
X181656005Y-71803785D01*
X181675114Y-71787924D01*
X181727420Y-71753330D01*
X181805588Y-71704356D01*
X181902279Y-71645354D01*
X182010156Y-71580678D01*
X182121882Y-71514678D01*
X182230119Y-71451709D01*
X182327530Y-71396122D01*
X182406778Y-71352270D01*
X182460524Y-71324505D01*
X182473868Y-71318634D01*
X182507705Y-71326473D01*
X182548391Y-71375946D01*
X182564385Y-71402869D01*
X182666204Y-71562481D01*
X182799810Y-71739157D01*
X182957656Y-71924881D01*
X183132197Y-72111639D01*
X183315885Y-72291415D01*
X183501174Y-72456194D01*
X183680518Y-72597961D01*
X183708957Y-72618543D01*
X184002634Y-72806185D01*
X184329065Y-72975763D01*
X184676180Y-73122125D01*
X185031906Y-73240117D01*
X185344855Y-73316871D01*
X185439074Y-73334808D01*
X185526122Y-73348270D01*
X185615186Y-73357866D01*
X185715452Y-73364201D01*
X185836107Y-73367882D01*
X185986339Y-73369516D01*
X186145662Y-73369747D01*
X186323756Y-73369178D01*
X186464499Y-73367391D01*
X186577187Y-73363677D01*
X186671112Y-73357327D01*
X186755571Y-73347632D01*
X186839858Y-73333886D01*
X186933267Y-73315378D01*
X186975030Y-73306534D01*
X187403165Y-73192086D01*
X187813250Y-73036769D01*
X188202323Y-72842573D01*
X188567422Y-72611492D01*
X188905585Y-72345516D01*
X189213849Y-72046637D01*
X189489253Y-71716846D01*
X189623965Y-71525549D01*
X189779840Y-71289877D01*
X190166883Y-71511345D01*
G37*
G36*
X189793654Y-68249883D02*
G01*
X189817798Y-68312639D01*
X189842168Y-68409791D01*
X189865543Y-68535251D01*
X189886705Y-68682932D01*
X189904432Y-68846746D01*
X189911211Y-68927337D01*
X189919684Y-69336798D01*
X189883441Y-69740102D01*
X189804322Y-70134057D01*
X189684165Y-70515470D01*
X189524810Y-70881151D01*
X189328094Y-71227906D01*
X189095857Y-71552545D01*
X188829938Y-71851875D01*
X188532176Y-72122704D01*
X188204408Y-72361841D01*
X187848474Y-72566094D01*
X187801676Y-72589216D01*
X187412847Y-72753608D01*
X187015388Y-72874168D01*
X186612652Y-72950296D01*
X186207995Y-72981388D01*
X185804768Y-72966843D01*
X185737489Y-72959889D01*
X185353084Y-72896066D01*
X184972676Y-72793598D01*
X184606496Y-72655948D01*
X184264771Y-72486580D01*
X184163109Y-72426773D01*
X184046730Y-72350733D01*
X183918433Y-72259243D01*
X183789812Y-72161264D01*
X183672463Y-72065757D01*
X183577983Y-71981682D01*
X183545800Y-71949739D01*
X183464946Y-71865200D01*
X183812378Y-71517187D01*
X184159811Y-71169174D01*
X184292290Y-71291826D01*
X184531701Y-71484215D01*
X184804054Y-71651181D01*
X185100898Y-71788812D01*
X185413781Y-71893192D01*
X185734250Y-71960408D01*
X185736824Y-71960786D01*
X185916161Y-71977551D01*
X186121816Y-71981367D01*
X186337681Y-71973059D01*
X186547648Y-71953451D01*
X186735610Y-71923368D01*
X186812121Y-71905753D01*
X187161066Y-71791892D01*
X187485543Y-71639634D01*
X187783314Y-71451504D01*
X188052141Y-71230026D01*
X188289785Y-70977724D01*
X188494008Y-70697124D01*
X188662571Y-70390750D01*
X188793236Y-70061126D01*
X188883765Y-69710776D01*
X188912115Y-69537407D01*
X188924597Y-69388381D01*
X188927750Y-69211843D01*
X188922225Y-69024395D01*
X188908671Y-68842639D01*
X188887740Y-68683177D01*
X188876358Y-68624345D01*
X188860094Y-68547391D01*
X188849602Y-68491718D01*
X188847153Y-68469507D01*
X188871012Y-68461872D01*
X188931775Y-68444855D01*
X189021151Y-68420629D01*
X189130849Y-68391365D01*
X189252578Y-68359232D01*
X189378047Y-68326402D01*
X189498965Y-68295046D01*
X189607040Y-68267336D01*
X189693982Y-68245441D01*
X189751499Y-68231534D01*
X189770957Y-68227612D01*
X189793654Y-68249883D01*
G37*
%TD*%
D11*
%TO.C,C205*%
X159652000Y-109213614D03*
X158102000Y-109213614D03*
%TD*%
D12*
%TO.C,R239*%
X159789500Y-107689614D03*
X157964500Y-107689614D03*
%TD*%
D13*
%TO.C,R238*%
X157964500Y-106165614D03*
X159789500Y-106165614D03*
%TD*%
D14*
%TO.C,J201*%
X130810000Y-101727000D03*
%TD*%
D12*
%TO.C,R202*%
X190523500Y-115316000D03*
X188698500Y-115316000D03*
%TD*%
%TO.C,R211*%
X190523500Y-109220000D03*
X188698500Y-109220000D03*
%TD*%
D15*
%TO.C,JP201*%
X136973000Y-101219000D03*
X138273000Y-101219000D03*
X139573000Y-101219000D03*
%TD*%
D16*
%TO.C,R230*%
X180467000Y-95099500D03*
X180467000Y-96924500D03*
%TD*%
D12*
%TO.C,R220*%
X190523500Y-103124000D03*
X188698500Y-103124000D03*
%TD*%
D16*
%TO.C,R221*%
X182499000Y-101195500D03*
X182499000Y-103020500D03*
%TD*%
D12*
%TO.C,R236*%
X186459500Y-92964000D03*
X184634500Y-92964000D03*
%TD*%
D14*
%TO.C,U502*%
X158115000Y-63500000D03*
D17*
X158115000Y-66040000D03*
X158115000Y-68580000D03*
X158115000Y-71120000D03*
X158115000Y-73660000D03*
X165735000Y-73660000D03*
X165735000Y-71120000D03*
X165735000Y-68580000D03*
X165735000Y-66040000D03*
X165735000Y-63500000D03*
%TD*%
D16*
%TO.C,R218*%
X180467000Y-103227500D03*
X180467000Y-105052500D03*
%TD*%
D12*
%TO.C,R223*%
X190523500Y-101092000D03*
X188698500Y-101092000D03*
%TD*%
%TO.C,R201*%
X186459500Y-115316000D03*
X184634500Y-115316000D03*
%TD*%
D11*
%TO.C,C201*%
X163208000Y-109213614D03*
X161658000Y-109213614D03*
%TD*%
D18*
%TO.C,R235*%
X180467000Y-92860500D03*
X180467000Y-91035500D03*
%TD*%
D14*
%TO.C,J101*%
X149860000Y-106680000D03*
D19*
X152400000Y-106680000D03*
X149860000Y-109220000D03*
X152400000Y-109220000D03*
X149860000Y-111760000D03*
X152400000Y-111760000D03*
X149860000Y-114300000D03*
X152400000Y-114300000D03*
X149860000Y-116840000D03*
X152400000Y-116840000D03*
%TD*%
D12*
%TO.C,R228*%
X186459500Y-97028000D03*
X184634500Y-97028000D03*
%TD*%
%TO.C,R216*%
X186459500Y-105156000D03*
X184634500Y-105156000D03*
%TD*%
D20*
%TO.C,IC203*%
X170420000Y-104760000D03*
X170420000Y-105410000D03*
X170420000Y-106060000D03*
X172470000Y-106060000D03*
X172470000Y-104760000D03*
%TD*%
D14*
%TO.C,J105*%
X193548000Y-65659000D03*
%TD*%
%TO.C,J203*%
X172720000Y-117348000D03*
%TD*%
%TO.C,J204*%
X168910000Y-110490000D03*
%TD*%
D16*
%TO.C,R224*%
X180467000Y-99163500D03*
X180467000Y-100988500D03*
%TD*%
D12*
%TO.C,R208*%
X190523500Y-111252000D03*
X188698500Y-111252000D03*
%TD*%
%TO.C,R204*%
X186563000Y-113284000D03*
X184738000Y-113284000D03*
%TD*%
D14*
%TO.C,J205*%
X171450000Y-98425000D03*
%TD*%
D12*
%TO.C,R232*%
X190523500Y-94996000D03*
X188698500Y-94996000D03*
%TD*%
D13*
%TO.C,R234*%
X184634500Y-90932000D03*
X186459500Y-90932000D03*
%TD*%
D12*
%TO.C,R225*%
X186459500Y-99060000D03*
X184634500Y-99060000D03*
%TD*%
D14*
%TO.C,J107*%
X199136000Y-65659000D03*
%TD*%
D16*
%TO.C,R203*%
X182499000Y-113387500D03*
X182499000Y-115212500D03*
%TD*%
%TO.C,R215*%
X182499000Y-105259500D03*
X182499000Y-107084500D03*
%TD*%
D12*
%TO.C,R210*%
X186459500Y-109220000D03*
X184634500Y-109220000D03*
%TD*%
%TO.C,R226*%
X190523500Y-99060000D03*
X188698500Y-99060000D03*
%TD*%
%TO.C,R219*%
X186459500Y-103124000D03*
X184634500Y-103124000D03*
%TD*%
%TO.C,R222*%
X186459500Y-101092000D03*
X184634500Y-101092000D03*
%TD*%
D16*
%TO.C,R206*%
X180467000Y-111355500D03*
X180467000Y-113180500D03*
%TD*%
D12*
%TO.C,R217*%
X190523500Y-105156000D03*
X188698500Y-105156000D03*
%TD*%
D11*
%TO.C,C204*%
X172225000Y-103505000D03*
X170675000Y-103505000D03*
%TD*%
D14*
%TO.C,U302*%
X132715000Y-63500000D03*
D17*
X132715000Y-66040000D03*
X132715000Y-68580000D03*
X132715000Y-71120000D03*
X132715000Y-73660000D03*
X140335000Y-73660000D03*
X140335000Y-71120000D03*
X140335000Y-68580000D03*
X140335000Y-66040000D03*
X140335000Y-63500000D03*
%TD*%
D12*
%TO.C,R229*%
X190523500Y-97028000D03*
X188698500Y-97028000D03*
%TD*%
D14*
%TO.C,J106*%
X130810000Y-96266000D03*
%TD*%
D21*
%TO.C,IC201*%
X158963000Y-111047614D03*
X158963000Y-111687614D03*
X158963000Y-112337614D03*
X158963000Y-112987614D03*
X163363000Y-112987614D03*
X163363000Y-112337614D03*
X163363000Y-111687614D03*
X163363000Y-111037614D03*
%TD*%
D22*
%TO.C,C203*%
X162458400Y-115413214D03*
X162458400Y-116963214D03*
%TD*%
D14*
%TO.C,U402*%
X145415000Y-63500000D03*
D17*
X145415000Y-66040000D03*
X145415000Y-68580000D03*
X145415000Y-71120000D03*
X145415000Y-73660000D03*
X153035000Y-73660000D03*
X153035000Y-71120000D03*
X153035000Y-68580000D03*
X153035000Y-66040000D03*
X153035000Y-63500000D03*
%TD*%
D14*
%TO.C,U602*%
X170815000Y-63500000D03*
D17*
X170815000Y-66040000D03*
X170815000Y-68580000D03*
X170815000Y-71120000D03*
X170815000Y-73660000D03*
X178435000Y-73660000D03*
X178435000Y-71120000D03*
X178435000Y-68580000D03*
X178435000Y-66040000D03*
X178435000Y-63500000D03*
%TD*%
D12*
%TO.C,R231*%
X186459500Y-94996000D03*
X184634500Y-94996000D03*
%TD*%
D16*
%TO.C,R209*%
X182499000Y-109323500D03*
X182499000Y-111148500D03*
%TD*%
%TO.C,R233*%
X182499000Y-93067500D03*
X182499000Y-94892500D03*
%TD*%
D11*
%TO.C,C202*%
X160439400Y-116960614D03*
X158889400Y-116960614D03*
%TD*%
D12*
%TO.C,R205*%
X190523500Y-113284000D03*
X188698500Y-113284000D03*
%TD*%
D16*
%TO.C,R227*%
X182499000Y-97131500D03*
X182499000Y-98956500D03*
%TD*%
D14*
%TO.C,J202*%
X173990000Y-110490000D03*
%TD*%
D12*
%TO.C,R207*%
X186459500Y-111252000D03*
X184634500Y-111252000D03*
%TD*%
D14*
%TO.C,J102*%
X195580000Y-71120000D03*
D19*
X198120000Y-71120000D03*
X195580000Y-73660000D03*
X198120000Y-73660000D03*
X195580000Y-76200000D03*
X198120000Y-76200000D03*
X195580000Y-78740000D03*
X198120000Y-78740000D03*
X195580000Y-81280000D03*
X198120000Y-81280000D03*
X195580000Y-83820000D03*
X198120000Y-83820000D03*
X195580000Y-86360000D03*
X198120000Y-86360000D03*
X195580000Y-88900000D03*
X198120000Y-88900000D03*
X195580000Y-91440000D03*
X198120000Y-91440000D03*
X195580000Y-93980000D03*
X198120000Y-93980000D03*
X195580000Y-96520000D03*
X198120000Y-96520000D03*
X195580000Y-99060000D03*
X198120000Y-99060000D03*
X195580000Y-101600000D03*
X198120000Y-101600000D03*
X195580000Y-104140000D03*
X198120000Y-104140000D03*
X195580000Y-106680000D03*
X198120000Y-106680000D03*
X195580000Y-109220000D03*
X198120000Y-109220000D03*
X195580000Y-111760000D03*
X198120000Y-111760000D03*
X195580000Y-114300000D03*
X198120000Y-114300000D03*
X195580000Y-116840000D03*
X198120000Y-116840000D03*
X195580000Y-119380000D03*
X198120000Y-119380000D03*
%TD*%
D12*
%TO.C,R213*%
X186459500Y-107188000D03*
X184634500Y-107188000D03*
%TD*%
D23*
%TO.C,RV201*%
X157480000Y-99060000D03*
X154940000Y-96520000D03*
X152400000Y-99060000D03*
%TD*%
D12*
%TO.C,R214*%
X190523500Y-107188000D03*
X188698500Y-107188000D03*
%TD*%
D20*
%TO.C,IC202*%
X158593400Y-114177214D03*
X158593400Y-114827214D03*
X158593400Y-115477214D03*
X160653400Y-115477214D03*
X160653400Y-114827214D03*
X160653400Y-114177214D03*
%TD*%
D16*
%TO.C,R212*%
X180467000Y-107291500D03*
X180467000Y-109116500D03*
%TD*%
D12*
%TO.C,R237*%
X190523500Y-92964000D03*
X188698500Y-92964000D03*
%TD*%
M02*
