%TF.GenerationSoftware,KiCad,Pcbnew,(6.0.0)*%
%TF.CreationDate,2023-05-14T10:20:03+02:00*%
%TF.ProjectId,Zusatzplatine,5a757361-747a-4706-9c61-74696e652e6b,rev?*%
%TF.SameCoordinates,Original*%
%TF.FileFunction,Legend,Top*%
%TF.FilePolarity,Positive*%
%FSLAX46Y46*%
G04 Gerber Fmt 4.6, Leading zero omitted, Abs format (unit mm)*
G04 Created by KiCad (PCBNEW (6.0.0)) date 2023-05-14 10:20:03*
%MOMM*%
%LPD*%
G01*
G04 APERTURE LIST*
%ADD10C,0.150000*%
%ADD11C,0.300000*%
%ADD12C,0.120000*%
%ADD13C,0.050000*%
%ADD14C,0.100000*%
G04 APERTURE END LIST*
D10*
X165100000Y-117348000D02*
X171450000Y-117348000D01*
X170078400Y-97028000D02*
X172780000Y-97028000D01*
X172780000Y-97028000D02*
X172780000Y-99678800D01*
X172780000Y-99678800D02*
X170078400Y-99678800D01*
X170078400Y-99678800D02*
X170078400Y-97028000D01*
X176022000Y-107442000D02*
X171450000Y-100076000D01*
X154940000Y-96520000D02*
X154940000Y-102869999D01*
X171450000Y-100076000D02*
X171450000Y-99120000D01*
X156464000Y-104902000D02*
X165100000Y-104902000D01*
X165100000Y-104902000D02*
X165100000Y-118110000D01*
X165100000Y-118110000D02*
X156464000Y-118110000D01*
X156464000Y-118110000D02*
X156464000Y-104902000D01*
X168910000Y-107442000D02*
X168910000Y-109795000D01*
X192218000Y-64333600D02*
X194919600Y-64333600D01*
X194919600Y-64333600D02*
X194919600Y-66984400D01*
X194919600Y-66984400D02*
X192218000Y-66984400D01*
X192218000Y-66984400D02*
X192218000Y-64333600D01*
X167559200Y-110490000D02*
X165100000Y-110490000D01*
X157480000Y-104140000D02*
X157480000Y-104902000D01*
X129438400Y-94945200D02*
X132140000Y-94945200D01*
X132140000Y-94945200D02*
X132140000Y-97596000D01*
X132140000Y-97596000D02*
X129438400Y-97596000D01*
X129438400Y-97596000D02*
X129438400Y-94945200D01*
X174498000Y-106553000D02*
X173482000Y-106553000D01*
X173990000Y-107061000D02*
X173990000Y-106045000D01*
X197806000Y-64333600D02*
X200507600Y-64333600D01*
X200507600Y-64333600D02*
X200507600Y-66984400D01*
X200507600Y-66984400D02*
X197806000Y-66984400D01*
X197806000Y-66984400D02*
X197806000Y-64333600D01*
X172618400Y-109169200D02*
X175320000Y-109169200D01*
X175320000Y-109169200D02*
X175320000Y-111820000D01*
X175320000Y-111820000D02*
X172618400Y-111820000D01*
X172618400Y-111820000D02*
X172618400Y-109169200D01*
X154940000Y-102869999D02*
X157480000Y-102870000D01*
X171390000Y-116027200D02*
X174091600Y-116027200D01*
X174091600Y-116027200D02*
X174091600Y-118678000D01*
X174091600Y-118678000D02*
X171390000Y-118678000D01*
X171390000Y-118678000D02*
X171390000Y-116027200D01*
X157480000Y-102870000D02*
X157480000Y-104140000D01*
X171450000Y-100076000D02*
X166878000Y-107442000D01*
X168910000Y-107018000D02*
X168910000Y-106002000D01*
X166878000Y-107442000D02*
X176022000Y-107442000D01*
X174091600Y-117352600D02*
X194411600Y-117357200D01*
X167538400Y-109169200D02*
X170240000Y-109169200D01*
X170240000Y-109169200D02*
X170240000Y-111820000D01*
X170240000Y-111820000D02*
X167538400Y-111820000D01*
X167538400Y-111820000D02*
X167538400Y-109169200D01*
X179324000Y-89916000D02*
X191516000Y-89916000D01*
X191516000Y-89916000D02*
X191516000Y-116332000D01*
X191516000Y-116332000D02*
X179324000Y-116332000D01*
X179324000Y-116332000D02*
X179324000Y-89916000D01*
X171429200Y-97028000D02*
X171450000Y-86360000D01*
X161874200Y-115510000D02*
X161874200Y-113914400D01*
X171450000Y-86360000D02*
X194183000Y-86360000D01*
X175310800Y-110490000D02*
X179324000Y-110490000D01*
X129429200Y-100401600D02*
X132130800Y-100401600D01*
X132130800Y-100401600D02*
X132130800Y-103052400D01*
X132130800Y-103052400D02*
X129429200Y-103052400D01*
X129429200Y-103052400D02*
X129429200Y-100401600D01*
X173990000Y-107442000D02*
X173990000Y-109795000D01*
X136548761Y-74635714D02*
X136596380Y-74492857D01*
X136596380Y-74254761D01*
X136548761Y-74159523D01*
X136501142Y-74111904D01*
X136405904Y-74064285D01*
X136310666Y-74064285D01*
X136215428Y-74111904D01*
X136167809Y-74159523D01*
X136120190Y-74254761D01*
X136072571Y-74445238D01*
X136024952Y-74540476D01*
X135977333Y-74588095D01*
X135882095Y-74635714D01*
X135786857Y-74635714D01*
X135691619Y-74588095D01*
X135644000Y-74540476D01*
X135596380Y-74445238D01*
X135596380Y-74207142D01*
X135644000Y-74064285D01*
X135929714Y-73207142D02*
X136596380Y-73207142D01*
X135929714Y-73635714D02*
X136453523Y-73635714D01*
X136548761Y-73588095D01*
X136596380Y-73492857D01*
X136596380Y-73350000D01*
X136548761Y-73254761D01*
X136501142Y-73207142D01*
X135929714Y-72730952D02*
X136929714Y-72730952D01*
X135977333Y-72730952D02*
X135929714Y-72635714D01*
X135929714Y-72445238D01*
X135977333Y-72350000D01*
X136024952Y-72302380D01*
X136120190Y-72254761D01*
X136405904Y-72254761D01*
X136501142Y-72302380D01*
X136548761Y-72350000D01*
X136596380Y-72445238D01*
X136596380Y-72635714D01*
X136548761Y-72730952D01*
X135929714Y-71826190D02*
X136929714Y-71826190D01*
X135977333Y-71826190D02*
X135929714Y-71730952D01*
X135929714Y-71540476D01*
X135977333Y-71445238D01*
X136024952Y-71397619D01*
X136120190Y-71350000D01*
X136405904Y-71350000D01*
X136501142Y-71397619D01*
X136548761Y-71445238D01*
X136596380Y-71540476D01*
X136596380Y-71730952D01*
X136548761Y-71826190D01*
X136596380Y-70778571D02*
X136548761Y-70873809D01*
X136501142Y-70921428D01*
X136405904Y-70969047D01*
X136120190Y-70969047D01*
X136024952Y-70921428D01*
X135977333Y-70873809D01*
X135929714Y-70778571D01*
X135929714Y-70635714D01*
X135977333Y-70540476D01*
X136024952Y-70492857D01*
X136120190Y-70445238D01*
X136405904Y-70445238D01*
X136501142Y-70492857D01*
X136548761Y-70540476D01*
X136596380Y-70635714D01*
X136596380Y-70778571D01*
X136596380Y-70016666D02*
X135929714Y-70016666D01*
X136120190Y-70016666D02*
X136024952Y-69969047D01*
X135977333Y-69921428D01*
X135929714Y-69826190D01*
X135929714Y-69730952D01*
X135929714Y-69540476D02*
X135929714Y-69159523D01*
X135596380Y-69397619D02*
X136453523Y-69397619D01*
X136548761Y-69350000D01*
X136596380Y-69254761D01*
X136596380Y-69159523D01*
X136548761Y-68445238D02*
X136596380Y-68540476D01*
X136596380Y-68730952D01*
X136548761Y-68826190D01*
X136453523Y-68873809D01*
X136072571Y-68873809D01*
X135977333Y-68826190D01*
X135929714Y-68730952D01*
X135929714Y-68540476D01*
X135977333Y-68445238D01*
X136072571Y-68397619D01*
X136167809Y-68397619D01*
X136263047Y-68873809D01*
X136596380Y-67540476D02*
X135596380Y-67540476D01*
X136548761Y-67540476D02*
X136596380Y-67635714D01*
X136596380Y-67826190D01*
X136548761Y-67921428D01*
X136501142Y-67969047D01*
X136405904Y-68016666D01*
X136120190Y-68016666D01*
X136024952Y-67969047D01*
X135977333Y-67921428D01*
X135929714Y-67826190D01*
X135929714Y-67635714D01*
X135977333Y-67540476D01*
X136596380Y-66302380D02*
X135596380Y-66302380D01*
X135977333Y-66302380D02*
X135929714Y-66207142D01*
X135929714Y-66016666D01*
X135977333Y-65921428D01*
X136024952Y-65873809D01*
X136120190Y-65826190D01*
X136405904Y-65826190D01*
X136501142Y-65873809D01*
X136548761Y-65921428D01*
X136596380Y-66016666D01*
X136596380Y-66207142D01*
X136548761Y-66302380D01*
X135929714Y-65492857D02*
X136596380Y-65254761D01*
X135929714Y-65016666D02*
X136596380Y-65254761D01*
X136834476Y-65350000D01*
X136882095Y-65397619D01*
X136929714Y-65492857D01*
D11*
X130024285Y-99738571D02*
X130024285Y-98238571D01*
X130738571Y-99738571D02*
X130738571Y-98238571D01*
X131595714Y-99738571D01*
X131595714Y-98238571D01*
D10*
X181951761Y-89098380D02*
X181380333Y-89098380D01*
X181666047Y-89098380D02*
X181666047Y-88098380D01*
X181570809Y-88241238D01*
X181475571Y-88336476D01*
X181380333Y-88384095D01*
X182332714Y-88193619D02*
X182380333Y-88146000D01*
X182475571Y-88098380D01*
X182713666Y-88098380D01*
X182808904Y-88146000D01*
X182856523Y-88193619D01*
X182904142Y-88288857D01*
X182904142Y-88384095D01*
X182856523Y-88526952D01*
X182285095Y-89098380D01*
X182904142Y-89098380D01*
X183332714Y-88717428D02*
X184094619Y-88717428D01*
X184570809Y-89098380D02*
X184570809Y-88098380D01*
X184570809Y-88479333D02*
X184666047Y-88431714D01*
X184856523Y-88431714D01*
X184951761Y-88479333D01*
X184999380Y-88526952D01*
X185047000Y-88622190D01*
X185047000Y-88907904D01*
X184999380Y-89003142D01*
X184951761Y-89050761D01*
X184856523Y-89098380D01*
X184666047Y-89098380D01*
X184570809Y-89050761D01*
X185475571Y-89098380D02*
X185475571Y-88431714D01*
X185475571Y-88098380D02*
X185427952Y-88146000D01*
X185475571Y-88193619D01*
X185523190Y-88146000D01*
X185475571Y-88098380D01*
X185475571Y-88193619D01*
X185808904Y-88431714D02*
X186189857Y-88431714D01*
X185951761Y-88098380D02*
X185951761Y-88955523D01*
X185999380Y-89050761D01*
X186094619Y-89098380D01*
X186189857Y-89098380D01*
X187285095Y-89098380D02*
X187285095Y-88098380D01*
X187523190Y-88098380D01*
X187666047Y-88146000D01*
X187761285Y-88241238D01*
X187808904Y-88336476D01*
X187856523Y-88526952D01*
X187856523Y-88669809D01*
X187808904Y-88860285D01*
X187761285Y-88955523D01*
X187666047Y-89050761D01*
X187523190Y-89098380D01*
X187285095Y-89098380D01*
X188237476Y-88812666D02*
X188713666Y-88812666D01*
X188142238Y-89098380D02*
X188475571Y-88098380D01*
X188808904Y-89098380D01*
X189713666Y-89003142D02*
X189666047Y-89050761D01*
X189523190Y-89098380D01*
X189427952Y-89098380D01*
X189285095Y-89050761D01*
X189189857Y-88955523D01*
X189142238Y-88860285D01*
X189094619Y-88669809D01*
X189094619Y-88526952D01*
X189142238Y-88336476D01*
X189189857Y-88241238D01*
X189285095Y-88146000D01*
X189427952Y-88098380D01*
X189523190Y-88098380D01*
X189666047Y-88146000D01*
X189713666Y-88193619D01*
X136517285Y-97039180D02*
X136517285Y-97753466D01*
X136469666Y-97896323D01*
X136374428Y-97991561D01*
X136231571Y-98039180D01*
X136136333Y-98039180D01*
X136993476Y-98039180D02*
X136993476Y-97039180D01*
X137374428Y-97039180D01*
X137469666Y-97086800D01*
X137517285Y-97134419D01*
X137564904Y-97229657D01*
X137564904Y-97372514D01*
X137517285Y-97467752D01*
X137469666Y-97515371D01*
X137374428Y-97562990D01*
X136993476Y-97562990D01*
X137945857Y-97134419D02*
X137993476Y-97086800D01*
X138088714Y-97039180D01*
X138326809Y-97039180D01*
X138422047Y-97086800D01*
X138469666Y-97134419D01*
X138517285Y-97229657D01*
X138517285Y-97324895D01*
X138469666Y-97467752D01*
X137898238Y-98039180D01*
X138517285Y-98039180D01*
X139136333Y-97039180D02*
X139231571Y-97039180D01*
X139326809Y-97086800D01*
X139374428Y-97134419D01*
X139422047Y-97229657D01*
X139469666Y-97420133D01*
X139469666Y-97658228D01*
X139422047Y-97848704D01*
X139374428Y-97943942D01*
X139326809Y-97991561D01*
X139231571Y-98039180D01*
X139136333Y-98039180D01*
X139041095Y-97991561D01*
X138993476Y-97943942D01*
X138945857Y-97848704D01*
X138898238Y-97658228D01*
X138898238Y-97420133D01*
X138945857Y-97229657D01*
X138993476Y-97134419D01*
X139041095Y-97086800D01*
X139136333Y-97039180D01*
X140422047Y-98039180D02*
X139850619Y-98039180D01*
X140136333Y-98039180D02*
X140136333Y-97039180D01*
X140041095Y-97182038D01*
X139945857Y-97277276D01*
X139850619Y-97324895D01*
X174696380Y-71921428D02*
X173696380Y-71921428D01*
X173696380Y-71683333D01*
X173744000Y-71540476D01*
X173839238Y-71445238D01*
X173934476Y-71397619D01*
X174124952Y-71350000D01*
X174267809Y-71350000D01*
X174458285Y-71397619D01*
X174553523Y-71445238D01*
X174648761Y-71540476D01*
X174696380Y-71683333D01*
X174696380Y-71921428D01*
X174696380Y-70921428D02*
X174029714Y-70921428D01*
X174220190Y-70921428D02*
X174124952Y-70873809D01*
X174077333Y-70826190D01*
X174029714Y-70730952D01*
X174029714Y-70635714D01*
X174696380Y-70302380D02*
X174029714Y-70302380D01*
X173696380Y-70302380D02*
X173744000Y-70350000D01*
X173791619Y-70302380D01*
X173744000Y-70254761D01*
X173696380Y-70302380D01*
X173791619Y-70302380D01*
X174029714Y-69826190D02*
X174696380Y-69826190D01*
X174124952Y-69826190D02*
X174077333Y-69778571D01*
X174029714Y-69683333D01*
X174029714Y-69540476D01*
X174077333Y-69445238D01*
X174172571Y-69397619D01*
X174696380Y-69397619D01*
X174696380Y-68921428D02*
X173696380Y-68921428D01*
X174315428Y-68826190D02*
X174696380Y-68540476D01*
X174029714Y-68540476D02*
X174410666Y-68921428D01*
X174648761Y-68159523D02*
X174696380Y-68064285D01*
X174696380Y-67873809D01*
X174648761Y-67778571D01*
X174553523Y-67730952D01*
X174505904Y-67730952D01*
X174410666Y-67778571D01*
X174363047Y-67873809D01*
X174363047Y-68016666D01*
X174315428Y-68111904D01*
X174220190Y-68159523D01*
X174172571Y-68159523D01*
X174077333Y-68111904D01*
X174029714Y-68016666D01*
X174029714Y-67873809D01*
X174077333Y-67778571D01*
X161472571Y-71921428D02*
X161520190Y-71778571D01*
X161567809Y-71730952D01*
X161663047Y-71683333D01*
X161805904Y-71683333D01*
X161901142Y-71730952D01*
X161948761Y-71778571D01*
X161996380Y-71873809D01*
X161996380Y-72254761D01*
X160996380Y-72254761D01*
X160996380Y-71921428D01*
X161044000Y-71826190D01*
X161091619Y-71778571D01*
X161186857Y-71730952D01*
X161282095Y-71730952D01*
X161377333Y-71778571D01*
X161424952Y-71826190D01*
X161472571Y-71921428D01*
X161472571Y-72254761D01*
X161996380Y-71254761D02*
X161329714Y-71254761D01*
X161520190Y-71254761D02*
X161424952Y-71207142D01*
X161377333Y-71159523D01*
X161329714Y-71064285D01*
X161329714Y-70969047D01*
X161948761Y-70254761D02*
X161996380Y-70350000D01*
X161996380Y-70540476D01*
X161948761Y-70635714D01*
X161853523Y-70683333D01*
X161472571Y-70683333D01*
X161377333Y-70635714D01*
X161329714Y-70540476D01*
X161329714Y-70350000D01*
X161377333Y-70254761D01*
X161472571Y-70207142D01*
X161567809Y-70207142D01*
X161663047Y-70683333D01*
X161329714Y-69873809D02*
X161996380Y-69683333D01*
X161520190Y-69492857D01*
X161996380Y-69302380D01*
X161329714Y-69111904D01*
X161948761Y-68350000D02*
X161996380Y-68445238D01*
X161996380Y-68635714D01*
X161948761Y-68730952D01*
X161853523Y-68778571D01*
X161472571Y-68778571D01*
X161377333Y-68730952D01*
X161329714Y-68635714D01*
X161329714Y-68445238D01*
X161377333Y-68350000D01*
X161472571Y-68302380D01*
X161567809Y-68302380D01*
X161663047Y-68778571D01*
X161996380Y-67445238D02*
X160996380Y-67445238D01*
X161948761Y-67445238D02*
X161996380Y-67540476D01*
X161996380Y-67730952D01*
X161948761Y-67826190D01*
X161901142Y-67873809D01*
X161805904Y-67921428D01*
X161520190Y-67921428D01*
X161424952Y-67873809D01*
X161377333Y-67826190D01*
X161329714Y-67730952D01*
X161329714Y-67540476D01*
X161377333Y-67445238D01*
X136899828Y-99766380D02*
X136328400Y-99766380D01*
X136614114Y-99766380D02*
X136614114Y-98766380D01*
X136518876Y-98909238D01*
X136423638Y-99004476D01*
X136328400Y-99052095D01*
X138042685Y-98861619D02*
X138090304Y-98814000D01*
X138185542Y-98766380D01*
X138423638Y-98766380D01*
X138518876Y-98814000D01*
X138566495Y-98861619D01*
X138614114Y-98956857D01*
X138614114Y-99052095D01*
X138566495Y-99194952D01*
X137995066Y-99766380D01*
X138614114Y-99766380D01*
X139709352Y-98766380D02*
X140328400Y-98766380D01*
X139995066Y-99147333D01*
X140137923Y-99147333D01*
X140233161Y-99194952D01*
X140280780Y-99242571D01*
X140328400Y-99337809D01*
X140328400Y-99575904D01*
X140280780Y-99671142D01*
X140233161Y-99718761D01*
X140137923Y-99766380D01*
X139852209Y-99766380D01*
X139756971Y-99718761D01*
X139709352Y-99671142D01*
D11*
X172204285Y-114216571D02*
X172204285Y-112716571D01*
X172561428Y-112716571D01*
X172775714Y-112788000D01*
X172918571Y-112930857D01*
X172990000Y-113073714D01*
X173061428Y-113359428D01*
X173061428Y-113573714D01*
X172990000Y-113859428D01*
X172918571Y-114002285D01*
X172775714Y-114145142D01*
X172561428Y-114216571D01*
X172204285Y-114216571D01*
X173632857Y-113788000D02*
X174347142Y-113788000D01*
X173490000Y-114216571D02*
X173990000Y-112716571D01*
X174490000Y-114216571D01*
X175847142Y-114073714D02*
X175775714Y-114145142D01*
X175561428Y-114216571D01*
X175418571Y-114216571D01*
X175204285Y-114145142D01*
X175061428Y-114002285D01*
X174990000Y-113859428D01*
X174918571Y-113573714D01*
X174918571Y-113359428D01*
X174990000Y-113073714D01*
X175061428Y-112930857D01*
X175204285Y-112788000D01*
X175418571Y-112716571D01*
X175561428Y-112716571D01*
X175775714Y-112788000D01*
X175847142Y-112859428D01*
X197278857Y-62170571D02*
X198207428Y-62170571D01*
X197707428Y-62742000D01*
X197921714Y-62742000D01*
X198064571Y-62813428D01*
X198136000Y-62884857D01*
X198207428Y-63027714D01*
X198207428Y-63384857D01*
X198136000Y-63527714D01*
X198064571Y-63599142D01*
X197921714Y-63670571D01*
X197493142Y-63670571D01*
X197350285Y-63599142D01*
X197278857Y-63527714D01*
X198636000Y-62170571D02*
X199136000Y-63670571D01*
X199636000Y-62170571D01*
X199993142Y-62170571D02*
X200921714Y-62170571D01*
X200421714Y-62742000D01*
X200636000Y-62742000D01*
X200778857Y-62813428D01*
X200850285Y-62884857D01*
X200921714Y-63027714D01*
X200921714Y-63384857D01*
X200850285Y-63527714D01*
X200778857Y-63599142D01*
X200636000Y-63670571D01*
X200207428Y-63670571D01*
X200064571Y-63599142D01*
X199993142Y-63527714D01*
X130175142Y-92722000D02*
X130032285Y-92650571D01*
X129818000Y-92650571D01*
X129603714Y-92722000D01*
X129460857Y-92864857D01*
X129389428Y-93007714D01*
X129318000Y-93293428D01*
X129318000Y-93507714D01*
X129389428Y-93793428D01*
X129460857Y-93936285D01*
X129603714Y-94079142D01*
X129818000Y-94150571D01*
X129960857Y-94150571D01*
X130175142Y-94079142D01*
X130246571Y-94007714D01*
X130246571Y-93507714D01*
X129960857Y-93507714D01*
X130889428Y-94150571D02*
X130889428Y-92650571D01*
X131746571Y-94150571D01*
X131746571Y-92650571D01*
X132460857Y-94150571D02*
X132460857Y-92650571D01*
X132818000Y-92650571D01*
X133032285Y-92722000D01*
X133175142Y-92864857D01*
X133246571Y-93007714D01*
X133318000Y-93293428D01*
X133318000Y-93507714D01*
X133246571Y-93793428D01*
X133175142Y-93936285D01*
X133032285Y-94079142D01*
X132818000Y-94150571D01*
X132460857Y-94150571D01*
X133082476Y-82487142D02*
X133749142Y-82487142D01*
X134034857Y-83534761D02*
X133082476Y-83534761D01*
X133082476Y-81534761D01*
X134034857Y-81534761D01*
X135177714Y-83534761D02*
X134987238Y-83439523D01*
X134892000Y-83249047D01*
X134892000Y-81534761D01*
X136701523Y-83439523D02*
X136511047Y-83534761D01*
X136130095Y-83534761D01*
X135939619Y-83439523D01*
X135844380Y-83249047D01*
X135844380Y-82487142D01*
X135939619Y-82296666D01*
X136130095Y-82201428D01*
X136511047Y-82201428D01*
X136701523Y-82296666D01*
X136796761Y-82487142D01*
X136796761Y-82677619D01*
X135844380Y-82868095D01*
X137653904Y-83534761D02*
X137653904Y-81534761D01*
X137844380Y-82772857D02*
X138415809Y-83534761D01*
X138415809Y-82201428D02*
X137653904Y-82963333D01*
X138987238Y-82201428D02*
X139749142Y-82201428D01*
X139272952Y-81534761D02*
X139272952Y-83249047D01*
X139368190Y-83439523D01*
X139558666Y-83534761D01*
X139749142Y-83534761D01*
X140415809Y-83534761D02*
X140415809Y-82201428D01*
X140415809Y-82582380D02*
X140511047Y-82391904D01*
X140606285Y-82296666D01*
X140796761Y-82201428D01*
X140987238Y-82201428D01*
X141939619Y-83534761D02*
X141749142Y-83439523D01*
X141653904Y-83344285D01*
X141558666Y-83153809D01*
X141558666Y-82582380D01*
X141653904Y-82391904D01*
X141749142Y-82296666D01*
X141939619Y-82201428D01*
X142225333Y-82201428D01*
X142415809Y-82296666D01*
X142511047Y-82391904D01*
X142606285Y-82582380D01*
X142606285Y-83153809D01*
X142511047Y-83344285D01*
X142415809Y-83439523D01*
X142225333Y-83534761D01*
X141939619Y-83534761D01*
X143463428Y-82201428D02*
X143463428Y-83534761D01*
X143463428Y-82391904D02*
X143558666Y-82296666D01*
X143749142Y-82201428D01*
X144034857Y-82201428D01*
X144225333Y-82296666D01*
X144320571Y-82487142D01*
X144320571Y-83534761D01*
X145272952Y-83534761D02*
X145272952Y-82201428D01*
X145272952Y-81534761D02*
X145177714Y-81630000D01*
X145272952Y-81725238D01*
X145368190Y-81630000D01*
X145272952Y-81534761D01*
X145272952Y-81725238D01*
X146225333Y-83534761D02*
X146225333Y-81534761D01*
X146415809Y-82772857D02*
X146987238Y-83534761D01*
X146987238Y-82201428D02*
X146225333Y-82963333D01*
X149177714Y-81534761D02*
X150415809Y-81534761D01*
X149749142Y-82296666D01*
X150034857Y-82296666D01*
X150225333Y-82391904D01*
X150320571Y-82487142D01*
X150415809Y-82677619D01*
X150415809Y-83153809D01*
X150320571Y-83344285D01*
X150225333Y-83439523D01*
X150034857Y-83534761D01*
X149463428Y-83534761D01*
X149272952Y-83439523D01*
X149177714Y-83344285D01*
X152796761Y-82772857D02*
X154320571Y-82772857D01*
X156796761Y-83534761D02*
X156796761Y-81534761D01*
X157558666Y-81534761D01*
X157749142Y-81630000D01*
X157844380Y-81725238D01*
X157939619Y-81915714D01*
X157939619Y-82201428D01*
X157844380Y-82391904D01*
X157749142Y-82487142D01*
X157558666Y-82582380D01*
X156796761Y-82582380D01*
X158796761Y-83534761D02*
X158796761Y-82201428D01*
X158796761Y-82582380D02*
X158892000Y-82391904D01*
X158987238Y-82296666D01*
X159177714Y-82201428D01*
X159368190Y-82201428D01*
X160892000Y-83534761D02*
X160892000Y-82487142D01*
X160796761Y-82296666D01*
X160606285Y-82201428D01*
X160225333Y-82201428D01*
X160034857Y-82296666D01*
X160892000Y-83439523D02*
X160701523Y-83534761D01*
X160225333Y-83534761D01*
X160034857Y-83439523D01*
X159939619Y-83249047D01*
X159939619Y-83058571D01*
X160034857Y-82868095D01*
X160225333Y-82772857D01*
X160701523Y-82772857D01*
X160892000Y-82677619D01*
X161844380Y-83534761D02*
X161844380Y-81534761D01*
X162034857Y-82772857D02*
X162606285Y-83534761D01*
X162606285Y-82201428D02*
X161844380Y-82963333D01*
X163177714Y-82201428D02*
X163939619Y-82201428D01*
X163463428Y-81534761D02*
X163463428Y-83249047D01*
X163558666Y-83439523D01*
X163749142Y-83534761D01*
X163939619Y-83534761D01*
X164606285Y-83534761D02*
X164606285Y-82201428D01*
X164606285Y-81534761D02*
X164511047Y-81630000D01*
X164606285Y-81725238D01*
X164701523Y-81630000D01*
X164606285Y-81534761D01*
X164606285Y-81725238D01*
X165558666Y-83534761D02*
X165558666Y-81534761D01*
X165749142Y-82772857D02*
X166320571Y-83534761D01*
X166320571Y-82201428D02*
X165558666Y-82963333D01*
X168034857Y-82201428D02*
X168034857Y-83534761D01*
X167177714Y-82201428D02*
X167177714Y-83249047D01*
X167272952Y-83439523D01*
X167463428Y-83534761D01*
X167749142Y-83534761D01*
X167939619Y-83439523D01*
X168034857Y-83344285D01*
X168987238Y-83534761D02*
X168987238Y-82201428D01*
X168987238Y-82391904D02*
X169082476Y-82296666D01*
X169272952Y-82201428D01*
X169558666Y-82201428D01*
X169749142Y-82296666D01*
X169844380Y-82487142D01*
X169844380Y-83534761D01*
X169844380Y-82487142D02*
X169939619Y-82296666D01*
X170130095Y-82201428D01*
X170415809Y-82201428D01*
X170606285Y-82296666D01*
X170701523Y-82487142D01*
X170701523Y-83534761D01*
D10*
X161028380Y-102215761D02*
X161171238Y-102263380D01*
X161409333Y-102263380D01*
X161504571Y-102215761D01*
X161552190Y-102168142D01*
X161599809Y-102072904D01*
X161599809Y-101977666D01*
X161552190Y-101882428D01*
X161504571Y-101834809D01*
X161409333Y-101787190D01*
X161218857Y-101739571D01*
X161123619Y-101691952D01*
X161076000Y-101644333D01*
X161028380Y-101549095D01*
X161028380Y-101453857D01*
X161076000Y-101358619D01*
X161123619Y-101311000D01*
X161218857Y-101263380D01*
X161456952Y-101263380D01*
X161599809Y-101311000D01*
X162456952Y-102263380D02*
X162456952Y-101739571D01*
X162409333Y-101644333D01*
X162314095Y-101596714D01*
X162123619Y-101596714D01*
X162028380Y-101644333D01*
X162456952Y-102215761D02*
X162361714Y-102263380D01*
X162123619Y-102263380D01*
X162028380Y-102215761D01*
X161980761Y-102120523D01*
X161980761Y-102025285D01*
X162028380Y-101930047D01*
X162123619Y-101882428D01*
X162361714Y-101882428D01*
X162456952Y-101834809D01*
X162933142Y-102263380D02*
X162933142Y-101596714D01*
X162933142Y-101691952D02*
X162980761Y-101644333D01*
X163076000Y-101596714D01*
X163218857Y-101596714D01*
X163314095Y-101644333D01*
X163361714Y-101739571D01*
X163361714Y-102263380D01*
X163361714Y-101739571D02*
X163409333Y-101644333D01*
X163504571Y-101596714D01*
X163647428Y-101596714D01*
X163742666Y-101644333D01*
X163790285Y-101739571D01*
X163790285Y-102263380D01*
X164266476Y-101596714D02*
X164266476Y-102596714D01*
X164266476Y-101644333D02*
X164361714Y-101596714D01*
X164552190Y-101596714D01*
X164647428Y-101644333D01*
X164695047Y-101691952D01*
X164742666Y-101787190D01*
X164742666Y-102072904D01*
X164695047Y-102168142D01*
X164647428Y-102215761D01*
X164552190Y-102263380D01*
X164361714Y-102263380D01*
X164266476Y-102215761D01*
X165314095Y-102263380D02*
X165218857Y-102215761D01*
X165171238Y-102120523D01*
X165171238Y-101263380D01*
X166076000Y-102215761D02*
X165980761Y-102263380D01*
X165790285Y-102263380D01*
X165695047Y-102215761D01*
X165647428Y-102120523D01*
X165647428Y-101739571D01*
X165695047Y-101644333D01*
X165790285Y-101596714D01*
X165980761Y-101596714D01*
X166076000Y-101644333D01*
X166123619Y-101739571D01*
X166123619Y-101834809D01*
X165647428Y-101930047D01*
X160814095Y-103873380D02*
X160814095Y-103349571D01*
X160766476Y-103254333D01*
X160671238Y-103206714D01*
X160480761Y-103206714D01*
X160385523Y-103254333D01*
X160814095Y-103825761D02*
X160718857Y-103873380D01*
X160480761Y-103873380D01*
X160385523Y-103825761D01*
X160337904Y-103730523D01*
X160337904Y-103635285D01*
X160385523Y-103540047D01*
X160480761Y-103492428D01*
X160718857Y-103492428D01*
X160814095Y-103444809D01*
X161290285Y-103206714D02*
X161290285Y-103873380D01*
X161290285Y-103301952D02*
X161337904Y-103254333D01*
X161433142Y-103206714D01*
X161576000Y-103206714D01*
X161671238Y-103254333D01*
X161718857Y-103349571D01*
X161718857Y-103873380D01*
X162623619Y-103873380D02*
X162623619Y-102873380D01*
X162623619Y-103825761D02*
X162528380Y-103873380D01*
X162337904Y-103873380D01*
X162242666Y-103825761D01*
X162195047Y-103778142D01*
X162147428Y-103682904D01*
X162147428Y-103397190D01*
X162195047Y-103301952D01*
X162242666Y-103254333D01*
X162337904Y-103206714D01*
X162528380Y-103206714D01*
X162623619Y-103254333D01*
X163861714Y-103873380D02*
X163861714Y-102873380D01*
X163861714Y-103349571D02*
X164433142Y-103349571D01*
X164433142Y-103873380D02*
X164433142Y-102873380D01*
X165052190Y-103873380D02*
X164956952Y-103825761D01*
X164909333Y-103778142D01*
X164861714Y-103682904D01*
X164861714Y-103397190D01*
X164909333Y-103301952D01*
X164956952Y-103254333D01*
X165052190Y-103206714D01*
X165195047Y-103206714D01*
X165290285Y-103254333D01*
X165337904Y-103301952D01*
X165385523Y-103397190D01*
X165385523Y-103682904D01*
X165337904Y-103778142D01*
X165290285Y-103825761D01*
X165195047Y-103873380D01*
X165052190Y-103873380D01*
X165956952Y-103873380D02*
X165861714Y-103825761D01*
X165814095Y-103730523D01*
X165814095Y-102873380D01*
X166766476Y-103873380D02*
X166766476Y-102873380D01*
X166766476Y-103825761D02*
X166671238Y-103873380D01*
X166480761Y-103873380D01*
X166385523Y-103825761D01*
X166337904Y-103778142D01*
X166290285Y-103682904D01*
X166290285Y-103397190D01*
X166337904Y-103301952D01*
X166385523Y-103254333D01*
X166480761Y-103206714D01*
X166671238Y-103206714D01*
X166766476Y-103254333D01*
D11*
X167624285Y-116685142D02*
X167838571Y-116756571D01*
X168195714Y-116756571D01*
X168338571Y-116685142D01*
X168410000Y-116613714D01*
X168481428Y-116470857D01*
X168481428Y-116328000D01*
X168410000Y-116185142D01*
X168338571Y-116113714D01*
X168195714Y-116042285D01*
X167910000Y-115970857D01*
X167767142Y-115899428D01*
X167695714Y-115828000D01*
X167624285Y-115685142D01*
X167624285Y-115542285D01*
X167695714Y-115399428D01*
X167767142Y-115328000D01*
X167910000Y-115256571D01*
X168267142Y-115256571D01*
X168481428Y-115328000D01*
X168981428Y-115256571D02*
X169338571Y-116756571D01*
X169624285Y-115685142D01*
X169910000Y-116756571D01*
X170267142Y-115256571D01*
X167806857Y-114216571D02*
X167806857Y-112716571D01*
X168521142Y-114216571D02*
X168521142Y-112716571D01*
X169378285Y-114216571D01*
X169378285Y-112716571D01*
X170306857Y-112716571D02*
X170306857Y-113073714D01*
X169949714Y-112930857D02*
X170306857Y-113073714D01*
X170664000Y-112930857D01*
X170092571Y-113359428D02*
X170306857Y-113073714D01*
X170521142Y-113359428D01*
D10*
X148772571Y-73230952D02*
X148820190Y-73088095D01*
X148867809Y-73040476D01*
X148963047Y-72992857D01*
X149105904Y-72992857D01*
X149201142Y-73040476D01*
X149248761Y-73088095D01*
X149296380Y-73183333D01*
X149296380Y-73564285D01*
X148296380Y-73564285D01*
X148296380Y-73230952D01*
X148344000Y-73135714D01*
X148391619Y-73088095D01*
X148486857Y-73040476D01*
X148582095Y-73040476D01*
X148677333Y-73088095D01*
X148724952Y-73135714D01*
X148772571Y-73230952D01*
X148772571Y-73564285D01*
X148629714Y-72135714D02*
X149296380Y-72135714D01*
X148629714Y-72564285D02*
X149153523Y-72564285D01*
X149248761Y-72516666D01*
X149296380Y-72421428D01*
X149296380Y-72278571D01*
X149248761Y-72183333D01*
X149201142Y-72135714D01*
X148629714Y-71659523D02*
X149296380Y-71659523D01*
X148724952Y-71659523D02*
X148677333Y-71611904D01*
X148629714Y-71516666D01*
X148629714Y-71373809D01*
X148677333Y-71278571D01*
X148772571Y-71230952D01*
X149296380Y-71230952D01*
X149296380Y-70326190D02*
X148296380Y-70326190D01*
X149248761Y-70326190D02*
X149296380Y-70421428D01*
X149296380Y-70611904D01*
X149248761Y-70707142D01*
X149201142Y-70754761D01*
X149105904Y-70802380D01*
X148820190Y-70802380D01*
X148724952Y-70754761D01*
X148677333Y-70707142D01*
X148629714Y-70611904D01*
X148629714Y-70421428D01*
X148677333Y-70326190D01*
X149296380Y-69421428D02*
X148772571Y-69421428D01*
X148677333Y-69469047D01*
X148629714Y-69564285D01*
X148629714Y-69754761D01*
X148677333Y-69850000D01*
X149248761Y-69421428D02*
X149296380Y-69516666D01*
X149296380Y-69754761D01*
X149248761Y-69850000D01*
X149153523Y-69897619D01*
X149058285Y-69897619D01*
X148963047Y-69850000D01*
X148915428Y-69754761D01*
X148915428Y-69516666D01*
X148867809Y-69421428D01*
X149296380Y-68945238D02*
X148296380Y-68945238D01*
X148677333Y-68945238D02*
X148629714Y-68850000D01*
X148629714Y-68659523D01*
X148677333Y-68564285D01*
X148724952Y-68516666D01*
X148820190Y-68469047D01*
X149105904Y-68469047D01*
X149201142Y-68516666D01*
X149248761Y-68564285D01*
X149296380Y-68659523D01*
X149296380Y-68850000D01*
X149248761Y-68945238D01*
X149248761Y-67659523D02*
X149296380Y-67754761D01*
X149296380Y-67945238D01*
X149248761Y-68040476D01*
X149153523Y-68088095D01*
X148772571Y-68088095D01*
X148677333Y-68040476D01*
X148629714Y-67945238D01*
X148629714Y-67754761D01*
X148677333Y-67659523D01*
X148772571Y-67611904D01*
X148867809Y-67611904D01*
X148963047Y-68088095D01*
X149296380Y-67183333D02*
X148629714Y-67183333D01*
X148820190Y-67183333D02*
X148724952Y-67135714D01*
X148677333Y-67088095D01*
X148629714Y-66992857D01*
X148629714Y-66897619D01*
X148629714Y-66135714D02*
X149439238Y-66135714D01*
X149534476Y-66183333D01*
X149582095Y-66230952D01*
X149629714Y-66326190D01*
X149629714Y-66469047D01*
X149582095Y-66564285D01*
X149248761Y-66135714D02*
X149296380Y-66230952D01*
X149296380Y-66421428D01*
X149248761Y-66516666D01*
X149201142Y-66564285D01*
X149105904Y-66611904D01*
X148820190Y-66611904D01*
X148724952Y-66564285D01*
X148677333Y-66516666D01*
X148629714Y-66421428D01*
X148629714Y-66230952D01*
X148677333Y-66135714D01*
D11*
X192405142Y-62242000D02*
X192262285Y-62170571D01*
X192048000Y-62170571D01*
X191833714Y-62242000D01*
X191690857Y-62384857D01*
X191619428Y-62527714D01*
X191548000Y-62813428D01*
X191548000Y-63027714D01*
X191619428Y-63313428D01*
X191690857Y-63456285D01*
X191833714Y-63599142D01*
X192048000Y-63670571D01*
X192190857Y-63670571D01*
X192405142Y-63599142D01*
X192476571Y-63527714D01*
X192476571Y-63027714D01*
X192190857Y-63027714D01*
X193119428Y-63670571D02*
X193119428Y-62170571D01*
X193976571Y-63670571D01*
X193976571Y-62170571D01*
X194690857Y-63670571D02*
X194690857Y-62170571D01*
X195048000Y-62170571D01*
X195262285Y-62242000D01*
X195405142Y-62384857D01*
X195476571Y-62527714D01*
X195548000Y-62813428D01*
X195548000Y-63027714D01*
X195476571Y-63313428D01*
X195405142Y-63456285D01*
X195262285Y-63599142D01*
X195048000Y-63670571D01*
X194690857Y-63670571D01*
D10*
%TO.C,U502*%
X160210714Y-62952380D02*
X160210714Y-63761904D01*
X160258333Y-63857142D01*
X160305952Y-63904761D01*
X160401190Y-63952380D01*
X160591666Y-63952380D01*
X160686904Y-63904761D01*
X160734523Y-63857142D01*
X160782142Y-63761904D01*
X160782142Y-62952380D01*
X161734523Y-62952380D02*
X161258333Y-62952380D01*
X161210714Y-63428571D01*
X161258333Y-63380952D01*
X161353571Y-63333333D01*
X161591666Y-63333333D01*
X161686904Y-63380952D01*
X161734523Y-63428571D01*
X161782142Y-63523809D01*
X161782142Y-63761904D01*
X161734523Y-63857142D01*
X161686904Y-63904761D01*
X161591666Y-63952380D01*
X161353571Y-63952380D01*
X161258333Y-63904761D01*
X161210714Y-63857142D01*
X162401190Y-62952380D02*
X162496428Y-62952380D01*
X162591666Y-63000000D01*
X162639285Y-63047619D01*
X162686904Y-63142857D01*
X162734523Y-63333333D01*
X162734523Y-63571428D01*
X162686904Y-63761904D01*
X162639285Y-63857142D01*
X162591666Y-63904761D01*
X162496428Y-63952380D01*
X162401190Y-63952380D01*
X162305952Y-63904761D01*
X162258333Y-63857142D01*
X162210714Y-63761904D01*
X162163095Y-63571428D01*
X162163095Y-63333333D01*
X162210714Y-63142857D01*
X162258333Y-63047619D01*
X162305952Y-63000000D01*
X162401190Y-62952380D01*
X163115476Y-63047619D02*
X163163095Y-63000000D01*
X163258333Y-62952380D01*
X163496428Y-62952380D01*
X163591666Y-63000000D01*
X163639285Y-63047619D01*
X163686904Y-63142857D01*
X163686904Y-63238095D01*
X163639285Y-63380952D01*
X163067857Y-63952380D01*
X163686904Y-63952380D01*
%TO.C,U302*%
X134810714Y-62952380D02*
X134810714Y-63761904D01*
X134858333Y-63857142D01*
X134905952Y-63904761D01*
X135001190Y-63952380D01*
X135191666Y-63952380D01*
X135286904Y-63904761D01*
X135334523Y-63857142D01*
X135382142Y-63761904D01*
X135382142Y-62952380D01*
X135763095Y-62952380D02*
X136382142Y-62952380D01*
X136048809Y-63333333D01*
X136191666Y-63333333D01*
X136286904Y-63380952D01*
X136334523Y-63428571D01*
X136382142Y-63523809D01*
X136382142Y-63761904D01*
X136334523Y-63857142D01*
X136286904Y-63904761D01*
X136191666Y-63952380D01*
X135905952Y-63952380D01*
X135810714Y-63904761D01*
X135763095Y-63857142D01*
X137001190Y-62952380D02*
X137096428Y-62952380D01*
X137191666Y-63000000D01*
X137239285Y-63047619D01*
X137286904Y-63142857D01*
X137334523Y-63333333D01*
X137334523Y-63571428D01*
X137286904Y-63761904D01*
X137239285Y-63857142D01*
X137191666Y-63904761D01*
X137096428Y-63952380D01*
X137001190Y-63952380D01*
X136905952Y-63904761D01*
X136858333Y-63857142D01*
X136810714Y-63761904D01*
X136763095Y-63571428D01*
X136763095Y-63333333D01*
X136810714Y-63142857D01*
X136858333Y-63047619D01*
X136905952Y-63000000D01*
X137001190Y-62952380D01*
X137715476Y-63047619D02*
X137763095Y-63000000D01*
X137858333Y-62952380D01*
X138096428Y-62952380D01*
X138191666Y-63000000D01*
X138239285Y-63047619D01*
X138286904Y-63142857D01*
X138286904Y-63238095D01*
X138239285Y-63380952D01*
X137667857Y-63952380D01*
X138286904Y-63952380D01*
%TO.C,U402*%
X147510714Y-62952380D02*
X147510714Y-63761904D01*
X147558333Y-63857142D01*
X147605952Y-63904761D01*
X147701190Y-63952380D01*
X147891666Y-63952380D01*
X147986904Y-63904761D01*
X148034523Y-63857142D01*
X148082142Y-63761904D01*
X148082142Y-62952380D01*
X148986904Y-63285714D02*
X148986904Y-63952380D01*
X148748809Y-62904761D02*
X148510714Y-63619047D01*
X149129761Y-63619047D01*
X149701190Y-62952380D02*
X149796428Y-62952380D01*
X149891666Y-63000000D01*
X149939285Y-63047619D01*
X149986904Y-63142857D01*
X150034523Y-63333333D01*
X150034523Y-63571428D01*
X149986904Y-63761904D01*
X149939285Y-63857142D01*
X149891666Y-63904761D01*
X149796428Y-63952380D01*
X149701190Y-63952380D01*
X149605952Y-63904761D01*
X149558333Y-63857142D01*
X149510714Y-63761904D01*
X149463095Y-63571428D01*
X149463095Y-63333333D01*
X149510714Y-63142857D01*
X149558333Y-63047619D01*
X149605952Y-63000000D01*
X149701190Y-62952380D01*
X150415476Y-63047619D02*
X150463095Y-63000000D01*
X150558333Y-62952380D01*
X150796428Y-62952380D01*
X150891666Y-63000000D01*
X150939285Y-63047619D01*
X150986904Y-63142857D01*
X150986904Y-63238095D01*
X150939285Y-63380952D01*
X150367857Y-63952380D01*
X150986904Y-63952380D01*
%TO.C,U602*%
X172910714Y-62952380D02*
X172910714Y-63761904D01*
X172958333Y-63857142D01*
X173005952Y-63904761D01*
X173101190Y-63952380D01*
X173291666Y-63952380D01*
X173386904Y-63904761D01*
X173434523Y-63857142D01*
X173482142Y-63761904D01*
X173482142Y-62952380D01*
X174386904Y-62952380D02*
X174196428Y-62952380D01*
X174101190Y-63000000D01*
X174053571Y-63047619D01*
X173958333Y-63190476D01*
X173910714Y-63380952D01*
X173910714Y-63761904D01*
X173958333Y-63857142D01*
X174005952Y-63904761D01*
X174101190Y-63952380D01*
X174291666Y-63952380D01*
X174386904Y-63904761D01*
X174434523Y-63857142D01*
X174482142Y-63761904D01*
X174482142Y-63523809D01*
X174434523Y-63428571D01*
X174386904Y-63380952D01*
X174291666Y-63333333D01*
X174101190Y-63333333D01*
X174005952Y-63380952D01*
X173958333Y-63428571D01*
X173910714Y-63523809D01*
X175101190Y-62952380D02*
X175196428Y-62952380D01*
X175291666Y-63000000D01*
X175339285Y-63047619D01*
X175386904Y-63142857D01*
X175434523Y-63333333D01*
X175434523Y-63571428D01*
X175386904Y-63761904D01*
X175339285Y-63857142D01*
X175291666Y-63904761D01*
X175196428Y-63952380D01*
X175101190Y-63952380D01*
X175005952Y-63904761D01*
X174958333Y-63857142D01*
X174910714Y-63761904D01*
X174863095Y-63571428D01*
X174863095Y-63333333D01*
X174910714Y-63142857D01*
X174958333Y-63047619D01*
X175005952Y-63000000D01*
X175101190Y-62952380D01*
X175815476Y-63047619D02*
X175863095Y-63000000D01*
X175958333Y-62952380D01*
X176196428Y-62952380D01*
X176291666Y-63000000D01*
X176339285Y-63047619D01*
X176386904Y-63142857D01*
X176386904Y-63238095D01*
X176339285Y-63380952D01*
X175767857Y-63952380D01*
X176386904Y-63952380D01*
D12*
%TO.C,C205*%
X159017580Y-109723614D02*
X158736420Y-109723614D01*
X159017580Y-108703614D02*
X158736420Y-108703614D01*
%TO.C,R239*%
X159131724Y-108212114D02*
X158622276Y-108212114D01*
X159131724Y-107167114D02*
X158622276Y-107167114D01*
%TO.C,R238*%
X158622276Y-105643114D02*
X159131724Y-105643114D01*
X158622276Y-106688114D02*
X159131724Y-106688114D01*
%TO.C,J201*%
X129480000Y-101727000D02*
X129480000Y-100397000D01*
X129480000Y-102997000D02*
X132140000Y-102997000D01*
X129480000Y-100397000D02*
X130810000Y-100397000D01*
X132140000Y-102997000D02*
X132140000Y-103057000D01*
X129480000Y-102997000D02*
X129480000Y-103057000D01*
X129480000Y-103057000D02*
X132140000Y-103057000D01*
%TO.C,R202*%
X189865724Y-114793500D02*
X189356276Y-114793500D01*
X189865724Y-115838500D02*
X189356276Y-115838500D01*
%TO.C,R211*%
X189865724Y-108697500D02*
X189356276Y-108697500D01*
X189865724Y-109742500D02*
X189356276Y-109742500D01*
%TO.C,JP201*%
X140323000Y-102219000D02*
X136223000Y-102219000D01*
X140323000Y-100219000D02*
X140323000Y-102219000D01*
X136223000Y-102219000D02*
X136223000Y-100219000D01*
X136223000Y-100219000D02*
X140323000Y-100219000D01*
%TO.C,R230*%
X179944500Y-95757276D02*
X179944500Y-96266724D01*
X180989500Y-95757276D02*
X180989500Y-96266724D01*
%TO.C,R220*%
X189865724Y-103646500D02*
X189356276Y-103646500D01*
X189865724Y-102601500D02*
X189356276Y-102601500D01*
%TO.C,R221*%
X183021500Y-101853276D02*
X183021500Y-102362724D01*
X181976500Y-101853276D02*
X181976500Y-102362724D01*
%TO.C,R236*%
X185801724Y-92441500D02*
X185292276Y-92441500D01*
X185801724Y-93486500D02*
X185292276Y-93486500D01*
%TO.C,U502*%
X156815000Y-75190000D02*
X167035000Y-75190000D01*
X156815000Y-61970000D02*
X156815000Y-75190000D01*
X156455000Y-61610000D02*
X157655000Y-61610000D01*
X156455000Y-62810000D02*
X156455000Y-61610000D01*
X167035000Y-75190000D02*
X167035000Y-61970000D01*
X167035000Y-61970000D02*
X156815000Y-61970000D01*
%TO.C,R218*%
X180989500Y-103885276D02*
X180989500Y-104394724D01*
X179944500Y-103885276D02*
X179944500Y-104394724D01*
%TO.C,R223*%
X189865724Y-100569500D02*
X189356276Y-100569500D01*
X189865724Y-101614500D02*
X189356276Y-101614500D01*
%TO.C,R201*%
X185801724Y-115838500D02*
X185292276Y-115838500D01*
X185801724Y-114793500D02*
X185292276Y-114793500D01*
%TO.C,C201*%
X162573580Y-109723614D02*
X162292420Y-109723614D01*
X162573580Y-108703614D02*
X162292420Y-108703614D01*
%TO.C,R235*%
X179944500Y-92202724D02*
X179944500Y-91693276D01*
X180989500Y-92202724D02*
X180989500Y-91693276D01*
%TO.C,J101*%
X151130000Y-105350000D02*
X153730000Y-105350000D01*
X151130000Y-107950000D02*
X151130000Y-105350000D01*
X148530000Y-105350000D02*
X149860000Y-105350000D01*
X153730000Y-105350000D02*
X153730000Y-118170000D01*
X148530000Y-107950000D02*
X148530000Y-118170000D01*
X148530000Y-118170000D02*
X153730000Y-118170000D01*
X148530000Y-107950000D02*
X151130000Y-107950000D01*
X148530000Y-106680000D02*
X148530000Y-105350000D01*
%TO.C,R228*%
X185801724Y-97550500D02*
X185292276Y-97550500D01*
X185801724Y-96505500D02*
X185292276Y-96505500D01*
%TO.C,R216*%
X185801724Y-105678500D02*
X185292276Y-105678500D01*
X185801724Y-104633500D02*
X185292276Y-104633500D01*
%TO.C,IC203*%
X172795000Y-106260000D02*
X172150000Y-106260000D01*
X170095000Y-104560000D02*
X170750000Y-104560000D01*
D13*
X170750000Y-104310000D02*
X172150000Y-104310000D01*
D12*
X172150000Y-106510000D02*
X170750000Y-106510000D01*
D13*
X172150000Y-106510000D02*
X170750000Y-106510000D01*
D12*
X170750000Y-106260000D02*
X170095000Y-106260000D01*
X172150000Y-104560000D02*
X172795000Y-104560000D01*
X170750000Y-104310000D02*
X172150000Y-104310000D01*
X172150000Y-104310000D02*
X172150000Y-104560000D01*
X170095000Y-106260000D02*
X170095000Y-104560000D01*
X172150000Y-106260000D02*
X172150000Y-106510000D01*
D13*
X172150000Y-104310000D02*
X172150000Y-106510000D01*
X170750000Y-106510000D02*
X170750000Y-104310000D01*
D12*
X170750000Y-104560000D02*
X170750000Y-104310000D01*
X172795000Y-104560000D02*
X172795000Y-106260000D01*
X170750000Y-106510000D02*
X170750000Y-106260000D01*
%TO.C,J105*%
X192218000Y-66929000D02*
X194878000Y-66929000D01*
X192218000Y-64329000D02*
X193548000Y-64329000D01*
X192218000Y-66989000D02*
X194878000Y-66989000D01*
X194878000Y-66929000D02*
X194878000Y-66989000D01*
X192218000Y-65659000D02*
X192218000Y-64329000D01*
X192218000Y-66929000D02*
X192218000Y-66989000D01*
%TO.C,J203*%
X171390000Y-118618000D02*
X171390000Y-118678000D01*
X171390000Y-117348000D02*
X171390000Y-116018000D01*
X171390000Y-116018000D02*
X172720000Y-116018000D01*
X174050000Y-118618000D02*
X174050000Y-118678000D01*
X171390000Y-118618000D02*
X174050000Y-118618000D01*
X171390000Y-118678000D02*
X174050000Y-118678000D01*
%TO.C,J204*%
X167580000Y-111820000D02*
X170240000Y-111820000D01*
X167580000Y-111760000D02*
X170240000Y-111760000D01*
X170240000Y-111760000D02*
X170240000Y-111820000D01*
X167580000Y-111760000D02*
X167580000Y-111820000D01*
X167580000Y-110490000D02*
X167580000Y-109160000D01*
X167580000Y-109160000D02*
X168910000Y-109160000D01*
%TO.C,R224*%
X180989500Y-99821276D02*
X180989500Y-100330724D01*
X179944500Y-99821276D02*
X179944500Y-100330724D01*
%TO.C,R208*%
X189865724Y-110729500D02*
X189356276Y-110729500D01*
X189865724Y-111774500D02*
X189356276Y-111774500D01*
%TO.C,R204*%
X185905224Y-112761500D02*
X185395776Y-112761500D01*
X185905224Y-113806500D02*
X185395776Y-113806500D01*
%TO.C,J205*%
X170120000Y-99695000D02*
X170120000Y-99755000D01*
X170120000Y-97095000D02*
X171450000Y-97095000D01*
X170120000Y-99695000D02*
X172780000Y-99695000D01*
X170120000Y-99755000D02*
X172780000Y-99755000D01*
X172780000Y-99695000D02*
X172780000Y-99755000D01*
X170120000Y-98425000D02*
X170120000Y-97095000D01*
%TO.C,R232*%
X189865724Y-95518500D02*
X189356276Y-95518500D01*
X189865724Y-94473500D02*
X189356276Y-94473500D01*
%TO.C,R234*%
X185292276Y-91454500D02*
X185801724Y-91454500D01*
X185292276Y-90409500D02*
X185801724Y-90409500D01*
%TO.C,R225*%
X185801724Y-98537500D02*
X185292276Y-98537500D01*
X185801724Y-99582500D02*
X185292276Y-99582500D01*
%TO.C,J107*%
X197806000Y-64329000D02*
X199136000Y-64329000D01*
X197806000Y-65659000D02*
X197806000Y-64329000D01*
X197806000Y-66929000D02*
X200466000Y-66929000D01*
X197806000Y-66929000D02*
X197806000Y-66989000D01*
X197806000Y-66989000D02*
X200466000Y-66989000D01*
X200466000Y-66929000D02*
X200466000Y-66989000D01*
%TO.C,R203*%
X181976500Y-114045276D02*
X181976500Y-114554724D01*
X183021500Y-114045276D02*
X183021500Y-114554724D01*
%TO.C,R215*%
X181976500Y-105917276D02*
X181976500Y-106426724D01*
X183021500Y-105917276D02*
X183021500Y-106426724D01*
%TO.C,R210*%
X185801724Y-109742500D02*
X185292276Y-109742500D01*
X185801724Y-108697500D02*
X185292276Y-108697500D01*
%TO.C,R226*%
X189865724Y-98537500D02*
X189356276Y-98537500D01*
X189865724Y-99582500D02*
X189356276Y-99582500D01*
%TO.C,R219*%
X185801724Y-103646500D02*
X185292276Y-103646500D01*
X185801724Y-102601500D02*
X185292276Y-102601500D01*
%TO.C,R222*%
X185801724Y-100569500D02*
X185292276Y-100569500D01*
X185801724Y-101614500D02*
X185292276Y-101614500D01*
%TO.C,R206*%
X179944500Y-112013276D02*
X179944500Y-112522724D01*
X180989500Y-112013276D02*
X180989500Y-112522724D01*
%TO.C,R217*%
X189865724Y-104633500D02*
X189356276Y-104633500D01*
X189865724Y-105678500D02*
X189356276Y-105678500D01*
%TO.C,C204*%
X171590580Y-102995000D02*
X171309420Y-102995000D01*
X171590580Y-104015000D02*
X171309420Y-104015000D01*
%TO.C,U302*%
X141635000Y-61970000D02*
X131415000Y-61970000D01*
X131055000Y-61610000D02*
X132255000Y-61610000D01*
X131415000Y-75190000D02*
X141635000Y-75190000D01*
X131415000Y-61970000D02*
X131415000Y-75190000D01*
X141635000Y-75190000D02*
X141635000Y-61970000D01*
X131055000Y-62810000D02*
X131055000Y-61610000D01*
%TO.C,R229*%
X189865724Y-96505500D02*
X189356276Y-96505500D01*
X189865724Y-97550500D02*
X189356276Y-97550500D01*
%TO.C,J106*%
X129480000Y-97536000D02*
X132140000Y-97536000D01*
X129480000Y-94936000D02*
X130810000Y-94936000D01*
X132140000Y-97536000D02*
X132140000Y-97596000D01*
X129480000Y-97536000D02*
X129480000Y-97596000D01*
X129480000Y-96266000D02*
X129480000Y-94936000D01*
X129480000Y-97596000D02*
X132140000Y-97596000D01*
%TO.C,IC201*%
X158238000Y-113212614D02*
X158238000Y-110822614D01*
X159563000Y-113507614D02*
X159563000Y-113212614D01*
X164088000Y-110822614D02*
X164088000Y-113212614D01*
D13*
X162763000Y-110407614D02*
X162763000Y-113507614D01*
X159563000Y-113507614D02*
X159563000Y-110407614D01*
D12*
X162763000Y-113507614D02*
X159563000Y-113507614D01*
X162763000Y-110822614D02*
X164088000Y-110822614D01*
X159563000Y-110407614D02*
X162763000Y-110407614D01*
X162763000Y-113212614D02*
X162763000Y-113507614D01*
X159563000Y-113212614D02*
X158238000Y-113212614D01*
X159563000Y-110822614D02*
X159563000Y-110407614D01*
D13*
X159563000Y-110407614D02*
X162763000Y-110407614D01*
D12*
X158238000Y-110822614D02*
X159563000Y-110822614D01*
X164088000Y-113212614D02*
X162763000Y-113212614D01*
X162763000Y-110407614D02*
X162763000Y-110822614D01*
D13*
X162763000Y-113507614D02*
X159563000Y-113507614D01*
D14*
X160418000Y-111047614D02*
G75*
G03*
X160418000Y-111047614I-255000J0D01*
G01*
D12*
%TO.C,C203*%
X162968400Y-116047634D02*
X162968400Y-116328794D01*
X161948400Y-116047634D02*
X161948400Y-116328794D01*
%TO.C,U402*%
X154335000Y-61970000D02*
X144115000Y-61970000D01*
X154335000Y-75190000D02*
X154335000Y-61970000D01*
X144115000Y-61970000D02*
X144115000Y-75190000D01*
X143755000Y-62810000D02*
X143755000Y-61610000D01*
X144115000Y-75190000D02*
X154335000Y-75190000D01*
X143755000Y-61610000D02*
X144955000Y-61610000D01*
%TO.C,U602*%
X179735000Y-75190000D02*
X179735000Y-61970000D01*
X169155000Y-62810000D02*
X169155000Y-61610000D01*
X169515000Y-61970000D02*
X169515000Y-75190000D01*
X169155000Y-61610000D02*
X170355000Y-61610000D01*
X169515000Y-75190000D02*
X179735000Y-75190000D01*
X179735000Y-61970000D02*
X169515000Y-61970000D01*
%TO.C,R231*%
X185801724Y-94473500D02*
X185292276Y-94473500D01*
X185801724Y-95518500D02*
X185292276Y-95518500D01*
%TO.C,R209*%
X181976500Y-109981276D02*
X181976500Y-110490724D01*
X183021500Y-109981276D02*
X183021500Y-110490724D01*
%TO.C,R233*%
X181976500Y-93725276D02*
X181976500Y-94234724D01*
X183021500Y-93725276D02*
X183021500Y-94234724D01*
%TO.C,C202*%
X159804980Y-117470614D02*
X159523820Y-117470614D01*
X159804980Y-116450614D02*
X159523820Y-116450614D01*
%TO.C,R205*%
X189865724Y-113806500D02*
X189356276Y-113806500D01*
X189865724Y-112761500D02*
X189356276Y-112761500D01*
%TO.C,R227*%
X181976500Y-97789276D02*
X181976500Y-98298724D01*
X183021500Y-97789276D02*
X183021500Y-98298724D01*
%TO.C,J202*%
X172660000Y-111760000D02*
X172660000Y-111820000D01*
X172660000Y-109160000D02*
X173990000Y-109160000D01*
X172660000Y-110490000D02*
X172660000Y-109160000D01*
X175320000Y-111760000D02*
X175320000Y-111820000D01*
X172660000Y-111820000D02*
X175320000Y-111820000D01*
X172660000Y-111760000D02*
X175320000Y-111760000D01*
%TO.C,R207*%
X185801724Y-111774500D02*
X185292276Y-111774500D01*
X185801724Y-110729500D02*
X185292276Y-110729500D01*
%TO.C,J102*%
X196850000Y-69790000D02*
X199450000Y-69790000D01*
X194250000Y-72390000D02*
X196850000Y-72390000D01*
X199450000Y-69790000D02*
X199450000Y-120710000D01*
X194250000Y-72390000D02*
X194250000Y-120710000D01*
X194250000Y-71120000D02*
X194250000Y-69790000D01*
X194250000Y-120710000D02*
X199450000Y-120710000D01*
X194250000Y-69790000D02*
X195580000Y-69790000D01*
X196850000Y-72390000D02*
X196850000Y-69790000D01*
%TO.C,R213*%
X185801724Y-107710500D02*
X185292276Y-107710500D01*
X185801724Y-106665500D02*
X185292276Y-106665500D01*
%TO.C,R214*%
X189865724Y-106665500D02*
X189356276Y-106665500D01*
X189865724Y-107710500D02*
X189356276Y-107710500D01*
%TO.C,IC202*%
X158998400Y-115827214D02*
X158998400Y-113827214D01*
D13*
X158523400Y-113977214D02*
X158523400Y-115677214D01*
X160723400Y-115677214D02*
X160323400Y-115677214D01*
X160973400Y-115677214D02*
X160723400Y-115677214D01*
X160323400Y-115927214D02*
X158923400Y-115927214D01*
X158273400Y-113977214D02*
X158523400Y-113977214D01*
X160323400Y-113727214D02*
X160323400Y-115927214D01*
X160323400Y-113977214D02*
X160723400Y-113977214D01*
X160723400Y-115677214D02*
X160723400Y-113977214D01*
X158273400Y-115677214D02*
X158273400Y-113977214D01*
X158923400Y-113977214D02*
X158923400Y-115677214D01*
D12*
X160248400Y-113827214D02*
X160248400Y-115827214D01*
D13*
X158923400Y-113727214D02*
X160323400Y-113727214D01*
X160723400Y-113977214D02*
X160723400Y-115677214D01*
X158523400Y-115677214D02*
X158273400Y-115677214D01*
X158523400Y-113977214D02*
X158923400Y-113977214D01*
D12*
X158998400Y-113827214D02*
X160248400Y-113827214D01*
X160248400Y-115827214D02*
X158998400Y-115827214D01*
D13*
X160973400Y-113977214D02*
X160973400Y-115677214D01*
X158923400Y-115677214D02*
X158523400Y-115677214D01*
X160723400Y-113977214D02*
X160973400Y-113977214D01*
X158923400Y-115927214D02*
X158923400Y-113727214D01*
X158523400Y-115677214D02*
X158523400Y-113977214D01*
X160323400Y-115677214D02*
X160323400Y-113977214D01*
X159398400Y-114177214D02*
G75*
G03*
X159398400Y-114177214I-175000J0D01*
G01*
D12*
%TO.C,R212*%
X180989500Y-107949276D02*
X180989500Y-108458724D01*
X179944500Y-107949276D02*
X179944500Y-108458724D01*
%TO.C,R237*%
X189865724Y-93486500D02*
X189356276Y-93486500D01*
X189865724Y-92441500D02*
X189356276Y-92441500D01*
%TD*%
M02*
