%FSLAX45Y45*%
G04 Gerber Fmt 4.5, Leading zero omitted, Abs format (unit mm)*
G04 Created by KiCad (PCBNEW (6.0.0)) date 2023-05-14 10:20:07*
%MOMM*%
%LPD*%
G01*
G04 APERTURE LIST*
%TA.AperFunction,Profile*%
%ADD10C,0.100000*%
%TD*%
%ADD11C,0.200000*%
G04 APERTURE END LIST*
D10*
X12827000Y-6096000D02*
X12827000Y-10414000D01*
X12827000Y-10414000D02*
X14732000Y-10414000D01*
X19050000Y-12192000D02*
X19050000Y-11938000D01*
X19050000Y-12192000D02*
X20320000Y-12192000D01*
X14732000Y-10414000D02*
X14732000Y-11938000D01*
X20447000Y-11938000D02*
X20447000Y-6096000D01*
X14732000Y-11938000D02*
X14986000Y-11938000D01*
X20447000Y-11938000D02*
X20447000Y-12192000D01*
X14986000Y-11938000D02*
X19050000Y-11938000D01*
X20320000Y-12192000D02*
X20447000Y-12192000D01*
X12827000Y-6096000D02*
X20447000Y-6096000D01*
D11*
X13079619Y-12507476D02*
X13079619Y-12307476D01*
X13127238Y-12307476D01*
X13155809Y-12317000D01*
X13174857Y-12336048D01*
X13184381Y-12355095D01*
X13193905Y-12393190D01*
X13193905Y-12421762D01*
X13184381Y-12459857D01*
X13174857Y-12478905D01*
X13155809Y-12497952D01*
X13127238Y-12507476D01*
X13079619Y-12507476D01*
X13279619Y-12507476D02*
X13279619Y-12374143D01*
X13279619Y-12412238D02*
X13289143Y-12393190D01*
X13298667Y-12383667D01*
X13317714Y-12374143D01*
X13336762Y-12374143D01*
X13403428Y-12507476D02*
X13403428Y-12374143D01*
X13403428Y-12307476D02*
X13393905Y-12317000D01*
X13403428Y-12326524D01*
X13412952Y-12317000D01*
X13403428Y-12307476D01*
X13403428Y-12326524D01*
X13527238Y-12507476D02*
X13508190Y-12497952D01*
X13498667Y-12478905D01*
X13498667Y-12307476D01*
X13632000Y-12507476D02*
X13612952Y-12497952D01*
X13603428Y-12478905D01*
X13603428Y-12307476D01*
X13860571Y-12507476D02*
X13860571Y-12307476D01*
X13927238Y-12450333D01*
X13993905Y-12307476D01*
X13993905Y-12507476D01*
X14174857Y-12507476D02*
X14174857Y-12402714D01*
X14165333Y-12383667D01*
X14146286Y-12374143D01*
X14108190Y-12374143D01*
X14089143Y-12383667D01*
X14174857Y-12497952D02*
X14155809Y-12507476D01*
X14108190Y-12507476D01*
X14089143Y-12497952D01*
X14079619Y-12478905D01*
X14079619Y-12459857D01*
X14089143Y-12440809D01*
X14108190Y-12431286D01*
X14155809Y-12431286D01*
X14174857Y-12421762D01*
X14270095Y-12374143D02*
X14270095Y-12574143D01*
X14270095Y-12383667D02*
X14289143Y-12374143D01*
X14327238Y-12374143D01*
X14346286Y-12383667D01*
X14355809Y-12393190D01*
X14365333Y-12412238D01*
X14365333Y-12469381D01*
X14355809Y-12488428D01*
X14346286Y-12497952D01*
X14327238Y-12507476D01*
X14289143Y-12507476D01*
X14270095Y-12497952D01*
X14451048Y-12488428D02*
X14460571Y-12497952D01*
X14451048Y-12507476D01*
X14441524Y-12497952D01*
X14451048Y-12488428D01*
X14451048Y-12507476D01*
X14451048Y-12383667D02*
X14460571Y-12393190D01*
X14451048Y-12402714D01*
X14441524Y-12393190D01*
X14451048Y-12383667D01*
X14451048Y-12402714D01*
M02*
