M48
; DRILL file {KiCad (6.0.0)} date Sun May 14 10:20:07 2023
; FORMAT={-:-/ absolute / metric / decimal}
; #@! TF.CreationDate,2023-05-14T10:20:07+02:00
; #@! TF.GenerationSoftware,Kicad,Pcbnew,(6.0.0)
; #@! TF.FileFunction,Plated,1,2,PTH
FMAT,2
METRIC
; #@! TA.AperFunction,Plated,PTH,ViaDrill
T1C0.400
; #@! TA.AperFunction,Plated,PTH,ComponentDrill
T2C0.762
; #@! TA.AperFunction,Plated,PTH,ComponentDrill
T3C1.000
%
G90
G05
T1
X130.175Y-85.725
X130.175Y-90.805
X131.369Y-77.953
X132.08Y-90.805
X133.546Y-94.234
X135.89Y-93.98
X135.89Y-95.25
X138.43Y-95.25
X142.875Y-85.725
X142.875Y-91.44
X144.069Y-77.953
X144.78Y-90.805
X144.78Y-93.167
X148.59Y-93.98
X148.59Y-95.795
X151.13Y-95.25
X154.94Y-114.808
X155.575Y-85.725
X155.575Y-91.44
X156.134Y-77.953
X157.099Y-116.326
X157.48Y-90.805
X158.115Y-94.615
X161.29Y-94.132
X161.29Y-95.795
X161.384Y-116.961
X161.823Y-114.283
X163.83Y-95.25
X164.465Y-109.214
X164.719Y-115.564
X167.538Y-104.445
X168.275Y-85.725
X168.275Y-91.44
X168.91Y-78.105
X170.18Y-90.805
X170.815Y-94.615
X172.174Y-102.235
X173.99Y-93.98
X173.99Y-95.795
X175.768Y-116.332
X176.53Y-95.25
X177.749Y-107.798
X192.024Y-88.169
X193.04Y-88.138
X193.548Y-83.82
X193.548Y-84.963
T2
X152.4Y-99.06
X154.94Y-96.52
X157.48Y-99.06
T3
X130.81Y-96.266
X130.81Y-101.727
X132.715Y-63.5
X132.715Y-66.04
X132.715Y-68.58
X132.715Y-71.12
X132.715Y-73.66
X140.335Y-63.5
X140.335Y-66.04
X140.335Y-68.58
X140.335Y-71.12
X140.335Y-73.66
X145.415Y-63.5
X145.415Y-66.04
X145.415Y-68.58
X145.415Y-71.12
X145.415Y-73.66
X149.86Y-106.68
X149.86Y-109.22
X149.86Y-111.76
X149.86Y-114.3
X149.86Y-116.84
X152.4Y-106.68
X152.4Y-109.22
X152.4Y-111.76
X152.4Y-114.3
X152.4Y-116.84
X153.035Y-63.5
X153.035Y-66.04
X153.035Y-68.58
X153.035Y-71.12
X153.035Y-73.66
X158.115Y-63.5
X158.115Y-66.04
X158.115Y-68.58
X158.115Y-71.12
X158.115Y-73.66
X165.735Y-63.5
X165.735Y-66.04
X165.735Y-68.58
X165.735Y-71.12
X165.735Y-73.66
X168.91Y-110.49
X170.815Y-63.5
X170.815Y-66.04
X170.815Y-68.58
X170.815Y-71.12
X170.815Y-73.66
X171.45Y-98.425
X172.72Y-117.348
X173.99Y-110.49
X178.435Y-63.5
X178.435Y-66.04
X178.435Y-68.58
X178.435Y-71.12
X178.435Y-73.66
X193.548Y-65.659
X195.58Y-71.12
X195.58Y-73.66
X195.58Y-76.2
X195.58Y-78.74
X195.58Y-81.28
X195.58Y-83.82
X195.58Y-86.36
X195.58Y-88.9
X195.58Y-91.44
X195.58Y-93.98
X195.58Y-96.52
X195.58Y-99.06
X195.58Y-101.6
X195.58Y-104.14
X195.58Y-106.68
X195.58Y-109.22
X195.58Y-111.76
X195.58Y-114.3
X195.58Y-116.84
X195.58Y-119.38
X198.12Y-71.12
X198.12Y-73.66
X198.12Y-76.2
X198.12Y-78.74
X198.12Y-81.28
X198.12Y-83.82
X198.12Y-86.36
X198.12Y-88.9
X198.12Y-91.44
X198.12Y-93.98
X198.12Y-96.52
X198.12Y-99.06
X198.12Y-101.6
X198.12Y-104.14
X198.12Y-106.68
X198.12Y-109.22
X198.12Y-111.76
X198.12Y-114.3
X198.12Y-116.84
X198.12Y-119.38
X199.136Y-65.659
T0
M30
